<svg width="154" height="51" viewBox="0 0 154 51" fill="none" xmlns="http://www.w3.org/2000/svg">
<mask id="mask0_727_139" style="mask-type:luminance" maskUnits="userSpaceOnUse" x="0" y="0" width="154" height="51">
<path d="M154 0H0V51H154V0Z" fill="white"/>
</mask>
<g mask="url(#mask0_727_139)">
<path d="M75.3712 0.67591C70.3006 0.994255 65.3363 2.91848 61.3634 6.10901C56.6752 9.87256 53.5096 15.1217 52.3978 20.9722C52.0933 22.5922 52.0083 23.618 52.0083 25.6059C52.0083 28.1102 52.1995 29.6737 52.7802 31.9021C54.579 38.8066 59.3592 44.7066 65.7187 47.8972C70.3714 50.2246 75.4491 51.0594 80.5409 50.3237C88.5504 49.1705 95.5685 44.1548 99.2369 36.9532C100.625 34.2225 101.432 31.5696 101.836 28.4003C101.963 27.4028 101.963 23.809 101.836 22.8116C101.255 18.2274 99.6547 14.2092 97.0061 10.6791C92.5375 4.72244 85.8452 1.1216 78.381 0.668836C77.085 0.591018 76.7096 0.591018 75.3712 0.67591ZM80.116 1.40457C82.4034 1.72999 84.5209 2.31008 86.518 3.15901C89.5915 4.46068 92.5941 6.57591 94.8532 9.01656C100.257 14.8671 102.452 22.6842 100.894 30.5226C100.682 31.5979 100.179 33.2887 99.7609 34.364C97.8843 39.1674 94.6054 43.1998 90.2784 46.0366C87.2403 48.0245 83.7915 49.2979 80.0806 49.8002C78.9333 49.9558 76.221 50.0195 74.9675 49.9134C68.9905 49.4111 63.4879 46.7723 59.3167 42.4146C52.8369 35.6515 50.8256 25.7828 54.1328 16.9894C54.3099 16.5154 54.7419 15.5533 55.0818 14.8529C56.3565 12.2779 57.9216 10.1202 59.9753 8.13227C63.9624 4.26968 68.8418 1.97759 74.4364 1.3409C75.5766 1.20649 79.0112 1.24893 80.116 1.40457Z" fill="#663494"/>
<path d="M75.64 3.88079C75.2576 4.05058 75.1726 4.26281 75.208 4.95609C75.2363 5.47959 75.2647 5.57863 75.4134 5.73427C75.7604 6.08091 76.4827 5.99602 76.6739 5.57863C76.7802 5.33103 76.7731 4.53163 76.6527 4.24158C76.4969 3.87372 76.0437 3.71101 75.64 3.88079ZM76.2703 4.25573C76.4473 4.41137 76.4544 5.3664 76.2774 5.56449C76.1286 5.73427 75.8666 5.72719 75.6896 5.55034C75.5692 5.43007 75.5479 5.31688 75.5479 4.85705C75.5479 4.52456 75.5833 4.26988 75.6329 4.22036C75.7533 4.1001 76.1145 4.11425 76.2703 4.25573Z" fill="#663494"/>
<path d="M77.9916 3.85235C77.8004 3.9231 77.6941 4.05751 77.6375 4.29804C77.595 4.46782 77.6092 4.48904 77.765 4.48904C77.8924 4.48904 77.9562 4.43952 77.9845 4.31219C78.0341 4.1141 78.3386 4.00091 78.5156 4.1141C78.5794 4.15655 78.636 4.28389 78.6502 4.39708C78.6785 4.65883 78.4802 4.9135 77.9278 5.30259C77.418 5.67046 77.4109 5.7978 77.9066 5.86147C78.1049 5.88269 78.4236 5.90391 78.6148 5.90391C78.8981 5.90391 78.9476 5.88269 78.9476 5.76243C78.9476 5.63509 78.8981 5.62094 78.5156 5.62094H78.0766L78.551 5.17526C78.9618 4.78617 79.0184 4.70127 79.0184 4.4749C79.0184 4.12118 78.9618 4.00799 78.7281 3.88772C78.5086 3.77454 78.2182 3.76039 77.9916 3.85235Z" fill="#663494"/>
<path d="M73.3102 4.12834C73.1189 4.24153 72.9277 4.57402 72.9277 4.77918C72.9277 4.81455 73.0056 4.84285 73.0977 4.84285C73.2252 4.84285 73.2747 4.79333 73.3031 4.63769C73.381 4.26275 73.82 4.17786 73.9971 4.49621C74.1104 4.71551 73.9688 5.02678 73.5297 5.55028C72.949 6.22942 72.9773 6.25772 74.0042 6.08793C74.6132 5.98889 74.6486 5.97474 74.592 5.81911C74.5566 5.73422 74.4857 5.72714 74.252 5.76959C73.6855 5.8757 73.6784 5.86863 73.99 5.45832C74.3653 4.95604 74.4574 4.68721 74.3441 4.41131C74.1812 4.02222 73.7067 3.88781 73.3102 4.12834Z" fill="#663494"/>
<path d="M80.3923 4.14217C80.0665 4.23414 79.9532 4.411 79.8258 5.01939C79.7195 5.52874 79.7195 5.59241 79.8258 5.81172C80.0099 6.20081 80.5269 6.35644 80.9234 6.15128C81.1501 6.0381 81.2421 5.84001 81.3625 5.21747C81.4263 4.86376 81.4263 4.72934 81.3554 4.55956C81.2209 4.22707 80.7676 4.03606 80.3923 4.14217ZM80.9589 4.53126C81.0934 4.6586 81.1005 4.82131 81.0013 5.34481C80.8951 5.92491 80.5339 6.14421 80.2153 5.82587C80.0878 5.69853 80.0736 5.62778 80.1161 5.28114C80.1728 4.82838 80.2648 4.55249 80.3852 4.47467C80.5269 4.3827 80.8455 4.411 80.9589 4.53126Z" fill="#663494"/>
<path d="M83.3309 5.80473C83.2672 5.88255 83.2601 5.94622 83.3167 6.03111C83.4159 6.18675 83.6213 6.18675 83.7204 6.02404C83.7841 5.91792 83.77 5.87547 83.6638 5.79058C83.4867 5.66324 83.4442 5.66324 83.3309 5.80473Z" fill="#663494"/>
<path d="M69.9608 5.92496C69.8334 6.08767 69.9467 6.2716 70.1591 6.24331C70.3008 6.22916 70.3433 6.18671 70.3433 6.04523C70.3433 5.84007 70.1025 5.76225 69.9608 5.92496Z" fill="#663494"/>
<path d="M84.7119 6.36369C84.6411 6.54055 84.7403 6.68204 84.9244 6.68204C85.1156 6.68204 85.2218 6.49811 85.1014 6.35662C84.9952 6.22221 84.7615 6.22928 84.7119 6.36369Z" fill="#663494"/>
<path d="M68.5869 6.44147C68.516 6.51929 68.5231 6.7386 68.6081 6.78812C68.7497 6.87301 68.9693 6.74567 68.948 6.59004C68.9268 6.4344 68.6931 6.34243 68.5869 6.44147Z" fill="#663494"/>
<path d="M86.1142 6.98621C86.0009 7.12062 86.1708 7.33993 86.355 7.30456C86.5533 7.26919 86.5391 6.93669 86.3408 6.90839C86.2629 6.89424 86.1567 6.92962 86.1142 6.98621Z" fill="#663494"/>
<path d="M67.1986 7.1276C67.0712 7.29031 67.1845 7.47424 67.3969 7.44595C67.5386 7.4318 67.581 7.38935 67.581 7.24786C67.581 7.04271 67.3403 6.96489 67.1986 7.1276Z" fill="#663494"/>
<path d="M87.4599 7.68652C87.3324 7.81386 87.3536 7.94119 87.5236 8.03316C87.729 8.13927 87.9414 7.94827 87.8281 7.75726C87.729 7.60163 87.5732 7.57333 87.4599 7.68652Z" fill="#663494"/>
<path d="M65.931 7.82824C65.8248 7.93436 65.8177 8.14659 65.9168 8.20318C65.9593 8.2244 66.0514 8.2244 66.1293 8.20318C66.2992 8.14659 66.3205 7.84946 66.1576 7.78579C66.016 7.7292 66.0301 7.7292 65.931 7.82824Z" fill="#663494"/>
<path d="M88.678 8.55686C88.6284 8.67712 88.763 8.8752 88.8975 8.8752C88.9471 8.8752 89.025 8.82568 89.0746 8.76909C89.1454 8.6842 89.1454 8.64175 89.0746 8.55686C88.9613 8.42245 88.7276 8.42245 88.678 8.55686Z" fill="#663494"/>
<path d="M64.6563 8.67718C64.5289 8.80452 64.5501 8.93186 64.7059 9.01675C64.8121 9.06627 64.8688 9.0592 64.9538 8.9743C65.0175 8.91771 65.0671 8.83989 65.0671 8.8116C65.0671 8.73378 64.9042 8.59229 64.8192 8.59229C64.7767 8.59229 64.7059 8.62766 64.6563 8.67718Z" fill="#663494"/>
<path d="M89.8816 9.4763C89.832 9.59656 89.9666 9.79464 90.1011 9.79464C90.1507 9.79464 90.2286 9.74512 90.2782 9.68853C90.349 9.60363 90.349 9.56119 90.2782 9.4763C90.1649 9.34188 89.9312 9.34188 89.8816 9.4763Z" fill="#663494"/>
<path d="M63.4808 9.62523C63.3462 9.75964 63.3604 9.85868 63.5304 9.9648C63.7003 10.0709 63.927 9.84454 63.8207 9.67475C63.7145 9.50497 63.6154 9.49082 63.4808 9.62523Z" fill="#663494"/>
<path d="M91.0152 10.4667C90.9586 10.6011 91.1073 10.7851 91.2701 10.7851C91.433 10.7851 91.5109 10.587 91.4047 10.4597C91.2985 10.3253 91.0648 10.3323 91.0152 10.4667Z" fill="#663494"/>
<path d="M62.3121 10.7003C62.2554 10.8064 62.2625 10.863 62.3404 10.9267C62.4962 11.054 62.7441 10.9479 62.7157 10.764C62.6874 10.5588 62.4112 10.5164 62.3121 10.7003Z" fill="#663494"/>
<path d="M92.0773 11.5772C92.0135 11.7753 92.2189 11.945 92.4101 11.8389C92.5659 11.7611 92.5801 11.6267 92.4597 11.5064C92.3251 11.372 92.1339 11.4074 92.0773 11.5772Z" fill="#663494"/>
<path d="M61.3278 11.7189C61.2145 11.8321 61.2216 12.0372 61.342 12.0796C61.4907 12.1362 61.689 11.9665 61.6536 11.8038C61.6252 11.641 61.4482 11.5986 61.3278 11.7189Z" fill="#663494"/>
<path d="M74.3442 13.1904V13.8271H76.9645H79.5848V13.1904V12.5537H76.9645H74.3442V13.1904Z" fill="#663494"/>
<path d="M93.1323 12.6034C92.8986 12.6954 93.1394 13.0845 93.3802 12.9996C93.5005 12.9501 93.4864 12.6459 93.3518 12.5964C93.2881 12.5751 93.2385 12.5539 93.2314 12.561C93.2244 12.561 93.1748 12.5822 93.1323 12.6034Z" fill="#663494"/>
<path d="M60.2941 12.9428C60.2375 13.0985 60.3224 13.2612 60.4641 13.2612C60.627 13.2612 60.7757 13.0772 60.719 12.9428C60.6695 12.8084 60.3508 12.8013 60.2941 12.9428Z" fill="#663494"/>
<path d="M94.0529 13.8059C93.9042 13.8625 93.9467 14.1667 94.1025 14.2162C94.2795 14.2728 94.3858 14.2091 94.3858 14.0393C94.3858 13.8908 94.1875 13.7564 94.0529 13.8059Z" fill="#663494"/>
<path d="M59.4867 14.1241C59.3734 14.2373 59.3805 14.3575 59.508 14.4637C59.6496 14.5839 59.8408 14.4283 59.8125 14.2231C59.7842 14.0534 59.6142 13.9968 59.4867 14.1241Z" fill="#663494"/>
<path d="M74.3442 15.1006V15.7373H76.9645H79.5848V15.1006V14.4639H76.9645H74.3442V15.1006Z" fill="#663494"/>
<path d="M94.7682 15.1998C94.6974 15.3837 94.7966 15.5394 94.9665 15.5111C95.0869 15.4969 95.1294 15.4403 95.1294 15.313C95.1294 15.1856 95.0869 15.1291 94.9665 15.1149C94.8745 15.1008 94.7895 15.1361 94.7682 15.1998Z" fill="#663494"/>
<path d="M58.6937 15.4189C58.5591 15.5816 58.637 15.7726 58.8353 15.7726C58.9698 15.7726 59.0194 15.7302 59.0336 15.6028C59.069 15.3552 58.8495 15.2279 58.6937 15.4189Z" fill="#663494"/>
<path d="M95.5193 16.4796C95.3848 16.6424 95.4627 16.8334 95.661 16.8334C95.7743 16.8334 95.8451 16.7909 95.8593 16.706C95.8876 16.5787 95.7601 16.3735 95.661 16.3735C95.6326 16.3735 95.5689 16.423 95.5193 16.4796Z" fill="#663494"/>
<path d="M57.9781 16.7701C57.8719 16.8975 57.9639 17.1026 58.148 17.138C58.3038 17.1734 58.4455 16.8904 58.3322 16.756C58.2259 16.6286 58.0985 16.6286 57.9781 16.7701Z" fill="#663494"/>
<path d="M96.0929 17.8807C95.9158 18.1 96.1849 18.3476 96.4186 18.1778C96.5178 18.1 96.5319 18.0505 96.4682 17.9515C96.3691 17.7887 96.1991 17.7534 96.0929 17.8807Z" fill="#663494"/>
<path d="M57.3837 18.2203C57.32 18.4113 57.4829 18.5882 57.6599 18.5245C57.837 18.4538 57.7803 18.1142 57.582 18.0859C57.4758 18.0718 57.4191 18.1071 57.3837 18.2203Z" fill="#663494"/>
<path d="M96.5812 19.3378C96.5317 19.4439 96.5387 19.5076 96.6237 19.5925C96.7583 19.7198 96.8574 19.7057 96.9637 19.543C97.0132 19.4581 97.0062 19.3944 96.9424 19.3166C96.8149 19.161 96.6733 19.1751 96.5812 19.3378Z" fill="#663494"/>
<path d="M56.9228 19.593C56.8165 19.7203 56.8732 19.8972 57.0361 19.9608C57.206 20.0245 57.3618 19.7911 57.2698 19.6213C57.1848 19.4586 57.0432 19.4515 56.9228 19.593Z" fill="#663494"/>
<path d="M65.8467 22.9174V25.1458H66.2362H66.6257V22.9174V20.689H66.2362H65.8467V22.9174Z" fill="#663494"/>
<path d="M79.5845 22.9179V25.1463H79.9386C80.2714 25.1463 80.2927 25.1321 80.2927 24.9624V24.7855L80.5264 24.9624C81.1354 25.4293 82.1198 25.2807 82.5376 24.6511C83.1466 23.7597 82.7642 22.4793 81.8011 22.2034C81.362 22.076 81.0008 22.1255 80.6326 22.359L80.3635 22.5288V21.6091V20.6895H79.974H79.5845V22.9179ZM81.6382 22.9179C81.8932 23.0523 82.0631 23.3565 82.0631 23.696C82.0631 24.2054 81.7019 24.5803 81.2133 24.5803C80.7247 24.5803 80.3635 24.2054 80.3635 23.696C80.3635 23.0098 81.0292 22.5995 81.6382 22.9179Z" fill="#663494"/>
<path d="M96.9635 20.7882C96.8927 20.9722 96.9919 21.1278 97.1618 21.0995C97.2822 21.0853 97.3247 21.0287 97.3247 20.9014C97.3247 20.7741 97.2822 20.7175 97.1618 20.7033C97.0698 20.6892 96.9848 20.7245 96.9635 20.7882Z" fill="#663494"/>
<path d="M62.1423 20.8095C62.114 20.8307 62.0928 21.8211 62.0928 23.0025V25.146H63.2117C64.2952 25.146 64.3448 25.139 64.713 24.948C65.1592 24.7216 65.3504 24.4245 65.3504 23.9363C65.3504 23.5402 65.1379 23.1935 64.7768 22.9884L64.5218 22.8469L64.7839 22.6629C64.9751 22.5285 65.0671 22.3941 65.1167 22.1819C65.2867 21.5381 64.9184 20.9863 64.2244 20.8378C63.8278 20.7529 62.2202 20.7317 62.1423 20.8095ZM64.1748 21.6159C64.4014 21.7928 64.4298 22.1748 64.2244 22.38C64.0686 22.5356 63.6224 22.6205 63.1905 22.5851L62.9072 22.5639L62.8859 22.0121L62.8647 21.4674H63.4242C63.8845 21.4674 64.019 21.4957 64.1748 21.6159ZM64.3944 23.4482C64.5856 23.6251 64.6281 23.9222 64.4935 24.1698C64.3731 24.3891 63.9907 24.5094 63.4029 24.5094H62.8718V23.8656V23.2218L63.5445 23.2501C64.1252 23.2713 64.2386 23.2996 64.3944 23.4482Z" fill="#663494"/>
<path d="M56.5475 21.0149C56.4625 21.0998 56.4908 21.305 56.6041 21.3969C56.7458 21.5172 56.937 21.3615 56.9086 21.1564C56.8874 21.0078 56.6466 20.9159 56.5475 21.0149Z" fill="#663494"/>
<path d="M68.233 22.2031C67.1211 22.5144 66.7458 24.0212 67.5885 24.8065C68.1763 25.3583 69.3023 25.3724 69.8689 24.8419C70.2584 24.4811 70.4425 23.8585 70.3079 23.3209C70.1026 22.4436 69.1678 21.9414 68.233 22.2031ZM69.1748 22.9176C69.7414 23.2077 69.7343 24.1344 69.1748 24.4669C68.7924 24.6862 68.2542 24.566 68.0134 24.191C67.8435 23.9293 67.8505 23.4058 68.0276 23.1723C68.2896 22.8115 68.7712 22.7054 69.1748 22.9176Z" fill="#663494"/>
<path d="M71.738 22.2316C71.0653 22.4721 70.7183 22.9602 70.7183 23.6606C70.7183 24.368 71.0724 24.9057 71.6885 25.1462C71.8089 25.1957 72.0992 25.2311 72.3471 25.2311C72.9844 25.224 73.4518 24.9552 73.728 24.4317C73.9051 24.0992 73.9263 23.986 73.9051 23.5757C73.8838 23.1866 73.8413 23.0451 73.6714 22.7975C73.2677 22.2316 72.4391 21.984 71.738 22.2316ZM72.8924 23.0451C73.1827 23.3352 73.2606 23.6818 73.1119 24.0355C72.7791 24.842 71.5752 24.6864 71.4619 23.8233C71.384 23.2503 71.7664 22.8188 72.3542 22.8117C72.6091 22.8117 72.7012 22.8541 72.8924 23.0451Z" fill="#663494"/>
<path d="M75.6407 22.1817C75.5203 22.2171 75.3503 22.3303 75.2724 22.4293L75.1308 22.6062L75.1095 22.4081C75.0883 22.2241 75.06 22.21 74.7555 22.1888L74.4155 22.1675V23.6532V25.1458H74.7696H75.1237V24.2615C75.1237 23.3207 75.1945 23.0306 75.4707 22.8821C75.7044 22.7618 76.0302 22.7972 76.186 22.9669C76.3134 23.1084 76.3276 23.2145 76.3276 24.1342V25.1458H76.7171H77.1066V24.1554C77.1066 23.1933 77.1137 23.1509 77.2837 22.9882C77.5032 22.7618 77.8927 22.7476 78.0981 22.9528C78.2255 23.0801 78.2397 23.1862 78.2397 24.1201V25.1458H78.6292H79.0187V24.1342C79.0187 23.5824 78.9833 23.0094 78.9408 22.8538C78.8416 22.5 78.615 22.2737 78.2468 22.1746C77.8502 22.0685 77.4961 22.1463 77.1987 22.4081C76.9721 22.6062 76.9437 22.6132 76.88 22.5C76.7879 22.3444 76.278 22.1039 76.0443 22.111C75.9452 22.111 75.7681 22.1463 75.6407 22.1817Z" fill="#663494"/>
<path d="M84.2727 22.2034C83.5292 22.4439 83.1609 22.9957 83.2105 23.8022C83.2317 24.2054 83.2742 24.3469 83.4442 24.5874C83.9682 25.3302 85.1934 25.4576 85.8732 24.8421C85.9582 24.7643 86.029 24.6794 86.029 24.6582C86.029 24.6369 85.9157 24.545 85.7883 24.453L85.5404 24.2832L85.2713 24.4672C84.8251 24.7713 84.294 24.6935 84.0461 24.2832C83.9682 24.1559 83.9045 24.0285 83.9045 23.9932C83.9045 23.9649 84.4144 23.9437 85.0376 23.9437H86.1707V23.6324C86.1707 23.0452 85.8874 22.5005 85.4554 22.2812C85.1721 22.1326 84.6127 22.0973 84.2727 22.2034ZM85.2146 22.8967C85.3067 22.9886 85.3988 23.1301 85.4271 23.215C85.4696 23.3777 85.4696 23.3777 84.6906 23.3777C84.2586 23.3777 83.9045 23.3636 83.9045 23.3423C83.9045 23.2079 84.1524 22.8684 84.3152 22.7764C84.5773 22.6278 85.0163 22.6844 85.2146 22.8967Z" fill="#663494"/>
<path d="M87.9625 22.182C87.8421 22.2174 87.6721 22.3306 87.5942 22.4296L87.4526 22.6065L87.4313 22.4084C87.4101 22.2244 87.3888 22.2103 87.0418 22.1891L86.6665 22.1678V23.6535V25.1461H87.056H87.4455V24.2265C87.4455 23.3139 87.4455 23.3068 87.6509 23.0804C87.8279 22.8823 87.8987 22.8541 88.2174 22.8541H88.5786V22.5216C88.5786 22.0971 88.4653 22.0334 87.9625 22.182Z" fill="#663494"/>
<path d="M89.6125 22.2101C88.961 22.4435 88.6494 22.9034 88.6494 23.6532C88.6494 24.5446 89.1451 25.1247 89.9666 25.1954C90.3136 25.2237 90.4411 25.2025 90.7244 25.054L91.0572 24.8842V25.1884C91.0572 25.4289 91.0147 25.5492 90.8519 25.726C90.6536 25.9453 90.6182 25.9595 90.1508 25.9595C89.7258 25.9595 89.6196 25.9312 89.3859 25.7614L89.1097 25.5704L88.9893 25.726C88.7132 26.0868 88.6848 26.2 88.8335 26.3132C89.3009 26.6669 90.4694 26.7589 91.0218 26.4901C91.7158 26.1505 91.8362 25.7472 91.8362 23.7169V22.1747H91.4821C91.1351 22.1747 91.128 22.1747 91.128 22.394V22.6133L90.9156 22.4294C90.6961 22.2525 90.2924 22.104 90.0304 22.104C89.9525 22.111 89.7613 22.1535 89.6125 22.2101ZM90.7031 22.9175C91.1139 23.1297 91.2484 23.7098 90.9864 24.1343C90.8164 24.4243 90.6252 24.5234 90.2428 24.5234C89.5488 24.5234 89.1735 23.9008 89.4709 23.2642C89.5346 23.1297 89.6692 22.9741 89.7754 22.9175C90.0162 22.7831 90.4482 22.7831 90.7031 22.9175Z" fill="#663494"/>
<path d="M97.2542 22.2456C97.233 22.288 97.233 22.38 97.2542 22.4649C97.325 22.6842 97.6012 22.6134 97.6296 22.3658C97.6508 22.2031 97.6296 22.1748 97.4738 22.1748C97.3746 22.1748 97.2755 22.2102 97.2542 22.2456Z" fill="#663494"/>
<path d="M56.3 22.5427C56.1867 22.6559 56.1937 22.7762 56.3141 22.8752C56.4699 23.0025 56.6541 22.8894 56.6257 22.6771C56.6045 22.479 56.4345 22.4083 56.3 22.5427Z" fill="#663494"/>
<path d="M97.4596 23.7594C97.3888 23.9434 97.488 24.099 97.6579 24.0707C97.7783 24.0566 97.8208 24 97.8208 23.8726C97.8208 23.7453 97.7783 23.6887 97.6579 23.6745C97.5659 23.6604 97.4809 23.6958 97.4596 23.7594Z" fill="#663494"/>
<path d="M56.1584 24.0285C56.0239 24.1629 56.0593 24.3539 56.2222 24.4034C56.4134 24.4671 56.5196 24.361 56.4842 24.1487C56.4629 23.9577 56.293 23.8941 56.1584 24.0285Z" fill="#663494"/>
<path d="M97.5516 25.3298C97.4596 25.4217 97.5021 25.7188 97.6154 25.7613C97.7853 25.825 97.9765 25.5986 97.8845 25.4429C97.7995 25.3085 97.6295 25.2519 97.5516 25.3298Z" fill="#663494"/>
<path d="M56.1085 25.549C56.0448 25.6056 56.0093 25.7046 56.0306 25.7612C56.0518 25.8178 56.0731 25.8815 56.0731 25.8956C56.0731 25.9805 56.4201 25.9098 56.4555 25.8178C56.5546 25.5631 56.2926 25.358 56.1085 25.549Z" fill="#663494"/>
<path d="M97.4596 27.0138C97.3888 27.1977 97.488 27.3534 97.6579 27.3251C97.7783 27.3109 97.8208 27.2543 97.8208 27.127C97.8208 26.9996 97.7783 26.9431 97.6579 26.9289C97.5659 26.9148 97.4809 26.9501 97.4596 27.0138Z" fill="#663494"/>
<path d="M56.1087 27.134C56.0733 27.2472 56.0945 27.318 56.1795 27.3816C56.3565 27.5161 56.5123 27.4241 56.484 27.2048C56.4557 26.9572 56.1795 26.9076 56.1087 27.134Z" fill="#663494"/>
<path d="M97.3389 28.4497C97.2468 28.5417 97.2893 28.8105 97.4097 28.8529C97.5726 28.9166 97.7425 28.7327 97.6788 28.5487C97.6363 28.4072 97.438 28.3507 97.3389 28.4497Z" fill="#663494"/>
<path d="M56.3354 28.5133C56.2434 28.6123 56.2859 28.8811 56.4063 28.9236C56.5833 28.9943 56.7674 28.7821 56.6683 28.6265C56.5833 28.4921 56.4133 28.4355 56.3354 28.5133Z" fill="#663494"/>
<path d="M71.1576 29.8787V30.4376L70.938 30.3314C70.6264 30.1758 70.2511 30.2536 70.0103 30.5224C69.8403 30.6993 69.812 30.7983 69.812 31.1308C69.812 31.4846 69.8333 31.5482 70.0528 31.7675C70.2511 31.9656 70.3431 32.0081 70.6052 32.0081C70.7751 32.0081 70.9876 31.9585 71.0726 31.8949C71.2142 31.7958 71.2284 31.7958 71.2284 31.8949C71.2284 31.9656 71.2921 32.0081 71.4054 32.0081H71.5825V30.6639V29.3198H71.37H71.1576V29.8787ZM70.9097 30.6356C70.9663 30.6639 71.0726 30.7771 71.1292 30.8903C71.3134 31.244 71.0867 31.6543 70.7114 31.6543C70.4069 31.6543 70.2369 31.4775 70.2369 31.145C70.2369 30.7276 70.5414 30.4941 70.9097 30.6356Z" fill="#663494"/>
<path d="M86.3267 30.6427L86.3479 31.9727L86.5462 31.9939L86.7374 32.0151V30.671V29.3198H86.525H86.3125L86.3267 30.6427Z" fill="#663494"/>
<path d="M63.5803 29.4542C63.2616 29.5178 63.0917 29.6169 62.865 29.8645C62.2843 30.487 62.4826 31.5128 63.2616 31.9231C63.5236 32.0575 64.3168 32.0717 64.6284 31.9443L64.855 31.8524V31.2227V30.5931H64.3522C63.8777 30.5931 63.8565 30.6002 63.8777 30.7488C63.8919 30.8832 63.9486 30.9185 64.1681 30.9327C64.4301 30.9539 64.4301 30.961 64.4301 31.2652C64.4301 31.5623 64.423 31.5765 64.1823 31.626C63.6794 31.7179 63.3183 31.5482 63.0917 31.1096C62.8934 30.7275 63.1129 30.105 63.5095 29.9069C63.7503 29.7867 64.0689 29.7937 64.3168 29.9211C64.5009 30.0201 64.5363 30.0201 64.6567 29.914C64.8267 29.7513 64.8196 29.6947 64.593 29.5815C64.331 29.4471 63.8919 29.3976 63.5803 29.4542Z" fill="#663494"/>
<path d="M77.3896 30.7348V32.0082H78.2395H79.0893V31.7959V31.5837H78.4519H77.8146V31.23V30.8763H78.3811C78.9406 30.8763 78.9476 30.8763 78.9476 30.6994C78.9476 30.5226 78.9406 30.5226 78.3811 30.5226H77.8146V30.2042V29.8859H78.4165H79.0185V29.6736V29.4614H78.2041H77.3896V30.7348Z" fill="#663494"/>
<path d="M87.4458 29.5676C87.3183 29.7162 87.4245 29.9567 87.6157 29.9567C87.8494 29.9567 87.9698 29.794 87.8707 29.61C87.7857 29.4403 87.5732 29.419 87.4458 29.5676Z" fill="#663494"/>
<path d="M88.5787 30.0625C88.5787 30.2605 88.5504 30.3101 88.437 30.3101C88.3308 30.3101 88.2954 30.3596 88.2954 30.4869C88.2954 30.6143 88.3308 30.6638 88.437 30.6638C88.5645 30.6638 88.5787 30.7133 88.5787 31.1944C88.5787 31.633 88.5999 31.7462 88.7274 31.8735C88.9186 32.0645 89.3931 32.0433 89.3931 31.8311C89.3931 31.7462 89.3294 31.6825 89.216 31.6542C89.0532 31.6188 89.039 31.5764 89.0178 31.1448C88.9965 30.6779 88.9965 30.6709 89.1948 30.6496C89.3364 30.6355 89.4002 30.586 89.4143 30.4657C89.4356 30.3313 89.4073 30.3101 89.2231 30.3101C89.0178 30.3101 89.0036 30.2888 89.0036 30.0625C89.0036 29.8361 88.9894 29.8149 88.7911 29.8149C88.5928 29.8149 88.5787 29.8361 88.5787 30.0625Z" fill="#663494"/>
<path d="M97.056 29.9284C96.964 30.0204 97.0065 30.2963 97.1198 30.3388C97.2756 30.4024 97.4455 30.2468 97.4172 30.0699C97.3959 29.9214 97.1552 29.8294 97.056 29.9284Z" fill="#663494"/>
<path d="M56.6182 29.9992C56.5261 30.0983 56.5686 30.3671 56.689 30.4096C56.866 30.4803 57.0502 30.2681 56.951 30.1124C56.866 29.978 56.6961 29.9214 56.6182 29.9992Z" fill="#663494"/>
<path d="M65.9456 30.3101C65.8677 30.3384 65.7119 30.4728 65.6056 30.6002C65.4286 30.8053 65.4074 30.8761 65.4357 31.2227C65.464 31.541 65.5065 31.6401 65.6977 31.8099C66.0022 32.0787 66.5829 32.0928 66.8804 31.8382C67.0787 31.6755 67.0787 31.6755 66.9299 31.5976C66.8166 31.534 66.7317 31.541 66.5759 31.6189C66.4696 31.6755 66.3138 31.7038 66.2359 31.6825C66.073 31.633 65.8464 31.4491 65.8464 31.3571C65.8464 31.3288 66.1368 31.3005 66.4838 31.3005H67.1212V31.0671C67.1212 30.4728 66.5192 30.0767 65.9456 30.3101ZM66.6113 30.678C66.8025 30.869 66.7033 30.9468 66.2713 30.9468C66.0376 30.9468 65.8464 30.9256 65.8464 30.8973C65.8464 30.6568 66.4201 30.487 66.6113 30.678Z" fill="#663494"/>
<path d="M68.2677 30.3528C68.1827 30.4094 68.1119 30.4235 68.1119 30.3881C68.1119 30.3457 68.0199 30.3103 67.8995 30.3103H67.687V31.1592V32.0082H67.8995H68.1119V31.421C68.1119 30.9329 68.1332 30.8055 68.2394 30.7136C68.4023 30.565 68.5652 30.5579 68.7068 30.7065C68.7918 30.7914 68.8201 30.9612 68.8201 31.4139V32.0082H69.0326H69.245V31.329C69.245 30.6782 69.2379 30.6428 69.0396 30.4447C68.8059 30.2113 68.5156 30.1759 68.2677 30.3528Z" fill="#663494"/>
<path d="M72.5881 30.3813C72.0287 30.7209 72.0428 31.6688 72.6165 31.9235C73.098 32.1499 73.9762 31.9023 73.7 31.6193C73.6008 31.5203 73.5654 31.5203 73.3317 31.6193C73.0343 31.7396 72.7723 31.6759 72.6448 31.4495C72.574 31.308 72.5952 31.308 73.2255 31.2868L73.8841 31.2656L73.8699 31.0534C73.8133 30.3459 73.1901 30.0205 72.5881 30.3813ZM73.4096 30.7845L73.5088 30.9472H73.0414C72.5527 30.9472 72.5386 30.9331 72.7369 30.6784C72.8502 30.5299 73.2822 30.6006 73.4096 30.7845Z" fill="#663494"/>
<path d="M75.0243 30.3878C74.8756 30.5081 74.8402 30.5152 74.8402 30.4232C74.8402 30.3454 74.7765 30.31 74.6277 30.31H74.4082L74.4294 31.1377L74.4507 31.9725L74.6348 31.9937C74.826 32.0149 74.826 32.0149 74.8473 31.449C74.8756 30.8335 74.9535 30.685 75.2651 30.6425C75.3926 30.6213 75.4492 30.5647 75.4634 30.4303C75.4917 30.1898 75.3005 30.1685 75.0243 30.3878Z" fill="#663494"/>
<path d="M79.9952 30.3529C79.7332 30.4944 79.5845 30.7986 79.5845 31.2018C79.5845 31.4777 79.6199 31.5626 79.8253 31.7678C80.0235 31.9658 80.1156 32.0083 80.3776 32.0083C80.5476 32.0083 80.7601 31.9588 80.845 31.8951L81.0008 31.789V32.3266V32.8643L81.1991 32.8431L81.3903 32.8218L81.4116 31.5626L81.4257 30.3104H81.2133C81.0646 30.3104 81.0008 30.3458 81.0008 30.4236C81.0008 30.5156 80.9654 30.5085 80.8167 30.3883C80.5972 30.2185 80.2643 30.2043 79.9952 30.3529ZM80.7884 30.7349C81.1425 31.0886 80.9725 31.598 80.4839 31.6404C80.1864 31.6687 80.0094 31.4706 80.0094 31.1098C80.0094 30.6642 80.4839 30.4307 80.7884 30.7349Z" fill="#663494"/>
<path d="M84.493 30.3456C84.2381 30.4518 84.2027 30.5296 84.3585 30.6569C84.4364 30.7206 84.5001 30.7206 84.6063 30.6711C84.8117 30.5579 85.0808 30.5791 85.2083 30.7064C85.3712 30.8691 85.3004 30.9257 84.8896 30.9611C84.2239 31.0248 83.9194 31.4634 84.2877 31.8313C84.4859 32.0293 84.8613 32.0718 85.1304 31.9303C85.2437 31.8666 85.2862 31.8666 85.3074 31.9303C85.3216 31.9727 85.4137 32.0081 85.5057 32.0081C85.6757 32.0081 85.6757 32.001 85.6757 31.329C85.6757 30.6781 85.6686 30.6428 85.4703 30.4447C85.2295 30.2112 84.8825 30.1759 84.493 30.3456ZM85.3216 31.2653C85.3216 31.4068 85.1233 31.6685 84.9888 31.6968C84.6559 31.7817 84.401 31.5058 84.6488 31.329C84.7692 31.237 85.3216 31.1875 85.3216 31.2653Z" fill="#663494"/>
<path d="M82.0635 31.0038C82.0635 31.6405 82.0776 31.7112 82.2264 31.8527C82.4247 32.0367 82.8071 32.0579 83.0408 31.8952C83.1824 31.7961 83.1966 31.7961 83.1966 31.9022C83.1966 31.9871 83.2461 32.0084 83.3949 31.9942L83.5861 31.973L83.6073 31.1382L83.6286 30.3105H83.409H83.1966V30.7845C83.1966 31.4212 83.0903 31.6193 82.7717 31.6193H82.5238L82.5026 30.9614L82.4813 30.3105H82.2759H82.0635V31.0038Z" fill="#663494"/>
<path d="M87.4458 31.159V32.008H87.6582H87.8707V31.159V30.3101H87.6582H87.4458V31.159Z" fill="#663494"/>
<path d="M89.6411 30.3317C89.6411 30.353 89.7969 30.742 89.9952 31.1948C90.3351 31.9871 90.3422 32.0296 90.2431 32.2276C90.1368 32.4257 90.066 32.4611 89.8748 32.4399C89.8182 32.4328 89.7827 32.5106 89.7827 32.6521C89.7827 32.8714 89.7898 32.8714 90.0448 32.836C90.1864 32.8077 90.3635 32.737 90.4272 32.6662C90.498 32.5955 90.7459 32.0437 90.9796 31.4424C91.3761 30.4166 91.3903 30.3459 91.2628 30.3247C91.0079 30.2822 90.9512 30.353 90.7742 30.9047C90.6821 31.2019 90.5901 31.4424 90.5617 31.4424C90.5334 31.4424 90.4201 31.1948 90.3068 30.8906C90.1156 30.3742 90.0873 30.3459 89.8677 30.3247C89.7473 30.3105 89.6411 30.3176 89.6411 30.3317Z" fill="#663494"/>
<path d="M75.6899 31.1237C75.6899 31.2935 75.7112 31.3006 76.1148 31.3006C76.5185 31.3006 76.5398 31.2935 76.5398 31.1237C76.5398 30.9539 76.5185 30.9468 76.1148 30.9468C75.7112 30.9468 75.6899 30.9539 75.6899 31.1237Z" fill="#663494"/>
<path d="M96.6237 31.4776C96.567 31.6332 96.652 31.7959 96.7937 31.7959C96.9565 31.7959 97.0911 31.6262 97.0344 31.4847C96.9778 31.3432 96.6804 31.3361 96.6237 31.4776Z" fill="#663494"/>
<path d="M56.9513 31.5411C56.8805 31.7251 56.9797 31.8807 57.1496 31.8524C57.27 31.8383 57.3125 31.7817 57.3125 31.6543C57.3125 31.527 57.27 31.4704 57.1496 31.4562C57.0576 31.4421 56.9726 31.4775 56.9513 31.5411Z" fill="#663494"/>
<path d="M96.1703 32.8712C96.057 32.9844 96.0641 33.0339 96.1916 33.1683C96.312 33.2886 96.4748 33.2532 96.5386 33.0975C96.6377 32.8499 96.3615 32.6802 96.1703 32.8712Z" fill="#663494"/>
<path d="M57.4472 32.956C57.3764 33.1399 57.4755 33.2814 57.6667 33.2814C57.8296 33.2814 57.8509 33.2531 57.8296 33.0833C57.8084 32.864 57.518 32.765 57.4472 32.956Z" fill="#663494"/>
<path d="M76.8936 33.7061V34.2791L76.6811 34.1659C76.3978 34.0173 76.1783 34.0315 75.895 34.2225C75.2931 34.6257 75.4347 35.6303 76.1146 35.8354C76.3483 35.9062 76.4262 35.8991 76.674 35.7788C76.9006 35.6657 76.9644 35.6586 76.9644 35.7293C76.9644 35.7859 77.0352 35.8284 77.1414 35.8284H77.3185V34.4842V33.1401H77.106H76.8936V33.7061ZM76.7307 34.5691C76.9644 34.7884 76.9573 35.2058 76.7094 35.3968C76.6032 35.4817 76.4828 35.5454 76.4332 35.5454C76.3837 35.5454 76.2633 35.4817 76.1571 35.3968C76.0154 35.2836 75.9729 35.1917 75.9729 34.9724C75.9729 34.4772 76.3908 34.2508 76.7307 34.5691Z" fill="#663494"/>
<path d="M72.2905 34.59V35.8282H72.503H72.7154V34.59V33.3521H72.503H72.2905V34.59Z" fill="#663494"/>
<path d="M74.1315 34.1091C74.0749 34.1303 73.9686 34.194 73.9049 34.2577C73.7916 34.3567 73.7774 34.3496 73.7774 34.2506C73.7774 34.1728 73.7208 34.1303 73.6004 34.1303H73.4233V34.9792V35.8282H73.6358H73.8412L73.8624 35.2127C73.8837 34.6255 73.8907 34.5901 74.0749 34.4911C74.2448 34.3921 74.2732 34.3921 74.4077 34.5123C74.5352 34.6255 74.5564 34.7316 74.5564 35.241V35.8282H74.776H74.9955L74.9672 35.1136C74.9459 34.4345 74.9388 34.3921 74.7476 34.2294C74.5564 34.0666 74.3581 34.0242 74.1315 34.1091Z" fill="#663494"/>
<path d="M78.3809 34.1799C77.9064 34.4275 77.7577 35.0995 78.0835 35.5381C78.3526 35.8989 79.0324 35.9767 79.3936 35.6796C79.5353 35.5664 79.5423 35.5452 79.4361 35.4391C79.3299 35.333 79.3016 35.333 79.0679 35.4462C78.7704 35.5877 78.5155 35.5169 78.3809 35.2622C78.3101 35.1278 78.3243 35.1207 78.9475 35.1207H79.5848V34.8378C79.5848 34.2435 78.9404 33.8898 78.3809 34.1799ZM79.0749 34.4982C79.1245 34.5477 79.1599 34.6397 79.1599 34.7104C79.1599 34.8165 79.0962 34.8378 78.735 34.8378C78.2818 34.8378 78.2251 34.7812 78.4517 34.5548C78.6075 34.3992 78.9404 34.3638 79.0749 34.4982Z" fill="#663494"/>
<path d="M80.0098 34.1729C80.0098 34.1941 80.1373 34.378 80.2931 34.569L80.5763 34.9227L80.2152 35.3755L79.854 35.8283H80.1302C80.3639 35.8212 80.4276 35.7858 80.6047 35.5311L80.8101 35.234L80.9729 35.425C81.065 35.5311 81.1641 35.6655 81.1996 35.7292C81.242 35.807 81.3412 35.8283 81.5182 35.8141L81.7803 35.7929L81.4616 35.4038C81.2916 35.1916 81.15 34.9793 81.1429 34.9369C81.1429 34.8944 81.2562 34.7105 81.3908 34.5336C81.5253 34.3568 81.6386 34.1941 81.6386 34.1729C81.6386 34.1516 81.5253 34.1304 81.3908 34.1304C81.2562 34.1304 81.1429 34.1516 81.1429 34.1799C81.1429 34.2153 81.065 34.3285 80.98 34.4417L80.8101 34.6468L80.6543 34.3922C80.5197 34.1729 80.456 34.1304 80.2506 34.1304C80.116 34.1304 80.0098 34.1516 80.0098 34.1729Z" fill="#663494"/>
<path d="M58.0843 34.3004C57.9427 34.4065 57.9852 34.6046 58.1693 34.6753C58.3109 34.7319 58.5021 34.5409 58.4455 34.3994C58.3817 34.2367 58.233 34.1943 58.0843 34.3004Z" fill="#663494"/>
<path d="M95.547 34.3074C95.4762 34.4842 95.5754 34.6399 95.7453 34.6116C95.8657 34.5974 95.9153 34.5337 95.9295 34.3923C95.9507 34.2295 95.9295 34.2012 95.7666 34.2012C95.6674 34.2012 95.5683 34.2508 95.547 34.3074Z" fill="#663494"/>
<path d="M94.9171 35.5947C94.8533 35.6513 94.8179 35.7503 94.8392 35.8069C94.8604 35.8635 94.8817 35.9272 94.8817 35.9413C94.8817 36.0121 95.1579 35.9626 95.2287 35.8706C95.4057 35.6584 95.1154 35.3966 94.9171 35.5947Z" fill="#663494"/>
<path d="M58.7714 35.6445C58.6368 35.8072 58.743 36.0407 58.9484 36.0407C59.1467 36.0407 59.2458 35.8638 59.1396 35.694C59.0405 35.5384 58.8776 35.5172 58.7714 35.6445Z" fill="#663494"/>
<path d="M94.1235 36.8682C93.996 36.9177 94.0102 37.137 94.1376 37.2431C94.2793 37.3634 94.4705 37.2077 94.4422 37.0026C94.4209 36.854 94.2864 36.7975 94.1235 36.8682Z" fill="#663494"/>
<path d="M59.5222 36.9884C59.423 37.236 59.6851 37.4624 59.8763 37.3067C59.9329 37.2572 59.9683 37.1511 59.9542 37.0733C59.9258 36.8893 59.5859 36.8257 59.5222 36.9884Z" fill="#663494"/>
<path d="M93.2243 38.1273C93.1393 38.2122 93.1322 38.2759 93.1818 38.382C93.2739 38.5447 93.4155 38.5589 93.543 38.4032C93.6067 38.3254 93.6138 38.2617 93.5642 38.1768C93.458 38.0141 93.3589 38 93.2243 38.1273Z" fill="#663494"/>
<path d="M60.4215 38.1912C60.3507 38.3751 60.4286 38.552 60.5773 38.5732C60.7897 38.6015 60.9172 38.4247 60.8181 38.2407C60.7331 38.0709 60.4781 38.0426 60.4215 38.1912Z" fill="#663494"/>
<path d="M61.4199 39.3374C61.2924 39.4647 61.3066 39.5708 61.4695 39.6699C61.6182 39.7689 61.8094 39.684 61.8094 39.5142C61.8094 39.302 61.5686 39.1959 61.4199 39.3374Z" fill="#663494"/>
<path d="M92.2189 39.3229C92.1481 39.5068 92.2472 39.6624 92.4172 39.6341C92.5376 39.62 92.5801 39.5634 92.5801 39.4361C92.5801 39.3087 92.5376 39.2521 92.4172 39.238C92.3251 39.2238 92.2402 39.2592 92.2189 39.3229Z" fill="#663494"/>
<path d="M91.2131 40.3702C91.0998 40.4834 91.1068 40.6036 91.2272 40.7027C91.4255 40.8654 91.7088 40.5824 91.5459 40.3843C91.4468 40.2641 91.3264 40.257 91.2131 40.3702Z" fill="#663494"/>
<path d="M62.4261 40.4552C62.3694 40.5967 62.4332 40.7594 62.5606 40.8089C62.7448 40.8797 62.8793 40.7735 62.8581 40.5755C62.8439 40.434 62.7943 40.3845 62.6527 40.3703C62.5323 40.3562 62.4473 40.3915 62.4261 40.4552Z" fill="#663494"/>
<path d="M90.1016 41.3748C89.9599 41.4809 89.9953 41.679 90.1724 41.7427C90.2999 41.7922 90.4911 41.6578 90.4911 41.5163C90.4911 41.3606 90.2432 41.2687 90.1016 41.3748Z" fill="#663494"/>
<path d="M63.5729 41.4597C63.4525 41.6082 63.5729 41.8063 63.7995 41.8063C63.927 41.8063 63.9766 41.7639 63.9907 41.6365C64.0332 41.3677 63.7499 41.2474 63.5729 41.4597Z" fill="#663494"/>
<path d="M88.8975 42.2942C88.7558 42.4003 88.7912 42.5984 88.9683 42.6621C89.0958 42.7116 89.287 42.5772 89.287 42.4357C89.287 42.28 89.0391 42.1881 88.8975 42.2942Z" fill="#663494"/>
<path d="M64.7978 42.351C64.6844 42.4642 64.6915 42.5845 64.819 42.6906C64.9677 42.8179 65.2085 42.7118 65.2085 42.5137C65.2085 42.2874 64.9606 42.1883 64.7978 42.351Z" fill="#663494"/>
<path d="M87.623 43.1572C87.4955 43.2916 87.5097 43.3907 87.6726 43.4968C87.7576 43.5463 87.8213 43.5393 87.8992 43.4756C88.0479 43.3553 88.0479 43.1431 87.8992 43.0865C87.7505 43.0299 87.7576 43.0299 87.623 43.1572Z" fill="#663494"/>
<path d="M66.0371 43.1642C65.9308 43.2633 65.9946 43.4755 66.1575 43.5533C66.377 43.6523 66.554 43.5816 66.554 43.4047C66.554 43.1996 66.1716 43.0227 66.0371 43.1642Z" fill="#663494"/>
<path d="M86.5253 43.8575C86.412 43.9919 86.4828 44.1759 86.6528 44.1759C86.8298 44.1759 86.9644 44.0132 86.9077 43.8646C86.8511 43.7231 86.6386 43.716 86.5253 43.8575Z" fill="#663494"/>
<path d="M67.5737 44.0697C67.5029 44.2466 67.6021 44.3881 67.7862 44.3881C67.9774 44.3881 68.0837 44.2041 67.9633 44.0627C67.857 43.9282 67.6233 43.9353 67.5737 44.0697Z" fill="#663494"/>
<path d="M85.1793 44.4944C85.0589 44.6429 85.1439 44.8127 85.3493 44.8127C85.5476 44.8127 85.6113 44.6925 85.5193 44.5085C85.4414 44.36 85.2997 44.3529 85.1793 44.4944Z" fill="#663494"/>
<path d="M68.9339 44.7139C68.8702 44.8696 69.0189 45.0393 69.2031 45.011C69.3093 44.9969 69.3518 44.9403 69.3518 44.813C69.3518 44.6715 69.3093 44.629 69.1676 44.6149C69.0402 44.6007 68.9623 44.6361 68.9339 44.7139Z" fill="#663494"/>
<path d="M83.7633 45.0602C83.6429 45.2088 83.7279 45.3785 83.9333 45.3785C84.1245 45.3785 84.2307 45.1946 84.1103 45.0531C84.0041 44.9258 83.8766 44.9258 83.7633 45.0602Z" fill="#663494"/>
<path d="M70.3857 45.1877C70.2086 45.407 70.5273 45.69 70.7256 45.4848C70.8106 45.3999 70.8177 45.3504 70.761 45.2514C70.6548 45.0958 70.4919 45.0675 70.3857 45.1877Z" fill="#663494"/>
<path d="M82.361 45.4635C82.1627 45.6616 82.3398 45.9304 82.5947 45.8314C82.7364 45.7748 82.7293 45.4777 82.5877 45.4211C82.446 45.3645 82.4602 45.3645 82.361 45.4635Z" fill="#663494"/>
<path d="M71.8447 45.5697C71.7456 45.6617 71.7951 45.8739 71.9297 45.9447C72.128 46.0437 72.3192 45.8527 72.22 45.6546C72.1492 45.5202 71.9368 45.4707 71.8447 45.5697Z" fill="#663494"/>
<path d="M80.8527 45.8454C80.7323 45.9869 80.8598 46.1991 81.0439 46.1708C81.2281 46.1354 81.2918 46.0152 81.2068 45.8595C81.1218 45.7039 80.9802 45.6968 80.8527 45.8454Z" fill="#663494"/>
<path d="M73.3314 45.9235C73.2323 46.0155 73.2889 46.2206 73.4235 46.2631C73.6147 46.3267 73.7068 46.256 73.7068 46.0438C73.7068 45.9164 73.6714 45.874 73.5439 45.874C73.4518 45.874 73.3527 45.8952 73.3314 45.9235Z" fill="#663494"/>
<path d="M74.8326 46.1286C74.7264 46.2559 74.8184 46.4611 75.0025 46.4964C75.1796 46.5318 75.2858 46.263 75.1513 46.1286C75.0167 45.9871 74.953 45.9871 74.8326 46.1286Z" fill="#663494"/>
<path d="M79.3298 46.1212C79.2589 46.2981 79.3581 46.4537 79.528 46.4254C79.6484 46.4113 79.698 46.3476 79.7122 46.2061C79.7334 46.0434 79.7122 46.0151 79.5493 46.0151C79.4501 46.0151 79.351 46.0646 79.3298 46.1212Z" fill="#663494"/>
<path d="M77.9062 46.1354C77.7787 46.185 77.7929 46.4892 77.9204 46.5387C78.1753 46.6377 78.3524 46.3689 78.1541 46.1708C78.062 46.0789 78.0408 46.0789 77.9062 46.1354Z" fill="#663494"/>
<path d="M76.2848 46.2631C76.214 46.4399 76.4406 46.6381 76.5964 46.5391C76.6602 46.4966 76.7168 46.3976 76.7168 46.3268C76.7168 46.15 76.3486 46.0933 76.2848 46.2631Z" fill="#663494"/>
</g>
</svg>
