<svg width="154" height="51" viewBox="0 0 154 51" fill="none" xmlns="http://www.w3.org/2000/svg">
<path d="M43 40.9258H47.7107V41.7771H43.979V45.3101H47.5404V46.1615H43.979V50.8297H43V40.9258Z" fill="#153F8F"/>
<path d="M51.2726 41.7771H48.3496V40.9258H55.1746V41.7771H52.2516V50.8296H51.2726V41.7771Z" fill="#153F8F"/>
<path d="M56.2532 49.5662C56.8349 49.9351 57.516 50.148 58.4383 50.148C59.6586 50.148 60.6659 49.5237 60.6659 48.119C60.6659 46.1751 56.1255 45.9338 56.1255 43.3373C56.1255 41.7482 57.516 40.7549 59.2612 40.7549C59.7437 40.7549 60.524 40.8258 61.2051 41.0812L61.049 41.9752C60.6092 41.7339 59.914 41.6063 59.2471 41.6063C58.2255 41.6063 57.1045 42.0319 57.1045 43.3089C57.1045 45.2953 61.645 45.3096 61.645 48.204C61.645 50.2048 59.9282 50.9993 58.3957 50.9993C57.4308 50.9993 56.6789 50.8007 56.1539 50.5737L56.2532 49.5662Z" fill="#153F8F"/>
<path d="M63.6177 40.9258H68.4703V41.7771H64.5967V45.3101H68.2717V46.1615H64.5967V49.9783H68.6406V50.8297H63.6177V40.9258Z" fill="#153F8F"/>
<path d="M74.5438 41.9048H74.5154L70.7127 47.6939H74.5438V41.9048ZM69.8188 47.5804L74.2741 40.9258H75.5228V47.6939H76.9842V48.5452H75.5228V50.8297H74.5438V48.5452H69.8188V47.5804Z" fill="#153F8F"/>
<path d="M85.3845 46.3175H83.0859V45.4662H86.3635V50.3897C85.3562 50.8296 84.3772 50.9998 83.2845 50.9998C80.1631 50.9998 78.29 48.9424 78.29 45.8776C78.29 42.8696 80.2197 40.7554 83.2845 40.7554C84.0366 40.7554 85.271 40.8831 85.9379 41.2237L85.8243 42.1317C85.0581 41.7061 84.15 41.6068 83.2845 41.6068C80.7164 41.6068 79.2691 43.4229 79.2691 45.8776C79.2691 48.3749 80.6739 50.1486 83.2845 50.1486C83.8946 50.1486 84.9162 50.0776 85.3845 49.7938V46.3175Z" fill="#153F8F"/>
<path d="M91.5713 50.234C93.1321 50.234 93.9692 48.8861 93.9692 47.2118C93.9692 45.5375 93.1321 44.1895 91.5713 44.1895C90.0105 44.1895 89.1733 45.5375 89.1733 47.2118C89.1733 48.8861 90.0105 50.234 91.5713 50.234ZM91.5713 43.4233C93.9124 43.4233 94.9482 45.2395 94.9482 47.2118C94.9482 49.184 93.9124 51.0002 91.5713 51.0002C89.2301 51.0002 88.1943 49.184 88.1943 47.2118C88.1943 45.2395 89.2301 43.4233 91.5713 43.4233Z" fill="#153F8F"/>
<path d="M99.4609 50.234C101.022 50.234 101.859 48.8861 101.859 47.2118C101.859 45.5375 101.022 44.1895 99.4609 44.1895C97.9001 44.1895 97.063 45.5375 97.063 47.2118C97.063 48.8861 97.9001 50.234 99.4609 50.234ZM99.4609 43.4233C101.802 43.4233 102.838 45.2395 102.838 47.2118C102.838 49.184 101.802 51.0002 99.4609 51.0002C97.1197 51.0002 96.084 49.184 96.084 47.2118C96.084 45.2395 97.1197 43.4233 99.4609 43.4233Z" fill="#153F8F"/>
<path d="M107.223 50.2337C108.812 50.2337 109.365 48.531 109.365 47.2115C109.365 45.8919 108.812 44.1892 107.223 44.1892C105.52 44.1892 105.08 45.8067 105.08 47.2115C105.08 48.6161 105.52 50.2337 107.223 50.2337ZM110.259 50.8297H109.365V49.6804H109.337C108.854 50.6025 108.117 50.9999 107.081 50.9999C105.094 50.9999 104.101 49.354 104.101 47.2115C104.101 45.0122 104.952 43.423 107.081 43.423C108.5 43.423 109.209 44.4588 109.337 44.8136H109.365V40.188H110.259V50.8297Z" fill="#153F8F"/>
<path d="M60.5828 10.4448C56.3622 19.4958 60.2781 30.2546 69.3291 34.4751C78.3801 38.6956 89.1388 34.7798 93.3593 25.7288C97.5798 16.6778 93.6639 5.9191 84.613 1.69854C82.1409 0.545737 79.5417 0 76.9829 0C70.173 0.000178832 63.6506 3.86599 60.5828 10.4448Z" fill="url(#paint0_radial_727_260)"/>
<path d="M72.9971 20.745L72.4206 19.5194L71.3765 18.7414L72.3682 16.6146L72.9871 16.1406L72.4825 15.2291L74.0156 14.1693L73.8077 13.3408L76.2089 12.5342L78.5204 13.1057L78.976 13.8251L80.5149 13.7507L81.9174 16.3586L81.2302 16.7875L81.8062 17.4009L80.4274 20.3576L79.5481 19.7072L79.5398 19.7172L79.5655 20.9308L76.9339 21.7914L76.3929 20.876L76.9525 20.5452L77.2281 21.0112L78.9052 20.4627L78.8848 19.4872L79.4423 18.8201L80.1745 19.3619L81.0309 17.5251L80.2144 16.6554L81.0561 16.1298L80.1367 14.4199L78.6292 14.4926L78.1109 13.6741L76.2365 13.2107L74.5846 13.7656L74.7559 14.4479L73.3363 15.4292L73.8274 16.316L72.8901 17.0338L72.1894 18.5364L72.9396 19.0954L73.3679 20.0058L74.3613 19.8032L74.4913 20.4402L72.9971 20.745Z" fill="#94C11F"/>
<path d="M73.6348 22.3683L75.495 23.2358L76.2242 20.0055L78.305 17.9536L77.8435 17.4546L76.2087 18.4445L75.8 17.725L75.058 18.0401L75.3589 19.7343L73.6348 22.3683Z" fill="#94C11F"/>
<path d="M88.2979 5.34226L88.6529 5.76693L88.4955 5.83488L88.4877 6.52482L89.1052 7.09332L89.6604 7.82939L90.2655 7.98772L90.035 7.6325L89.6422 7.52735L89.2368 6.99926L88.7938 6.59569L88.7836 6.09765L89.0166 5.98784L88.6584 5.56568L89.0132 5.46458L88.8267 5.20223L89.3201 5.29439L90.0872 5.76579L90.4597 6.14951L90.6166 6.21693C90.4366 6.00978 90.2519 5.80603 90.0618 5.60657L89.1856 5.07038L88.4744 4.93262L88.6896 5.24146L88.2979 5.34226Z" fill="#94C11F"/>
<path d="M92.2496 8.41175L91.97 8.17236L91.9454 8.40245L92.2892 8.938L91.7057 8.89055L91.4234 8.56835L91.272 8.63273L91.8385 9.28809L92.7663 9.35038L92.3129 8.65943L92.3131 8.6558L92.4957 8.81341C92.4153 8.67857 92.3335 8.54457 92.2496 8.41175Z" fill="#94C11F"/>
<path d="M90.4215 8.89131L91.6501 9.88204L90.9256 8.12383L91.225 7.52885L90.8954 7.21268L90.4798 7.34793L90.1247 6.94163L89.8931 6.93799L90.4609 7.80407L90.4215 8.89131Z" fill="#94C11F"/>
<path d="M59.9078 13.0507L60.3685 12.7915L60.388 12.4319L60.0807 12.6175L60.0483 12.1589L59.9445 11.9985C59.9035 12.1127 59.8638 12.2271 59.8252 12.3417L59.8724 12.4218L59.9078 13.0507Z" fill="#94C11F"/>
<path d="M62.151 8.49706L62.3119 8.79642L62.9876 8.34958L63.38 9.11898L62.9156 9.66978L63.3058 10.0496L62.7451 11.5099L62.4097 11.2443L62.1018 11.7794L62.0402 12.4608L61.2719 12.9771L61.2046 12.6851L60.9653 12.9402L61.0865 13.528L62.328 12.7469L62.3984 11.8551L62.4033 11.8469L62.8223 12.22L63.7622 9.77207L63.449 9.5015L63.8635 9.02265L63.2007 7.85791L62.4951 8.34881L62.3465 8.09963L61.7471 8.32681C61.6653 8.45473 61.585 8.58391 61.5062 8.7144L62.151 8.49706Z" fill="#94C11F"/>
<path d="M60.5335 10.6477L60.5212 10.5806C60.4815 10.6677 60.4416 10.7548 60.4033 10.8421L60.5335 10.6477Z" fill="#94C11F"/>
<path d="M59.9233 13.9822L60.419 14.546L60.9818 12.4001L61.9545 10.8671L61.799 10.6416L61.1083 11.4641L61.0265 11.109L60.7585 11.3782L60.709 12.3104L59.9233 13.9822Z" fill="#94C11F"/>
<path d="M78.7653 28.8816C78.5105 28.9472 78.1462 29.2947 78.3701 29.5229C78.5938 29.7511 78.7093 30.3002 78.6189 30.4644C78.5286 30.6287 79.0748 30.8146 79.1395 30.5283C79.2042 30.242 78.9623 29.9641 79.0119 29.7397C79.0616 29.5151 79.203 28.7693 78.7653 28.8816Z" fill="#F59C00"/>
<path d="M80.9646 27.9126C80.5663 27.9736 80.3033 28.4159 80.3908 28.7595C80.4783 29.1029 80.2682 29.3765 80.1741 29.6077C80.08 29.839 80.5916 30.1877 80.691 29.9451C80.7903 29.7024 80.6463 29.3326 80.8083 29.133C80.9702 28.9333 81.2028 28.6703 81.257 28.4066C81.3112 28.143 81.1419 27.8853 80.9646 27.9126Z" fill="#F59C00"/>
<path d="M82.6262 27.6246C82.2801 27.548 82.0069 28.1264 81.9832 28.3544C81.9593 28.5825 81.8985 29.2145 81.7178 29.3366C81.537 29.4587 81.3608 29.9545 81.62 30.0477C81.8792 30.1411 82.1594 29.7764 82.1296 29.6043C82.0997 29.4321 82.2896 28.8052 82.5059 28.6722C82.7224 28.5393 82.9753 27.7019 82.6262 27.6246Z" fill="#F59C00"/>
<path d="M83.8963 28.4127C83.6355 28.2782 83.2388 28.8491 83.1824 29.2356C83.126 29.6221 82.9392 29.7276 82.7283 29.7669C82.5173 29.806 82.4052 30.194 82.6087 30.2889C82.8121 30.3837 82.989 30.1223 83.0802 29.9859C83.1713 29.8496 83.5772 29.3922 83.77 29.3032C83.9628 29.2143 84.1735 28.5558 83.8963 28.4127Z" fill="#F59C00"/>
<path d="M84.3611 31.546C84.1173 31.3995 83.8843 31.6539 83.7095 31.7926C83.5348 31.9312 83.1526 31.8361 83.2507 32.1568C83.3489 32.4774 83.6185 32.3417 83.6878 32.2227C83.7571 32.1036 84.3492 32.1321 84.4456 31.9844C84.5419 31.8367 84.5653 31.6687 84.3611 31.546Z" fill="#F59C00"/>
<path d="M82.2758 30.8542C81.9538 30.63 81.7884 30.9699 81.315 30.628C81.127 30.4922 79.5381 31.2372 79.483 31.0602C79.428 30.8831 78.8058 30.9783 78.6613 31.4062C78.5167 31.8341 78.7273 33.0055 79.0858 33.0626C79.4445 33.1198 79.9934 32.9079 79.9376 32.648C79.8819 32.3881 79.9075 31.891 80.0309 31.7147C80.1544 31.5384 80.7954 31.3144 80.9477 31.5781C81.0998 31.8416 80.9175 32.1714 80.7489 32.254C80.5802 32.3367 80.1351 32.0303 80.0405 32.1215C79.946 32.2127 79.9957 32.954 80.3052 33.1607C80.6147 33.3675 81.3719 33.2054 81.5123 33.016C81.6527 32.8264 82.2332 32.893 82.4595 32.7027C82.6858 32.5124 82.7294 32.2713 82.4447 32.1592C82.1599 32.047 81.8201 32.0675 81.8739 31.8931C81.9278 31.7186 82.4329 31.2698 82.2758 30.8542Z" fill="#F59C00"/>
<path d="M81.3038 1.41652C81.1173 1.41461 80.8873 1.54605 81.0918 1.69859C81.2965 1.8512 81.4637 2.15771 81.4178 2.23151C81.3719 2.30537 81.8181 2.4817 81.8268 2.33977C81.8357 2.19783 81.61 2.01644 81.616 1.90497C81.6221 1.79349 81.624 1.41979 81.3038 1.41652Z" fill="#F59C00"/>
<path d="M82.5871 1.3296C82.284 1.36787 82.2091 1.55308 82.387 1.68672C82.565 1.82037 82.4802 1.93661 82.4763 2.03193C82.4723 2.12725 82.995 2.24814 82.9998 2.14811C83.0045 2.04808 82.7726 1.90591 82.8413 1.82079C82.91 1.73566 83.0163 1.62282 82.9779 1.516C82.9394 1.40918 82.7221 1.31255 82.5871 1.3296Z" fill="#F59C00"/>
<path d="M83.6383 1.57077C83.401 1.59056 83.3924 1.8116 83.4414 1.8879C83.4905 1.96432 83.6295 2.17528 83.5509 2.2377C83.4724 2.30017 83.5013 2.48216 83.6891 2.47888C83.8769 2.47566 83.9496 2.3224 83.8828 2.27096C83.816 2.2194 83.7588 1.99353 83.8566 1.92301C83.9545 1.85249 83.8778 1.5508 83.6383 1.57077Z" fill="#F59C00"/>
<path d="M84.8458 2.08453C84.6108 2.02987 84.463 2.25526 84.5246 2.40875C84.5863 2.56225 84.4725 2.60338 84.3225 2.61811C84.1724 2.63277 84.192 2.78663 84.3726 2.82525C84.5532 2.86388 84.6172 2.76064 84.6497 2.70675C84.6822 2.65292 84.8677 2.47278 84.9905 2.4382C85.1133 2.40369 85.0956 2.14265 84.8458 2.08453Z" fill="#F59C00"/>
<path d="M86.6738 4.50103C86.4387 4.37621 86.286 4.4726 86.1621 4.51641C86.0382 4.56022 85.6941 4.43814 85.8368 4.63152C85.9795 4.8249 86.1851 4.8001 86.2225 4.7477C86.2598 4.6953 86.7711 4.81941 86.8264 4.75634C86.8817 4.69322 86.8709 4.60559 86.6738 4.50103Z" fill="#F59C00"/>
<path d="M83.7079 2.92865C83.7079 2.92865 84.6997 2.7739 84.4201 3.73744C84.8004 3.98751 85.5306 4.3776 85.3869 4.70713C85.2431 5.03672 83.9158 5.01269 83.7383 4.84066C83.5607 4.66862 82.9261 4.33307 83.1144 4.04408C83.3733 3.83759 83.717 3.76987 83.7223 3.59384C83.7276 3.41787 82.9442 3.07791 82.8039 3.27248C82.7711 3.42788 83.2299 3.59223 83.1881 3.68183C83.1463 3.77142 82.805 4.07824 82.9255 4.22369C82.9299 4.38434 82.1343 4.36842 81.87 3.97839C81.6056 3.58842 81.4318 2.89812 81.6475 2.73324C81.8632 2.5683 83.567 2.27388 83.7079 2.92865Z" fill="#F59C00"/>
<path d="M66.9283 30.9281C66.8029 30.7532 66.1887 30.7385 66.4566 31.1351C66.7245 31.5317 66.9606 32.4958 67.2128 32.5098C67.465 32.524 67.2236 32.043 67.1326 31.7384C67.0418 31.4339 66.9283 30.9281 66.9283 30.9281Z" fill="#F59C00"/>
<path d="M67.8976 30.4873C67.6092 30.4884 67.6151 31.0376 67.7682 31.292C67.9213 31.5464 67.7033 32.0139 67.9024 32.1974C68.1015 32.3808 68.3416 32.3375 68.287 32.0662C68.2324 31.7949 68.1791 31.382 68.2527 31.1963C68.3263 31.0107 68.3383 30.4858 67.8976 30.4873Z" fill="#F59C00"/>
<path d="M69.0846 30.7434C68.7589 30.7568 68.7937 31.4228 68.912 31.7238C69.0304 32.0248 68.7319 32.7206 69.0456 32.6305C69.3592 32.5404 69.1275 31.9278 69.279 31.7138C69.4305 31.4999 69.4671 30.7277 69.0846 30.7434Z" fill="#F59C00"/>
<path d="M70.6184 31.7093C70.3129 31.592 70.01 32.1158 70.0738 32.3673C70.1377 32.6189 69.6577 32.7957 69.8333 33.0395C70.009 33.2834 70.2668 33.1189 70.3538 32.849C70.4409 32.5791 70.7093 32.6137 70.7461 32.4239C70.7829 32.234 70.8749 31.8077 70.6184 31.7093Z" fill="#F59C00"/>
<path d="M71.6551 34.7752C71.2803 34.691 71.1374 35.2195 71.5213 35.2562C71.9053 35.293 72.3763 35.4738 72.4393 35.2703C72.5024 35.0668 72.5035 34.7871 72.2043 34.8459C71.9052 34.9048 71.6551 34.7752 71.6551 34.7752Z" fill="#F59C00"/>
<path d="M69.8818 34.2918C69.6427 34.0968 70.0675 33.6857 69.8811 33.4306C69.6947 33.1754 69.5263 33.4592 69.0608 33.1257C68.5953 32.7922 67.5787 32.6416 67.3766 32.9365C67.1908 33.2074 67.4269 33.4352 67.4665 33.4704C67.902 33.7387 68.3519 33.9909 68.8164 34.2253C68.5965 34.0044 68.4154 33.6782 68.5651 33.6061C68.7153 33.5338 69.1772 33.9304 69.2072 34.1991C69.2266 34.3736 69.1324 34.3708 69.0638 34.3474C69.152 34.3902 69.2398 34.4336 69.3291 34.4752C69.8003 34.6949 70.2763 34.8913 70.7557 35.0674C70.8753 34.7508 70.1206 34.4866 69.8818 34.2918Z" fill="#F59C00"/>
<path d="M74.6558 7.90284L75.1721 7.70141L74.6452 6.75837L74.6046 6.43647C74.893 6.35862 75.0946 6.15791 75.0755 5.9398C75.053 5.68103 74.7298 5.4979 74.3538 5.53081C73.9779 5.56371 73.6915 5.80013 73.7142 6.0589C73.7223 6.15195 73.7703 6.23457 73.8446 6.30152L73.6467 6.3098L72.9304 5.58458L72.1748 4.17771L72.1646 3.9305C72.6105 3.85784 72.9393 3.61218 72.9163 3.34882C72.8912 3.06221 72.461 2.8658 71.9554 2.91003C71.4498 2.95426 71.0602 3.22239 71.0853 3.509C71.0927 3.59406 71.1392 3.66971 71.2095 3.73498L68.6325 4.77101L68.8189 5.28313L70.224 4.71373L67.5708 7.55853L68.1115 7.96734L69.7086 6.29329L69.1065 8.16793L69.876 8.30497L70.6918 5.93539L71.5799 4.86979L72.0151 5.90612L72.4985 5.9274L73.3414 6.74573L71.4912 8.88999L71.9043 9.17105L72.9926 8.1138L72.6646 9.43721L73.2715 9.48544L73.6491 7.90969L74.2355 7.16265L74.6558 7.90284Z" fill="#793282"/>
<path d="M66.727 26.078L65.8933 24.7708L65.8635 24.5286C65.9725 24.4056 66.0462 24.2225 66.0527 24.0131C66.0646 23.6327 65.8543 23.3174 65.5831 23.309C65.3119 23.3005 65.0825 23.6022 65.0706 23.9826L65.0708 23.9867L64.255 22.8406L63.5367 20.9457L63.3816 20.3008C63.6379 20.1638 63.8263 19.823 63.8388 19.4176C63.8555 18.8821 63.5596 18.4383 63.1778 18.4265C62.7961 18.4146 62.4731 18.8391 62.4564 19.3746C62.4525 19.5021 62.4667 19.624 62.4951 19.7365L61.4535 20.3101L61.3989 21.1817L62.1693 20.9253L61.9439 22.3607L61.2124 23.9293L61.7338 24.4057L62.3592 23.0645L62.4747 24.9115L63.0969 25.4641L62.9601 22.5575L63.2024 21.6938L63.6369 22.9504L64.8851 24.4319L64.9612 25.4879L64.2646 26.3876L64.6574 26.702L65.1705 26.0082L65.2267 27.2007L65.6938 27.4185L65.7362 25.2953L66.3487 26.2953L66.727 26.078Z" fill="#793282"/>
<path d="M93.4233 16.2021L94.1288 15.9188L94.1077 16.7351L93.103 19.192L93.4951 19.6955L94.1763 18.2346L94.0219 19.9412L94.3788 20.0202L94.7426 16.8951L95.0562 18.1161C95.0575 16.6838 94.8883 15.264 94.5584 13.8863C94.5365 13.8796 94.5142 13.8762 94.4915 13.8771C94.3025 13.8849 94.1606 14.1639 94.1744 14.5003C94.1803 14.6451 94.2153 14.7751 94.2669 14.8777L93.2527 15.5495L93.4233 16.2021Z" fill="#793282"/>
<path d="M82.8743 34.2744C80.5325 33.9941 78.0727 33.4437 75.5774 32.6166C76.9381 30.6972 78.3054 28.495 79.6253 26.0977C82.2764 27.1362 84.8392 27.9836 87.2078 28.6056C85.8803 30.7242 84.4165 32.6276 82.8743 34.2744ZM75.3367 32.5349C73.884 32.0434 72.4202 31.4594 70.9615 30.7792C69.4506 30.0747 68.0148 29.3001 66.6635 28.4708C67.2587 26.1869 68.0698 23.7121 69.0635 21.1464C70.7669 22.0851 72.5653 22.9992 74.4296 23.8686C76.1002 24.6476 77.7638 25.3617 79.3969 26.007C78.0725 28.4105 76.7008 30.6165 75.3367 32.5349ZM60.4893 23.7692C60.7658 21.5138 61.2916 19.1531 62.0737 16.759C64.0484 18.1929 66.3425 19.6358 68.8484 21.0265C67.8563 23.585 67.0451 26.0543 66.4468 28.3365C64.206 26.9422 62.2042 25.397 60.4893 23.7692ZM63.9537 12.0047C64.6516 10.5081 65.419 9.08573 66.2406 7.74598C68.6163 8.33488 71.2088 9.16597 73.9006 10.1971C72.9667 11.8939 72.0565 13.6854 71.1903 15.5431C70.3655 17.3119 69.611 19.0733 68.9369 20.7969C66.4241 19.401 64.1274 17.9531 62.1541 16.5154C62.6537 15.0178 63.2525 13.5084 63.9537 12.0047ZM70.7214 1.80769C73.0884 2.07642 75.5785 2.62203 78.1067 3.45229C76.7349 5.36669 75.3543 7.57508 74.0202 9.98192C71.3364 8.95262 68.7491 8.12016 66.3753 7.52769C67.7047 5.39011 69.1732 3.46982 70.7214 1.80769ZM78.3484 3.53265C79.8364 4.03147 81.3364 4.62781 82.831 5.32478C84.2737 5.99749 85.6473 6.73439 86.9447 7.52143C86.3657 9.79844 85.5641 12.2751 84.5802 14.8449C83.0414 14.0119 81.4309 13.1997 79.7666 12.4236C77.9085 11.5572 76.0584 10.7694 74.2502 10.0697C75.5887 7.6574 76.9735 5.44531 78.3484 3.53265ZM82.1197 20.6396C81.2864 22.4267 80.4126 24.1537 79.5162 25.7921C77.8782 25.1456 76.2091 24.4294 74.5327 23.6476C72.6622 22.7755 70.8589 21.8582 69.1516 20.9165C69.8269 19.1882 70.5836 17.4209 71.4113 15.6461C72.2804 13.7823 73.1938 11.9856 74.1307 10.285C75.9437 10.9857 77.7993 11.7753 79.6636 12.6445C81.3337 13.4234 82.9495 14.2384 84.4923 15.0744C83.7884 16.8967 82.9946 18.7634 82.1197 20.6396ZM93.172 12.2097C92.9001 14.4486 92.3818 16.7919 91.6113 19.169C89.6071 17.7505 87.3038 16.3283 84.7965 14.9616C85.7788 12.3991 86.5798 9.92857 87.1621 7.65323C89.4198 9.04168 91.4395 10.5834 93.172 12.2097ZM89.7028 24.0117C88.9844 25.5523 88.1928 27.0152 87.3437 28.3892C84.9727 27.7703 82.4038 26.9234 79.7446 25.8828C80.6386 24.2476 81.5097 22.5247 82.3407 20.7426C83.2132 18.8716 84.0055 17.0095 84.7087 15.191C87.2226 16.5626 89.5294 17.9898 91.5326 19.4119C91.0272 20.9387 90.4179 22.4782 89.7028 24.0117ZM84.6928 34.4373C84.1914 34.4067 83.6839 34.3641 83.1698 34.3074C84.6954 32.663 86.1422 30.7711 87.4544 28.6699C88.5014 28.9394 89.5113 29.1666 90.4696 29.3427C90.6652 29.3786 90.8567 29.4115 91.0463 29.443C91.1047 29.3704 91.1635 29.2982 91.221 29.2246C90.9894 29.1872 90.7541 29.1471 90.5136 29.1029C89.5831 28.932 88.604 28.7129 87.5891 28.4532C88.4289 27.0896 89.2124 25.6404 89.9238 24.1147C90.6319 22.5962 91.236 21.0717 91.7393 19.5588C92.5898 20.1689 93.3864 20.7776 94.1148 21.38C94.3034 21.5359 94.4852 21.6904 94.6628 21.8438C94.6822 21.7524 94.6997 21.6609 94.7178 21.5695C94.5717 21.4445 94.4235 21.319 94.2702 21.1923C93.52 20.5718 92.6976 19.9448 91.8191 19.3166C92.5861 16.9624 93.1066 14.6395 93.3873 12.4148C93.759 12.7702 94.1158 13.1297 94.4597 13.492C94.4171 13.3305 94.3719 13.1697 94.3249 13.0094C94.0334 12.7104 93.7341 12.4134 93.4238 12.1196C93.4735 11.6951 93.5126 11.2752 93.5447 10.8586C93.478 10.7056 93.4095 10.5534 93.3386 10.4021C93.307 10.9007 93.2635 11.4053 93.2062 11.916C91.4746 10.3055 89.4654 8.78053 87.2242 7.40686C87.4422 6.53684 87.6292 5.69484 87.7803 4.88962C87.8549 4.49196 87.9197 4.10771 87.9758 3.73562C87.9021 3.67917 87.8287 3.62236 87.7539 3.56692C87.6941 3.97734 87.6235 4.40296 87.5406 4.84461C87.3948 5.62235 87.2144 6.43527 87.0057 7.27405C85.72 6.4969 84.3606 5.769 82.9341 5.1038C81.4554 4.41429 79.9714 3.82331 78.4984 3.32693C79.0104 2.62233 79.5208 1.95672 80.0264 1.34064C80.2932 1.01553 80.5564 0.706799 80.8153 0.414766C80.724 0.394797 80.6326 0.375961 80.541 0.357422C80.3099 0.620961 80.0757 0.896241 79.8379 1.18601C79.3145 1.82379 78.7861 2.51318 78.2559 3.24508C75.7503 2.41798 73.2795 1.86867 70.9254 1.59005C71.188 1.31328 71.4533 1.04623 71.7199 0.784473C71.5533 0.835142 71.3872 0.887477 71.2221 0.942795C71.023 1.14387 70.8248 1.34792 70.628 1.55727C70.3564 1.52764 70.0868 1.5026 69.8185 1.48019C69.6656 1.546 69.5137 1.6139 69.3626 1.68388C69.7141 1.70844 70.0679 1.73735 70.4257 1.77461C68.8931 3.43548 67.4407 5.34582 66.1258 7.46778C65.2985 7.26588 64.4957 7.09086 63.7267 6.94965C63.424 6.89403 63.1289 6.84402 62.8407 6.79901C62.7824 6.87215 62.7244 6.94547 62.6671 7.01969C62.9964 7.0694 63.3343 7.12538 63.6826 7.18934C64.4236 7.32543 65.1969 7.49359 65.9925 7.68637C65.1811 9.01414 64.4229 10.4217 63.7328 11.9017C63.0393 13.3888 62.446 14.8816 61.949 16.3636C61.2891 15.8775 60.6626 15.3927 60.0814 14.9121C59.8085 14.6864 59.5484 14.4636 59.2987 14.2432C59.2786 14.3348 59.2597 14.4265 59.2412 14.5181C59.461 14.7099 59.6889 14.9038 59.9261 15.1C60.5292 15.5988 61.1802 16.1019 61.8675 16.6065C61.0881 18.9793 60.5594 21.3213 60.274 23.5639C60.0132 23.3119 59.7617 23.0574 59.5149 22.8019C59.5585 22.9626 59.6041 23.1227 59.652 23.2822C59.8436 23.4753 60.038 23.6677 60.2375 23.8587C60.2034 24.147 60.1747 24.4331 60.1487 24.7179C60.2125 24.88 60.2794 25.0411 60.3479 25.2014C60.3769 24.8258 60.4108 24.4478 60.4542 24.0656C62.1676 25.6766 64.159 27.2041 66.382 28.5827C66.1313 29.5584 65.9188 30.5 65.7506 31.3962C65.7016 31.6576 65.657 31.9128 65.616 32.1632C65.6888 32.2218 65.7612 32.2807 65.835 32.3383C65.8814 32.0465 65.9327 31.7479 65.9903 31.4413C66.1534 30.5721 66.3578 29.6605 66.599 28.7158C67.9398 29.536 69.3623 30.3026 70.8584 31.0002C72.3024 31.6735 73.7515 32.2528 75.1905 32.7419C74.6254 33.5284 74.0621 34.2658 73.5045 34.9452C73.2889 35.208 73.0759 35.4587 72.8653 35.6999C72.9556 35.721 73.046 35.7414 73.1363 35.761C73.3198 35.5488 73.5054 35.3285 73.693 35.0998C74.2679 34.3994 74.8488 33.6368 75.4313 32.8235C77.9036 33.647 80.3427 34.1996 82.6709 34.4892C82.314 34.8635 81.9527 35.2229 81.5885 35.5693C81.7503 35.5265 81.9113 35.4811 82.0718 35.4338C82.3726 35.1398 82.6715 34.838 82.9671 34.5251C83.3945 34.5744 83.8171 34.6131 84.2363 34.6445C84.3893 34.5774 84.5416 34.5086 84.6928 34.4373Z" fill="#D8E7BB"/>
<path d="M82.9303 34.4594C80.5793 34.1834 78.1108 33.6355 75.6075 32.8087C77.0346 30.8203 78.4717 28.5141 79.8561 25.9958C82.5292 27.0344 85.1066 27.8785 87.4749 28.4889C86.0896 30.7305 84.5523 32.7366 82.9303 34.4594ZM75.3666 32.7271C73.9052 32.2345 72.4329 31.648 70.9661 30.9639C69.4992 30.2799 68.1035 29.5291 66.7867 28.7263C67.3891 26.354 68.2324 23.765 69.2731 21.079C70.8977 21.9647 72.6074 22.8284 74.3754 23.6528C76.1434 24.4773 77.9038 25.2318 79.6266 25.9069C78.238 28.4306 76.7966 30.7409 75.3666 32.7271ZM60.598 24.0457C60.8753 21.6958 61.4238 19.2287 62.2505 16.7266C64.2404 18.1483 66.5437 19.5802 69.0575 20.9604C68.0183 23.6396 67.1753 26.223 66.5695 28.5941C64.327 27.208 62.3207 25.6693 60.598 24.0457ZM64.0963 12.0832C64.7807 10.6156 65.5318 9.21928 66.3348 7.90176C68.7039 8.50884 71.2869 9.3531 73.9667 10.3931C73.0815 12.0146 72.2188 13.7215 71.3956 15.4869C70.5724 17.2523 69.8194 19.0104 69.1462 20.7308C66.6269 19.3465 64.3199 17.9105 62.332 16.4858C62.8251 15.0238 63.412 13.5509 64.0963 12.0832ZM71.0114 1.714C73.3625 1.99011 75.8309 2.53794 78.3342 3.36479C76.9071 5.35311 75.4699 7.65939 74.0856 10.1777C71.4125 9.1391 68.835 8.29507 66.4668 7.68454C67.8521 5.44294 69.3895 3.43686 71.0114 1.714ZM78.575 3.44628C80.0364 3.93896 81.5086 4.52547 82.9756 5.20945C84.4425 5.89348 85.8381 6.64434 87.1549 7.44711C86.5526 9.81938 85.7093 12.4084 84.6685 15.0945C83.0439 14.2087 81.3344 13.3451 79.5663 12.5207C77.7983 11.6963 76.0378 10.9417 74.315 10.2666C75.7037 7.74272 77.1449 5.43257 78.575 3.44628ZM82.3252 20.5834C81.4993 22.3546 80.6338 24.0667 79.7457 25.692C78.0183 25.0158 76.2522 24.259 74.4784 23.4319C72.7046 22.6047 70.9896 21.7383 69.3612 20.8496C70.0354 19.1247 70.7907 17.3611 71.6166 15.59C72.4425 13.8188 73.308 12.1067 74.1959 10.4815C75.9234 11.1577 77.6895 11.9145 79.4633 12.7417C81.2371 13.5688 82.952 14.4352 84.5805 15.3239C83.9063 17.0488 83.151 18.8123 82.3252 20.5834ZM93.3437 12.1278C93.0665 14.4778 92.518 16.9449 91.6912 19.447C89.7013 18.0252 87.398 16.5933 84.8841 15.2131C85.9234 12.5339 86.7663 9.95052 87.3722 7.57927C89.6146 8.96546 91.6211 10.5043 93.3437 12.1278ZM89.8455 24.0902C89.1611 25.5578 88.41 26.9542 87.607 28.2717C85.2377 27.6647 82.6548 26.8204 79.9749 25.7803C80.8601 24.1588 81.7228 22.4519 82.5461 20.6864C83.3693 18.9211 84.1223 17.163 84.7955 15.4427C87.3148 16.8271 89.6218 18.263 91.6098 19.6877C91.1166 21.1497 90.5298 22.6226 89.8455 24.0902ZM84.3578 34.5917C83.9836 34.5649 83.607 34.5329 83.226 34.4917C84.8312 32.7705 86.351 30.776 87.7208 28.552C88.6082 28.7761 89.4663 28.9678 90.2866 29.123C90.5912 29.1805 90.8879 29.2322 91.1776 29.2791C91.2348 29.2062 91.291 29.1323 91.3473 29.0584C91.0182 29.0069 90.6803 28.9491 90.3319 28.8833C89.5389 28.7334 88.7099 28.5483 87.8538 28.3335C88.6471 27.0275 89.3894 25.6451 90.0664 24.1932C90.7434 22.7415 91.3252 21.2843 91.8158 19.837C92.5306 20.3549 93.2053 20.871 93.8298 21.3821C94.1042 21.6066 94.3656 21.8283 94.6167 22.0473C94.6371 21.9567 94.6575 21.8661 94.6765 21.7755C94.4545 21.5836 94.2242 21.3897 93.9843 21.1934C93.3382 20.6645 92.6397 20.1305 91.8977 19.5947C92.7208 17.1159 93.2718 14.6696 93.5585 12.3336C93.835 12.5989 94.1016 12.867 94.3628 13.1364C94.3157 12.9713 94.2655 12.8072 94.2138 12.6436C94.0112 12.4403 93.8055 12.2376 93.5942 12.0368C93.627 11.7473 93.6545 11.4603 93.6793 11.1745C93.6137 11.016 93.5467 10.8583 93.4767 10.7017C93.4496 11.0754 93.4175 11.4516 93.3761 11.8321C91.6548 10.225 89.6594 8.70353 87.434 7.3326C87.65 6.46908 87.8357 5.63304 87.9857 4.83337C88.0476 4.50336 88.1024 4.18307 88.1516 3.87059C88.0787 3.81342 88.0047 3.75739 87.9309 3.70124C87.8773 4.0527 87.8162 4.41466 87.7461 4.78836C87.6012 5.56044 87.4222 6.36733 87.2156 7.19955C85.9105 6.40673 84.5292 5.66493 83.0786 4.98853C81.6279 4.31207 80.1719 3.73075 78.7257 3.24069C79.2304 2.54736 79.7334 1.89164 80.2317 1.28439C80.4729 0.990448 80.711 0.710992 80.9458 0.443996C80.8552 0.42355 80.7647 0.402864 80.6741 0.383789C80.4664 0.622351 80.2562 0.870214 80.0432 1.12976C79.5271 1.75871 79.006 2.43833 78.4833 3.15878C76.0028 2.33532 73.5547 1.78469 71.2172 1.49904C71.4821 1.2228 71.7496 0.95629 72.0185 0.695315C71.8537 0.742348 71.6897 0.792479 71.5262 0.844101C71.3231 1.04672 71.1209 1.25237 70.9202 1.46357C70.6304 1.43085 70.3431 1.40349 70.0569 1.37893C69.8984 1.4445 69.7404 1.51162 69.5837 1.58166C69.958 1.60855 70.3348 1.6405 70.7158 1.68175C69.1105 3.40295 67.5907 5.39746 66.2209 7.62147C65.3336 7.3974 64.4756 7.20569 63.6552 7.05064C63.3506 6.99306 63.0538 6.94126 62.764 6.8944C62.7068 6.96725 62.6505 7.04117 62.5943 7.11502C62.9235 7.16653 63.2613 7.22441 63.6099 7.29028C64.4027 7.44008 65.2318 7.62523 66.0879 7.83995C65.2946 9.14596 64.5524 10.5284 63.8754 11.9801C63.1984 13.432 62.6165 14.8892 62.126 16.3365C61.4111 15.8186 60.7364 15.3025 60.112 14.7915C59.8375 14.5669 59.5761 14.3452 59.325 14.1261C59.3046 14.2167 59.2841 14.3073 59.2651 14.3979C59.4872 14.5898 59.7176 14.7839 59.9576 14.9803C60.6037 15.509 61.3021 16.0431 62.0441 16.5788C61.2209 19.0577 60.6699 21.504 60.3833 23.84C60.1068 23.5746 59.8401 23.3066 59.579 23.0372C59.6261 23.2022 59.6762 23.3664 59.7279 23.53C59.9306 23.7334 60.1362 23.9359 60.3476 24.1368C60.3147 24.4263 60.2872 24.7133 60.2625 24.9991C60.3281 25.1575 60.3951 25.3153 60.4651 25.4719C60.4921 25.0982 60.5243 24.722 60.5657 24.3416C62.287 25.9486 64.2823 27.47 66.5076 28.8408C66.2916 29.7044 66.106 30.5404 65.956 31.3401C65.8941 31.6701 65.8393 31.9902 65.7901 32.3026C65.863 32.3598 65.9369 32.4159 66.0109 32.4721C66.0643 32.1207 66.1255 31.7588 66.1956 31.3851C66.3404 30.613 66.5194 29.8061 66.7262 28.9739C68.0311 29.7667 69.4124 30.5085 70.863 31.1849C72.3137 31.8613 73.7698 32.4427 75.2159 32.9328C74.7113 33.6261 74.2083 34.2818 73.7099 34.889C73.4687 35.183 73.2308 35.4624 72.996 35.7293C73.0865 35.7498 73.177 35.7704 73.2676 35.7895C73.4753 35.551 73.6854 35.3032 73.8984 35.0437C74.4146 34.4148 74.9356 33.7352 75.4583 33.0146C77.9389 33.8382 80.387 34.3887 82.7245 34.6743C82.4597 34.9506 82.1922 35.217 81.9233 35.4779C82.0883 35.4309 82.2523 35.3808 82.4158 35.3291C82.6187 35.1265 82.8209 34.921 83.0215 34.7098C83.3113 34.7426 83.5986 34.7699 83.8846 34.7944C84.0432 34.7289 84.2011 34.6618 84.3578 34.5917Z" fill="#0B331F"/>
<defs>
<radialGradient id="paint0_radial_727_260" cx="0" cy="0" r="1" gradientUnits="userSpaceOnUse" gradientTransform="translate(74.1139 10.2986) rotate(70.7784) scale(22.5679 22.5679)">
<stop stop-color="#D8E7BB"/>
<stop offset="0.7" stop-color="#006634"/>
<stop offset="1" stop-color="#004B24"/>
</radialGradient>
</defs>
</svg>
