<svg width="154" height="30" viewBox="0 0 154 30" fill="none" xmlns="http://www.w3.org/2000/svg">
<mask id="mask0_727_137" style="mask-type:luminance" maskUnits="userSpaceOnUse" x="0" y="0" width="154" height="30">
<path d="M154 0H0V29.2972H154V0Z" fill="white"/>
</mask>
<g mask="url(#mask0_727_137)">
<path d="M15.1295 13.7147L8.16929 22.3589L4.96808 18.4397L0.219238 24.295V27.9193L4.59842 22.6094L8.05511 27.0987C8.12905 27.0091 15.3661 18.19 15.3661 18.19L22.8274 29.0784H25.7098L22.1636 24.2039L25.3615 20.343L31.3467 29.0784H33.1752V7.00342L20.9446 21.4873L15.1295 13.7147Z" fill="#CCAE75"/>
<path d="M0.219238 0.219238V21.5277L4.96397 15.6773L8.16108 19.5924L15.1706 10.8833L21.0103 18.6912L33.1752 4.29114V0.219238H0.219238ZM6.61345 4.16954H4.27312V5.45184H6.61345V6.58634H4.27312V8.15034H6.61345V9.28474H2.93826V3.04414H6.61345V4.16954ZM13.0767 8.58084C12.5419 9.16074 11.851 9.45074 11.005 9.45074C10.0356 9.45074 9.23637 9.14184 8.60877 8.52334C7.98035 7.90554 7.66656 7.12024 7.66656 6.16814C7.66656 5.22514 7.982 4.44474 8.61288 3.82864C9.24375 3.21174 10.0414 2.90294 11.005 2.90294C11.5134 2.90294 11.9792 3.00964 12.4031 3.22324C12.8261 3.43604 13.2048 3.75394 13.5367 4.17784L12.6372 4.84314C12.4129 4.56384 12.1772 4.36344 11.9299 4.23944C11.6827 4.11614 11.3968 4.05454 11.0731 4.05454C10.4562 4.05454 9.96335 4.24594 9.5937 4.62964C9.22404 5.01324 9.03921 5.52664 9.03921 6.16814C9.03921 6.79904 9.22487 7.30834 9.59534 7.69694C9.96665 8.08464 10.4505 8.27854 11.0477 8.27854C11.4847 8.27854 11.8404 8.17584 12.1131 7.96964C12.3858 7.76344 12.5222 7.49404 12.5222 7.16134V7.09314H11.0222V5.99404H13.8653C13.8709 6.03014 13.8743 6.07044 13.876 6.11314C13.8781 6.15584 13.8785 6.22074 13.8785 6.30944C13.8785 7.24434 13.6106 8.00164 13.0767 8.58084ZM17.9193 9.29464L16.8965 8.05424L15.9042 9.29464H14.5776L16.8933 6.44914L19.2139 9.29464H17.9193ZM16.8933 5.90284L14.5751 3.07624H15.8697L16.8916 4.29524L17.8872 3.07624H19.2155L16.8933 5.90284Z" fill="#CCAE75"/>
<path d="M153.541 17.547H151.982V24.7273H153.541V17.547ZM150.357 24.0471C150.68 23.6586 150.847 23.1682 150.847 22.5784V17.5585H149.288V22.1438C149.288 22.8675 149.02 23.2355 148.497 23.2355H145.993C146.115 22.8897 146.182 22.5225 146.182 22.111V19.6844H144.612V22.1668C144.612 22.879 144.345 23.2355 143.821 23.2355H137.264V22.2219C137.264 20.7416 136.217 19.6729 134.792 19.6729C133.312 19.6729 132.265 20.6857 132.265 22.189C132.265 23.6693 133.334 24.7265 134.792 24.7265C135.315 24.7265 135.627 24.7043 135.75 24.66C135.627 25.0937 135.271 25.3163 134.67 25.3163H134.537V26.5633H134.703C136.217 26.5633 137.063 25.9513 137.242 24.7265H148.82C149.477 24.7265 149.989 24.5047 150.357 24.0471ZM135.705 23.2355H134.804C134.224 23.2355 133.846 22.7566 133.846 22.1217C133.846 21.5318 134.158 21.0751 134.748 21.0751C135.315 21.0751 135.705 21.4982 135.705 22.1553V23.2355ZM130.439 25.9176C130.962 25.4617 131.219 24.7265 131.219 23.703V19.6844H129.649V23.836C129.649 24.816 129.137 25.3056 128.112 25.3056V26.5633C129.181 26.5633 129.96 26.3522 130.439 25.9176ZM126.943 24.7265C126.977 24.3815 126.999 24.0365 126.999 23.703C126.999 21.1868 125.93 19.6622 123.937 19.6622C122.69 19.6622 121.388 20.4188 120.397 21.6986V20.2183H118.839V22.1668C118.839 22.9678 118.56 23.2355 118.048 23.2355H103.174C102.417 23.2355 102.038 22.8347 102.038 22.0995V18.5935C100.057 18.5935 99.0661 18.5935 99.0661 18.6042C97.5965 18.6042 96.7611 19.6729 96.7611 21.3314C96.7611 22.8675 97.6187 24.0258 98.9544 24.0258C99.7224 24.0258 100.257 23.7917 100.536 23.3579C100.891 24.2706 101.515 24.7265 102.405 24.7265H126.943ZM100.435 21.209C100.435 22.1217 100.035 22.7345 99.3774 22.7345C98.7539 22.7345 98.3087 22.0888 98.3087 21.3092C98.3087 20.441 98.7761 19.7403 99.4111 19.7403H100.435V21.209ZM125.373 23.0351L125.362 23.2355H120.798C121.655 21.766 122.679 21.0201 123.826 21.0201C124.806 21.0201 125.373 21.8884 125.373 23.0351ZM100.101 17.5585H101.482V16.2671H100.101V17.5585ZM98.008 17.5585H99.3889V16.2671H98.008V17.5585ZM92.0525 24.7265H93.6108V17.547H92.0525V24.7265ZM90.4268 24.0471C90.7497 23.6586 90.9164 23.1682 90.9164 22.5784V17.5585H89.3581V22.1438C89.3581 22.8675 89.0903 23.2355 88.567 23.2355H86.6966C86.6966 21.5992 85.7166 20.6307 84.0917 20.6307C82.4776 20.6307 81.5641 21.6321 81.5641 23.2355H79.393C79.2484 20.9535 78.1797 19.6622 76.3536 19.6622C75.1075 19.6622 73.8153 20.4073 72.8353 21.6542V20.2183H71.2779V22.1668C71.2779 22.9678 70.9986 23.2355 70.4868 23.2355H63.6178V19.6844H62.048V23.836C62.048 24.816 61.5362 25.3056 60.5118 25.3056V26.5633C62.2813 26.5633 63.2843 25.9513 63.5397 24.7265H82.0209C82.4883 25.3615 83.1898 25.6843 84.1361 25.6843C85.0602 25.6843 85.7618 25.3615 86.2185 24.7265H88.8907C89.547 24.7265 90.0588 24.5047 90.4268 24.0471ZM77.7789 23.0351L77.7681 23.2355H73.2033C74.0609 21.766 75.0844 21.0201 76.2312 21.0201C77.2112 21.0201 77.7789 21.8884 77.7789 23.0351ZM85.1489 23.2019C85.1489 23.9478 84.7711 24.4152 84.1361 24.4152C83.4789 24.4152 83.101 23.8804 83.101 23.1345C83.101 22.4116 83.4789 21.8769 84.0474 21.8769H84.159C84.8153 21.8769 85.1489 22.3221 85.1489 23.2019ZM59.0973 24.0471C59.4201 23.6586 59.5877 23.1682 59.5877 22.5784V19.6844H58.0293V22.1438C58.0293 22.8675 57.7616 23.2355 57.2383 23.2355H42.5309C41.7744 23.2355 41.3957 22.8347 41.3957 22.0995V18.5935C39.4143 18.5935 38.4237 18.5935 38.4237 18.6042C36.9541 18.6042 36.1187 19.6729 36.1187 21.3314C36.1187 22.8675 36.9763 24.0258 38.3119 24.0258C39.08 24.0258 39.6148 23.7917 39.8933 23.3579C40.2489 24.2706 40.8724 24.7265 41.7629 24.7265H57.5726C58.2183 24.7265 58.7301 24.5046 59.0973 24.0471ZM39.7922 21.209C39.7922 22.1217 39.3922 22.7345 38.735 22.7345C38.1115 22.7345 37.6663 22.0888 37.6663 21.3092C37.6663 20.441 38.1337 19.7403 38.7679 19.7403H39.7922V21.209ZM39.4587 17.5585H40.8396V16.2671H39.4587V17.5585ZM37.3656 17.5585H38.7457V16.2671H37.3656V17.5585ZM57.3829 25.2834H56.0028V26.5748H57.3829V25.2834ZM59.4874 25.2834H58.0959V26.5748H59.4874V25.2834ZM146.025 25.2834H144.645V26.5748H146.025V25.2834Z" fill="#211E1E"/>
<path d="M153.781 8.54324V8.36005C153.781 7.92955 153.72 7.54265 153.598 7.19935C153.476 6.85515 153.299 6.56435 153.068 6.32695C152.837 6.08955 152.553 5.90794 152.219 5.78224C151.886 5.65744 151.509 5.59414 151.092 5.59414C150.668 5.59414 150.287 5.65744 149.95 5.78224C149.613 5.90794 149.325 6.08624 149.088 6.31704C148.849 6.54874 148.666 6.82964 148.538 7.16074C148.41 7.49174 148.346 7.86225 148.346 8.27375C148.346 8.67215 148.413 9.03195 148.548 9.35235C148.683 9.67435 148.874 9.95035 149.121 10.1811C149.369 10.4128 149.666 10.5911 150.013 10.7159C150.359 10.8416 150.742 10.904 151.159 10.904C152.521 10.904 153.373 10.3389 153.713 9.20775H152.027C151.834 9.51665 151.549 9.67104 151.169 9.67104C150.462 9.67104 150.109 9.29484 150.109 8.54324H153.781ZM152.153 7.53114H150.157C150.202 7.27484 150.31 7.07525 150.48 6.93395C150.65 6.79265 150.87 6.72204 151.141 6.72204C151.398 6.72204 151.615 6.79594 151.796 6.94384C151.975 7.09174 152.094 7.28724 152.153 7.53114ZM147.304 11.1258C147.337 10.9073 147.353 10.6601 147.353 10.384V5.77734H145.609V6.29814C145.21 5.86114 144.718 5.64264 144.134 5.64264C143.774 5.64264 143.442 5.71164 143.137 5.85044C142.832 5.98844 142.568 6.17745 142.346 6.41815C142.124 6.65965 141.949 6.94214 141.821 7.26664C141.693 7.59114 141.628 7.94274 141.628 8.32144C141.628 8.69434 141.687 9.03285 141.807 9.33835C141.925 9.64315 142.092 9.90514 142.307 10.1236C142.523 10.3422 142.778 10.5122 143.074 10.6346C143.37 10.7562 143.694 10.8178 144.047 10.8178C144.208 10.8178 144.355 10.8063 144.491 10.7841C144.626 10.7611 144.754 10.7241 144.876 10.6732C144.999 10.6214 145.118 10.5557 145.238 10.4752C145.357 10.3947 145.48 10.2937 145.609 10.1721V10.6436C145.609 11.01 145.51 11.2959 145.315 11.502C145.118 11.7074 144.838 11.8101 144.471 11.8101C144.041 11.8101 143.765 11.6458 143.642 11.3189H141.677C141.728 11.5883 141.831 11.8372 141.985 12.0656C142.139 12.2931 142.337 12.4927 142.578 12.6628C142.818 12.8328 143.099 12.9667 143.421 13.0628C143.743 13.1589 144.096 13.2074 144.481 13.2074C144.822 13.2074 145.138 13.1688 145.43 13.0916C145.723 13.0143 145.984 12.9084 146.216 12.7737C146.448 12.6389 146.645 12.4796 146.808 12.2964C146.972 12.1132 147.092 11.9161 147.17 11.7041C147.228 11.5366 147.272 11.3443 147.304 11.1258ZM145.695 8.23514C145.695 8.38874 145.665 8.53494 145.604 8.67384C145.542 8.81184 145.463 8.93175 145.363 9.03445C145.263 9.13795 145.145 9.21765 145.007 9.27515C144.868 9.33345 144.722 9.36224 144.568 9.36224C144.407 9.36224 144.258 9.33345 144.12 9.27515C143.982 9.21765 143.862 9.13795 143.763 9.03445C143.664 8.93175 143.585 8.81184 143.526 8.67384C143.469 8.53494 143.44 8.38634 143.44 8.22534C143.44 8.07084 143.471 7.92624 143.532 7.79154C143.593 7.65685 143.674 7.53934 143.778 7.43994C143.881 7.34054 143.999 7.26005 144.134 7.19935C144.269 7.13855 144.414 7.10734 144.568 7.10734C144.715 7.10734 144.858 7.13604 144.997 7.19434C145.135 7.25184 145.255 7.33234 145.358 7.43504C145.461 7.53774 145.542 7.65685 145.604 7.79154C145.665 7.92624 145.695 8.07414 145.695 8.23514ZM138.891 10.7208H140.636V7.57964C140.636 7.31594 140.61 7.08184 140.559 6.87644C140.507 6.67024 140.411 6.48464 140.269 6.31704C140.096 6.11174 139.886 5.95314 139.639 5.84064C139.391 5.72804 139.094 5.67144 138.746 5.67144C138.419 5.67144 138.134 5.72154 137.89 5.82094C137.645 5.92114 137.404 6.11495 137.167 6.40415V5.77734H135.422V10.7208H137.167V8.08074C137.167 7.75294 137.245 7.50075 137.403 7.32415C137.56 7.14755 137.786 7.05965 138.082 7.05965C138.191 7.05965 138.294 7.07524 138.391 7.10734C138.487 7.13934 138.573 7.19434 138.65 7.27154C138.741 7.36114 138.803 7.48184 138.838 7.63304C138.874 7.78334 138.891 7.98134 138.891 8.22534V10.7208ZM132.483 10.7208H134.237V5.77734H132.483V6.26944C132.078 5.83894 131.567 5.62374 130.951 5.62374C130.584 5.62374 130.25 5.69274 129.948 5.83074C129.646 5.96874 129.386 6.15684 129.167 6.39424C128.949 6.63254 128.779 6.91015 128.656 7.22805C128.535 7.54595 128.473 7.88194 128.473 8.23514C128.473 8.61384 128.537 8.96465 128.661 9.28585C128.786 9.60615 128.961 9.88624 129.186 10.1236C129.411 10.361 129.675 10.5467 129.977 10.6781C130.279 10.8096 130.61 10.8753 130.97 10.8753C131.605 10.8753 132.11 10.6403 132.483 10.1721V10.7208ZM132.54 8.25404C132.54 8.40844 132.51 8.55305 132.449 8.68775C132.388 8.82255 132.308 8.94164 132.208 9.04434C132.108 9.14694 131.989 9.22745 131.851 9.28585C131.713 9.34335 131.567 9.37204 131.413 9.37204C131.252 9.37204 131.103 9.34335 130.965 9.28585C130.827 9.22745 130.708 9.14694 130.608 9.04434C130.508 8.94164 130.43 8.82165 130.372 8.68285C130.314 8.54485 130.285 8.39534 130.285 8.23514C130.285 8.08074 130.314 7.93774 130.372 7.80634C130.43 7.67494 130.508 7.55745 130.608 7.45475C130.708 7.35125 130.827 7.27154 130.965 7.21324C131.103 7.15574 131.252 7.12705 131.413 7.12705C131.567 7.12705 131.713 7.15574 131.851 7.21324C131.989 7.27154 132.108 7.35125 132.208 7.45475C132.308 7.55745 132.388 7.67734 132.449 7.81544C132.51 7.95424 132.54 8.09964 132.54 8.25404ZM125.736 10.7208H127.481V7.57964C127.481 6.99554 127.322 6.53065 127.004 6.18725C126.686 5.84395 126.215 5.67144 125.592 5.67144C125.264 5.67144 124.978 5.72154 124.734 5.82094C124.49 5.92114 124.249 6.11495 124.011 6.40415V2.72314H122.267V10.7208H124.011V8.08074C124.011 7.75294 124.09 7.50075 124.248 7.32415C124.405 7.14755 124.631 7.05965 124.927 7.05965C125.146 7.05965 125.332 7.12704 125.486 7.26174C125.576 7.34554 125.64 7.46385 125.679 7.61825C125.717 7.77264 125.736 7.97474 125.736 8.22534V10.7208ZM120.051 10.8753C120.436 10.8753 120.844 10.7825 121.275 10.596V9.11165C120.991 9.33675 120.687 9.44924 120.359 9.44924C120.192 9.44924 120.034 9.42054 119.887 9.36224C119.739 9.30474 119.612 9.22255 119.506 9.11655C119.4 9.01065 119.317 8.88575 119.256 8.74115C119.194 8.59665 119.164 8.43725 119.164 8.26395C119.164 8.08405 119.194 7.92214 119.256 7.77674C119.317 7.63304 119.402 7.50735 119.511 7.40135C119.62 7.29545 119.747 7.21325 119.892 7.15575C120.036 7.09825 120.192 7.06864 120.359 7.06864C120.667 7.06864 120.973 7.17135 121.275 7.37755V5.89314C120.915 5.71324 120.522 5.62374 120.099 5.62374C119.713 5.62374 119.352 5.68944 119.015 5.82094C118.677 5.95314 118.387 6.13554 118.143 6.37044C117.898 6.60534 117.706 6.88465 117.564 7.20915C117.423 7.53285 117.352 7.89175 117.352 8.28285C117.352 8.67545 117.426 9.02954 117.573 9.34824C117.721 9.66614 117.919 9.93884 118.166 10.1672C118.414 10.3947 118.7 10.5705 119.024 10.6921C119.349 10.8145 119.69 10.8753 120.051 10.8753ZM116.947 10.7208L114.471 8.04215L116.523 5.77734H114.249L113.381 6.79924L112.534 5.77734H110.259L112.263 8.04215L109.797 10.7208H112.1L113.372 9.25625L114.634 10.7208H116.947ZM105.064 10.7208H109.199V9.12154H106.954V7.86874H109.074V6.26944H106.954V5.05534H109.199V3.45514H105.064V10.7208ZM98.6947 10.7208H100.439V7.57964C100.439 7.31594 100.413 7.08184 100.361 6.87644C100.31 6.67024 100.214 6.48464 100.072 6.31704C99.8989 6.11174 99.6886 5.95314 99.4414 5.84064C99.1941 5.72804 98.8968 5.67144 98.5501 5.67144C98.2223 5.67144 97.9365 5.72154 97.6925 5.82094C97.4477 5.92114 97.207 6.11495 96.9696 6.40415V5.77734H95.2249V10.7208H96.9696V8.08074C96.9696 7.75294 97.0477 7.50075 97.2054 7.32415C97.3631 7.14755 97.589 7.05965 97.8847 7.05965C97.994 7.05965 98.0967 7.07524 98.1936 7.10734C98.2897 7.13934 98.376 7.19434 98.4532 7.27154C98.5435 7.36114 98.606 7.48184 98.6413 7.63304C98.6766 7.78334 98.6947 7.98134 98.6947 8.22534V10.7208ZM92.2857 10.7208H94.0395V5.77734H92.2857V6.26944C91.8807 5.83894 91.3706 5.62374 90.7528 5.62374C90.3873 5.62374 90.053 5.69274 89.7507 5.83074C89.4484 5.96874 89.1888 6.15684 88.9703 6.39424C88.7518 6.63254 88.5817 6.91015 88.4593 7.22805C88.3377 7.54595 88.2762 7.88194 88.2762 8.23514C88.2762 8.61384 88.3394 8.96465 88.4643 9.28585C88.59 9.60615 88.7649 9.88624 88.9892 10.1236C89.2143 10.361 89.4779 10.5467 89.7802 10.6781C90.0817 10.8096 90.4119 10.8753 90.7726 10.8753C91.4084 10.8753 91.9127 10.6403 92.2857 10.1721V10.7208ZM92.3432 8.25404C92.3432 8.40844 92.3128 8.55305 92.252 8.68775C92.1904 8.82255 92.1107 8.94164 92.0113 9.04434C91.9111 9.14694 91.7928 9.22745 91.654 9.28585C91.516 9.34335 91.3706 9.37204 91.2161 9.37204C91.0551 9.37204 90.9056 9.34335 90.7676 9.28585C90.6296 9.22745 90.5105 9.14694 90.4111 9.04434C90.3117 8.94164 90.2329 8.82165 90.1745 8.68285C90.117 8.54485 90.0883 8.39534 90.0883 8.23514C90.0883 8.08074 90.117 7.93774 90.1745 7.80634C90.2329 7.67494 90.3117 7.55745 90.4111 7.45475C90.5105 7.35125 90.6296 7.27154 90.7676 7.21324C90.9056 7.15574 91.0551 7.12705 91.2161 7.12705C91.3706 7.12705 91.516 7.15574 91.654 7.21324C91.7928 7.27154 91.9111 7.35125 92.0113 7.45475C92.1107 7.55745 92.1904 7.67734 92.252 7.81544C92.3128 7.95424 92.3432 8.09964 92.3432 8.25404ZM87.3027 4.26015C87.3545 4.14105 87.3799 4.01454 87.3799 3.87984C87.3799 3.74424 87.3545 3.61774 87.3027 3.49864C87.2518 3.37954 87.1811 3.27605 87.0908 3.18565C87.0012 3.09535 86.8969 3.02544 86.7778 2.97374C86.6587 2.92194 86.5322 2.89654 86.3975 2.89654C86.2619 2.89654 86.1354 2.92194 86.0163 2.97374C85.8972 3.02544 85.7929 3.09535 85.7034 3.18565C85.613 3.27605 85.5423 3.37954 85.4914 3.49864C85.4397 3.61774 85.4142 3.74424 85.4142 3.87984C85.4142 4.01454 85.4397 4.14105 85.4914 4.26015C85.5423 4.37925 85.613 4.48354 85.7034 4.57314C85.7929 4.66344 85.8972 4.73414 86.0163 4.78504C86.1354 4.83684 86.2619 4.86224 86.3975 4.86224C86.5322 4.86224 86.6587 4.83684 86.7778 4.78504C86.8969 4.73414 87.0012 4.66344 87.0908 4.57314C87.1811 4.48354 87.2518 4.37925 87.3027 4.26015ZM83.8822 7.23295H84.8745V5.77734H83.8822V4.29385H82.1374V5.77734H81.5591V7.23295H82.1374V10.7208H83.8822V7.23295ZM80.7549 9.28585C80.8798 8.97035 80.943 8.63025 80.943 8.26395C80.943 7.89755 80.8798 7.55415 80.7549 7.23295C80.6292 6.91185 80.4543 6.63254 80.2292 6.39424C80.0049 6.15684 79.7396 5.96874 79.434 5.83074C79.1292 5.69274 78.7998 5.62374 78.4466 5.62374C77.8034 5.62374 77.2957 5.85785 76.9236 6.32695V5.77734H75.1797V13.1877H76.9236V10.2395C77.3352 10.6633 77.8486 10.8753 78.4655 10.8753C78.8187 10.8753 79.1465 10.8079 79.4488 10.6732C79.7511 10.5377 80.0123 10.352 80.2341 10.1138C80.4559 9.87644 80.6292 9.60045 80.7549 9.28585ZM79.121 8.26395C79.121 8.41175 79.0906 8.55305 79.0298 8.68775C78.9682 8.82255 78.8877 8.94164 78.7883 9.04434C78.6889 9.14694 78.5715 9.22745 78.4367 9.28585C78.302 9.34335 78.1575 9.37204 78.003 9.37204C77.8486 9.37204 77.7024 9.34165 77.5652 9.28005C77.4263 9.21925 77.3056 9.13955 77.2029 9.03935C77.1002 8.93995 77.0197 8.82255 76.9622 8.68775C76.9047 8.55305 76.8752 8.40844 76.8752 8.25404C76.8752 8.09964 76.9064 7.95424 76.9672 7.81544C77.028 7.67734 77.1084 7.55745 77.2079 7.45475C77.3072 7.35125 77.4247 7.27154 77.5603 7.21324C77.695 7.15574 77.8387 7.12705 77.9932 7.12705C78.1542 7.12705 78.3037 7.15745 78.4417 7.21825C78.5797 7.27985 78.7004 7.36115 78.8031 7.46385C78.9058 7.56655 78.9847 7.68724 79.0389 7.82524C79.0939 7.96324 79.121 8.10945 79.121 8.26395ZM70.6116 13.1877L74.5825 5.77734H72.5773L71.2958 8.31234L69.9758 5.77734H67.9517L70.3421 10.0464L68.6548 13.1877H70.6116ZM67.3151 11.1258C67.3471 10.9073 67.3635 10.6601 67.3635 10.384V5.77734H65.6196V6.29814C65.2212 5.86114 64.7291 5.64264 64.1442 5.64264C63.7844 5.64264 63.4526 5.71164 63.147 5.85044C62.8422 5.98844 62.5785 6.17745 62.3567 6.41815C62.1349 6.65965 61.96 6.94214 61.831 7.26664C61.7029 7.59114 61.6388 7.94274 61.6388 8.32144C61.6388 8.69434 61.6979 9.03285 61.817 9.33835C61.9362 9.64315 62.1029 9.90514 62.3181 10.1236C62.5333 10.3422 62.7888 10.5122 63.0846 10.6346C63.3803 10.7562 63.7048 10.8178 64.058 10.8178C64.2182 10.8178 64.366 10.8063 64.5016 10.7841C64.6363 10.7611 64.7644 10.7241 64.8868 10.6732C65.0084 10.6214 65.1292 10.5557 65.2483 10.4752C65.3666 10.3947 65.4906 10.2937 65.6196 10.1721V10.6436C65.6196 11.01 65.521 11.2959 65.3255 11.502C65.1292 11.7074 64.8482 11.8101 64.4819 11.8101C64.0514 11.8101 63.7754 11.6458 63.653 11.3189H61.6873C61.7382 11.5883 61.8409 11.8372 61.9953 12.0656C62.1497 12.2931 62.3469 12.4927 62.5884 12.6628C62.8291 12.8328 63.11 12.9667 63.4312 13.0628C63.7532 13.1589 64.1065 13.2074 64.4917 13.2074C64.8318 13.2074 65.1489 13.1688 65.4405 13.0916C65.7329 13.0143 65.995 12.9084 66.2266 12.7737C66.4575 12.6389 66.6554 12.4796 66.8189 12.2964C66.9832 12.1132 67.1031 11.9161 67.1803 11.7041C67.2386 11.5366 67.283 11.3443 67.3151 11.1258ZM65.7058 8.23514C65.7058 8.38874 65.6754 8.53494 65.6146 8.67384C65.553 8.81184 65.4734 8.93175 65.3731 9.03445C65.2737 9.13795 65.1546 9.21765 65.0166 9.27515C64.8786 9.33345 64.7324 9.36224 64.578 9.36224C64.4178 9.36224 64.2683 9.33345 64.1303 9.27515C63.9914 9.21765 63.8732 9.13795 63.7738 9.03445C63.6736 8.93175 63.5955 8.81184 63.5372 8.67384C63.4797 8.53494 63.4509 8.38634 63.4509 8.22534C63.4509 8.07084 63.4813 7.92624 63.5429 7.79154C63.6037 7.65685 63.685 7.53934 63.7885 7.43994C63.8912 7.34054 64.0095 7.26005 64.1442 7.19935C64.2798 7.13855 64.4243 7.10734 64.578 7.10734C64.7258 7.10734 64.8688 7.13604 65.0076 7.19434C65.1456 7.25184 65.2655 7.33234 65.3682 7.43504C65.4717 7.53774 65.553 7.65685 65.6146 7.79154C65.6754 7.92624 65.7058 8.07414 65.7058 8.23514ZM56.5022 10.7208H60.6366V9.12154H58.3916V7.86874H60.5118V6.26944H58.3916V5.05534H60.6366V3.45514H56.5022V10.7208ZM48.3977 8.54324H52.0696V8.36005C52.0696 7.92955 52.008 7.54265 51.8865 7.19935C51.7641 6.85515 51.5874 6.56435 51.3558 6.32695C51.125 6.08955 50.8424 5.90794 50.5081 5.78224C50.1737 5.65744 49.7983 5.59414 49.3802 5.59414C48.9563 5.59414 48.576 5.65744 48.2384 5.78224C47.9016 5.90794 47.6132 6.08624 47.3758 6.31704C47.1384 6.54874 46.9553 6.82964 46.8263 7.16074C46.6981 7.49174 46.6341 7.86225 46.6341 8.27375C46.6341 8.67215 46.7014 9.03195 46.8361 9.35235C46.9717 9.67435 47.1623 9.95035 47.4095 10.1811C47.6568 10.4128 47.9542 10.5911 48.3008 10.7159C48.6483 10.8416 49.0303 10.904 49.4484 10.904C50.8103 10.904 51.6614 10.3389 52.0023 9.20775H50.315C50.1228 9.51665 49.8369 9.67104 49.4574 9.67104C48.751 9.67104 48.3977 9.29484 48.3977 8.54324ZM48.4462 7.53114C48.4906 7.27484 48.5982 7.07525 48.7682 6.93395C48.9383 6.79265 49.1592 6.72204 49.4287 6.72204C49.6858 6.72204 49.9043 6.79594 50.0842 6.94384C50.2633 7.09174 50.3832 7.28724 50.4407 7.53114H48.4462ZM43.897 10.7208H45.6418V7.57964C45.6418 6.99554 45.4824 6.53065 45.1645 6.18725C44.8457 5.84395 44.3751 5.67144 43.7524 5.67144C43.4246 5.67144 43.1388 5.72154 42.8948 5.82094C42.6508 5.92114 42.4093 6.11495 42.1719 6.40415V2.72314H40.4271V10.7208H42.1719V8.08074C42.1719 7.75294 42.2508 7.50075 42.4077 7.32415C42.5654 7.14755 42.7921 7.05965 43.087 7.05965C43.3055 7.05965 43.492 7.12704 43.6464 7.26174C43.736 7.34554 43.8009 7.46385 43.8395 7.61825C43.8773 7.77264 43.897 7.97474 43.897 8.22534V10.7208ZM38.201 5.05534H39.7527V3.45514H34.7607V5.05534H36.3125V10.7208H38.201V5.05534ZM87.274 5.77734H85.53V10.7208H87.274V5.77734Z" fill="#211E1E"/>
</g>
</svg>
