<svg width="1425" height="321" viewBox="0 0 1425 321" fill="none" xmlns="http://www.w3.org/2000/svg">
<g clip-path="url(#clip0_2240_19)">
<rect width="1425" height="321" fill="#1D3666"/>
<g clip-path="url(#clip1_2240_19)">
<g opacity="0.5">
<path d="M48.8347 236.987V222.748C21.9286 222.734 0.099486 244.447 0.0141602 271.264H14.3063C14.3916 252.317 29.8213 236.987 48.8347 236.987Z" fill="#065BAA"/>
<path d="M97.6556 271.421L83.3635 271.435C83.3635 290.438 67.8911 305.854 48.835 305.854V320.092C59.7851 320.107 69.8963 316.519 78.0449 310.435C78.6706 309.967 79.282 309.485 79.8936 308.988C81.1024 307.995 82.2543 306.946 83.3635 305.84C83.9182 305.287 84.4586 304.719 84.9847 304.152C85.5108 303.571 86.0228 302.989 86.5206 302.38C87.0183 301.784 87.5018 301.16 87.9711 300.536C88.1986 300.224 88.4404 299.912 88.6679 299.586C89.123 298.947 89.5638 298.295 89.9762 297.643C90.1896 297.317 90.3887 296.976 90.602 296.65C91.6259 294.977 92.5361 293.232 93.3609 291.445C96.1339 285.333 97.6698 278.554 97.6698 271.406" fill="#3080C3"/>
<path d="M97.6552 257.593V250.445H76.21C77.9023 252.629 79.3244 255.026 80.462 257.593H97.6695H97.6552Z" fill="#065BAA"/>
<path d="M69.3701 243.737H97.6556V236.59H48.835V236.987C56.5285 236.987 63.639 239.497 69.3701 243.737Z" fill="#065BAA"/>
<path d="M97.6556 222.748H48.835V229.896H97.6556V222.748Z" fill="#065BAA"/>
<path d="M48.8206 312.945H0V320.092H48.8206V312.945Z" fill="#3080C3"/>
<path d="M28.2286 299.047H0V306.194H48.8206V305.854C41.0986 305.854 33.9597 303.329 28.2144 299.047" fill="#3080C3"/>
<path d="M0 285.148V292.296H21.3742C19.696 290.098 18.2739 287.715 17.1647 285.148H0Z" fill="#3080C3"/>
<path d="M14.3063 271.42H0V278.412H15.0031C14.5339 276.157 14.2921 273.817 14.2921 271.42" fill="#3080C3"/>
<path d="M62.8853 271.42C62.8853 271.42 62.8853 271.42 62.8853 271.434H83.3351L62.8711 271.42H62.8853Z" fill="#3080C3"/>
<mask id="mask0_2240_19" style="mask-type:luminance" maskUnits="userSpaceOnUse" x="14" y="237" width="67" height="35">
<g opacity="0.5">
<path d="M14.3062 271.264H35.1114C34.0733 269.846 33.4618 268.116 33.4618 266.244V266.173C33.4618 261.451 37.3157 257.607 42.0513 257.607H48.8346H80.4621C79.3387 255.055 77.9024 252.658 76.21 250.46H48.8346V243.752H69.3697C63.6244 239.511 56.5282 237.001 48.8346 237.001C29.8212 237.001 14.3915 252.332 14.3062 271.279" fill="white"/>
</g>
</mask>
<g mask="url(#mask0_2240_19)">
<path d="M53.0082 204.485L-2.63232 251.21L41.7481 303.768L97.3888 257.043L53.0082 204.485Z" fill="url(#paint0_linear_2240_19)"/>
</g>
<mask id="mask1_2240_19" style="mask-type:luminance" maskUnits="userSpaceOnUse" x="40" y="264" width="44" height="8">
<g opacity="0.5">
<path d="M71.0335 264.287V264.358H42.0511C41.0557 264.358 40.2451 265.166 40.2451 266.159V266.23C40.2451 267.223 41.0557 268.031 42.0511 268.031H56.073C58.8604 268.031 61.3206 269.364 62.8991 271.42H83.3631C83.3631 268.981 83.107 266.599 82.6235 264.287H71.0478H71.0335Z" fill="white"/>
</g>
</mask>
<g mask="url(#mask1_2240_19)">
<path d="M65.472 243.111L36.7217 267.254L58.1288 292.606L86.879 268.463L65.472 243.111Z" fill="url(#paint1_linear_2240_19)"/>
</g>
<path d="M62.8992 271.435C63.9942 272.867 64.6484 274.654 64.6484 276.597C64.6484 281.319 60.7945 285.163 56.0589 285.163H36.8464H17.1504C18.2739 287.715 19.6817 290.112 21.3598 292.31H48.8062V299.061H28.2001C33.9454 303.33 41.0843 305.868 48.8062 305.868C67.8766 305.868 83.3206 290.467 83.3348 271.449H62.8851L62.8992 271.435Z" fill="#065BAA"/>
<path d="M36.8605 278.398H56.073C57.0685 278.398 57.8791 277.589 57.8791 276.597C57.8791 275.604 57.0685 274.796 56.073 274.796H42.0511C39.2781 274.796 36.8036 273.463 35.2393 271.42C35.1967 271.364 35.154 271.321 35.1256 271.264H14.3203C14.3203 271.264 14.3203 271.364 14.3203 271.42C14.3203 273.817 14.562 276.143 15.0313 278.412H36.8747L36.8605 278.398Z" fill="#065BAA"/>
<path d="M71.0339 264.287H48.835V264.358H71.0339V264.287Z" fill="#3080C3"/>
<path d="M42.0512 264.358H48.8347V264.287H82.6237C82.1259 261.961 81.4007 259.72 80.4621 257.579H48.8347H42.0512C37.3156 257.579 33.4617 261.422 33.4617 266.145V266.216C33.4617 268.102 34.0733 269.832 35.1114 271.236C35.1541 271.293 35.1825 271.335 35.2252 271.392C36.7895 273.434 39.264 274.767 42.037 274.767H56.0589C57.0544 274.767 57.865 275.576 57.865 276.568C57.865 277.561 57.0544 278.37 56.0589 278.37H48.8204H36.8464H15.0029C15.4864 280.724 16.2118 282.979 17.1503 285.12H48.8204H56.0589C60.7945 285.12 64.6484 281.277 64.6484 276.554C64.6484 274.611 63.9942 272.825 62.8991 271.392C62.8991 271.392 62.8991 271.392 62.8991 271.378C61.3349 269.322 58.8604 268.003 56.0731 268.003H42.0512C41.0557 268.003 40.2451 267.194 40.2451 266.202V266.131C40.2451 265.138 41.0557 264.33 42.0512 264.33" fill="#1D3666"/>
<path d="M77.4331 292.296H21.374C23.3365 294.849 25.6261 297.132 28.2143 299.046H77.4189V292.296H77.4331Z" fill="#3080C3"/>
<path d="M19.2554 250.445H76.2104C74.2479 247.907 71.9583 245.652 69.3701 243.737H19.2554V250.445Z" fill="#065BAA"/>
</g>
<g opacity="0.5">
<path d="M187.538 260.887C187.261 260.748 186.982 260.621 186.705 260.482C186.982 260.609 187.261 260.748 187.538 260.887Z" fill="#1D3666"/>
<path d="M190.408 262.495C190.153 262.333 189.898 262.183 189.632 262.032C189.887 262.183 190.153 262.333 190.408 262.495Z" fill="#1D3666"/>
<path d="M186.046 260.181C185.757 260.054 185.468 259.926 185.166 259.799C185.455 259.926 185.757 260.042 186.046 260.181Z" fill="#1D3666"/>
<path d="M194.435 265.319C194.203 265.133 193.972 264.948 193.741 264.775C193.972 264.96 194.203 265.133 194.435 265.319Z" fill="#1D3666"/>
<path d="M193.139 264.323C192.895 264.15 192.665 263.976 192.421 263.803C192.665 263.976 192.907 264.15 193.139 264.323Z" fill="#1D3666"/>
<path d="M181.382 258.422C180.85 258.26 180.306 258.11 179.762 257.971C180.306 258.11 180.838 258.26 181.382 258.422Z" fill="#1D3666"/>
<path d="M195.696 266.372C195.476 266.175 195.245 265.978 195.013 265.793C195.245 265.978 195.464 266.175 195.696 266.372Z" fill="#1D3666"/>
<path d="M191.797 263.386C191.554 263.224 191.299 263.062 191.056 262.9C191.31 263.062 191.554 263.224 191.797 263.386Z" fill="#1D3666"/>
<path d="M201.678 272.921C206.365 279.378 209.118 287.304 209.118 295.89H189.934C201.644 295.762 208.552 282.444 201.678 272.921Z" fill="#065BAA"/>
<path d="M150.534 234.47C150.534 241.713 154.468 248.043 160.323 251.433C157.442 253.099 154.098 254.048 150.534 254.048C146.97 254.048 143.626 253.088 140.744 251.433C134.89 248.043 130.955 241.713 130.955 234.47C130.955 227.226 134.89 220.897 140.744 217.506C143.626 215.84 146.97 214.891 150.534 214.891C154.098 214.891 157.442 215.84 160.323 217.506C154.479 220.897 150.534 227.226 150.534 234.47Z" fill="#065BAA"/>
<path d="M129.45 262.807C129.207 262.958 128.965 263.12 128.722 263.27C128.965 263.108 129.207 262.958 129.45 262.807Z" fill="#1D3666"/>
<path d="M138.476 258.584C138.129 258.7 137.782 258.804 137.435 258.931C137.782 258.816 138.129 258.7 138.476 258.584Z" fill="#1D3666"/>
<path d="M135.26 259.776C134.97 259.891 134.681 260.019 134.403 260.146C134.692 260.019 134.982 259.903 135.26 259.776Z" fill="#1D3666"/>
<path d="M140.594 257.971C140.062 258.11 139.529 258.26 138.997 258.422C139.529 258.26 140.05 258.11 140.594 257.971Z" fill="#1D3666"/>
<path d="M132.274 261.176C132.008 261.315 131.753 261.454 131.487 261.593C131.742 261.454 132.008 261.315 132.274 261.176Z" fill="#1D3666"/>
<path d="M130.851 261.963C130.596 262.113 130.341 262.252 130.099 262.403C130.354 262.252 130.596 262.102 130.851 261.963Z" fill="#1D3666"/>
<path d="M133.744 260.447C133.466 260.574 133.199 260.702 132.922 260.84C133.188 260.702 133.466 260.574 133.744 260.447Z" fill="#1D3666"/>
<path d="M136.821 259.163C136.509 259.279 136.208 259.383 135.896 259.51C136.196 259.394 136.509 259.279 136.821 259.163Z" fill="#1D3666"/>
<path d="M150.395 261.974C147.375 260.227 144.088 258.862 140.617 257.971C143.741 257.172 147.016 256.733 150.406 256.733C153.797 256.733 157.06 257.161 160.196 257.971C156.725 258.862 153.439 260.227 150.406 261.974" fill="#1D3666"/>
<path d="M130.817 295.89H111.238C111.238 287.13 114.119 279.042 118.99 272.516C111.909 282.189 118.748 295.89 130.817 295.89Z" fill="#065BAA"/>
<path d="M160.311 251.433C166.166 248.043 170.1 241.713 170.1 234.47C170.1 227.226 166.166 220.897 160.311 217.506C163.204 215.84 166.536 214.891 170.111 214.891C173.688 214.891 177.02 215.84 179.901 217.506C185.756 220.897 189.69 227.226 189.69 234.47C189.69 241.713 185.756 248.043 179.901 251.433C177.02 253.099 173.676 254.048 170.111 254.048C166.548 254.048 163.204 253.099 160.322 251.433H160.311Z" fill="#065BAA"/>
<path d="M170.112 234.47C170.112 241.713 166.178 248.043 160.323 251.433C154.479 248.043 150.534 241.713 150.534 234.47C150.534 227.226 154.468 220.897 160.323 217.506C166.178 220.897 170.112 227.226 170.112 234.47Z" fill="#3080C3"/>
<path d="M160.253 257.971C160.253 257.971 160.23 257.971 160.219 257.971C160.219 257.971 160.196 257.971 160.185 257.971C163.309 257.172 166.595 256.733 169.973 256.733C173.352 256.733 176.627 257.161 179.762 257.971C176.303 258.862 173.028 260.216 170.008 261.963C166.988 260.216 163.713 258.862 160.253 257.971Z" fill="#1D3666"/>
<mask id="mask2_2240_19" style="mask-type:luminance" maskUnits="userSpaceOnUse" x="191" y="263" width="2" height="1">
<g opacity="0.5">
<path d="M192.422 263.386H191.797V263.814H192.422V263.386Z" fill="white"/>
</g>
</mask>
<g mask="url(#mask2_2240_19)">
<path d="M192.41 263.803C192.201 263.664 192.005 263.514 191.797 263.375C192.005 263.514 192.213 263.652 192.41 263.803Z" fill="#3080C3"/>
</g>
<mask id="mask3_2240_19" style="mask-type:luminance" maskUnits="userSpaceOnUse" x="181" y="258" width="1" height="1">
<g opacity="0.5">
<path d="M181.914 258.422H181.382V258.596H181.914V258.422Z" fill="white"/>
</g>
</mask>
<g mask="url(#mask3_2240_19)">
<path d="M181.914 258.596C181.74 258.538 181.555 258.48 181.382 258.422C181.567 258.48 181.74 258.538 181.914 258.596Z" fill="#3080C3"/>
</g>
<mask id="mask4_2240_19" style="mask-type:luminance" maskUnits="userSpaceOnUse" x="188" y="261" width="2" height="2">
<g opacity="0.5">
<path d="M189.644 261.662H188.996V262.032H189.644V261.662Z" fill="white"/>
</g>
</mask>
<g mask="url(#mask4_2240_19)">
<path d="M189.644 262.032C189.424 261.905 189.216 261.778 188.996 261.662C189.216 261.789 189.424 261.905 189.644 262.032Z" fill="#3080C3"/>
</g>
<mask id="mask5_2240_19" style="mask-type:luminance" maskUnits="userSpaceOnUse" x="190" y="262" width="2" height="1">
<g opacity="0.5">
<path d="M191.044 262.495H190.408V262.9H191.044V262.495Z" fill="white"/>
</g>
</mask>
<g mask="url(#mask5_2240_19)">
<path d="M191.044 262.889C190.836 262.75 190.628 262.623 190.408 262.495C190.616 262.623 190.836 262.761 191.044 262.889Z" fill="#3080C3"/>
</g>
<mask id="mask6_2240_19" style="mask-type:luminance" maskUnits="userSpaceOnUse" x="193" y="264" width="1" height="1">
<g opacity="0.5">
<path d="M193.728 264.323H193.127V264.775H193.728V264.323Z" fill="white"/>
</g>
</mask>
<g mask="url(#mask6_2240_19)">
<path d="M193.728 264.775C193.532 264.624 193.335 264.474 193.127 264.323C193.324 264.474 193.532 264.624 193.728 264.775Z" fill="#3080C3"/>
</g>
<mask id="mask7_2240_19" style="mask-type:luminance" maskUnits="userSpaceOnUse" x="194" y="265" width="2" height="1">
<g opacity="0.5">
<path d="M195.013 265.319H194.434V265.793H195.013V265.319Z" fill="white"/>
</g>
</mask>
<g mask="url(#mask7_2240_19)">
<path d="M195.013 265.793C194.817 265.631 194.632 265.481 194.434 265.319C194.632 265.469 194.828 265.631 195.013 265.793Z" fill="#3080C3"/>
</g>
<path d="M189.945 295.89H189.587H189.551C189.551 281.414 181.695 268.767 170.008 261.997C170.008 261.997 170.031 261.986 170.043 261.974C170.031 261.974 170.019 261.963 170.008 261.951C173.028 260.204 176.303 258.862 179.762 257.959C180.306 258.098 180.838 258.248 181.382 258.41C181.567 258.468 181.741 258.526 181.914 258.584C182.262 258.7 182.62 258.804 182.968 258.931C183.176 259.001 183.384 259.082 183.592 259.163C183.905 259.278 184.217 259.394 184.53 259.521C184.749 259.614 184.958 259.706 185.178 259.799C185.467 259.926 185.768 260.042 186.057 260.181C186.278 260.285 186.497 260.389 186.716 260.493C186.995 260.621 187.273 260.759 187.55 260.898C187.769 261.014 187.99 261.13 188.209 261.245C188.475 261.384 188.741 261.523 189.008 261.674C189.228 261.789 189.436 261.916 189.656 262.044C189.91 262.194 190.176 262.345 190.431 262.507C190.64 262.634 190.859 262.773 191.067 262.9C191.31 263.062 191.565 263.224 191.808 263.386C192.016 263.525 192.225 263.664 192.433 263.814C192.676 263.988 192.919 264.161 193.15 264.335C193.347 264.485 193.556 264.636 193.752 264.786C193.983 264.971 194.215 265.145 194.447 265.33C194.643 265.48 194.84 265.642 195.025 265.804C195.257 266.001 195.476 266.186 195.708 266.383C195.893 266.545 196.078 266.707 196.263 266.869C196.483 267.066 196.703 267.274 196.922 267.482C197.096 267.656 197.282 267.818 197.454 267.991C197.675 268.211 197.883 268.42 198.092 268.639C198.253 268.813 198.426 268.987 198.589 269.16C198.798 269.392 199.005 269.623 199.213 269.854C199.364 270.028 199.526 270.202 199.676 270.375C199.885 270.618 200.093 270.873 200.289 271.116C200.429 271.289 200.579 271.463 200.718 271.636C200.938 271.914 201.146 272.192 201.354 272.469C201.47 272.62 201.586 272.77 201.701 272.932C208.586 282.455 201.678 295.774 189.957 295.89" fill="#1D3666"/>
<path d="M189.945 295.89H189.587H189.551C189.551 281.414 181.695 268.767 170.008 261.997C170.008 261.997 170.031 261.986 170.043 261.974C170.031 261.974 170.019 261.963 170.008 261.951C173.028 260.204 176.303 258.862 179.762 257.959C180.306 258.098 180.838 258.248 181.382 258.41C181.567 258.468 181.741 258.526 181.914 258.584C182.262 258.7 182.62 258.804 182.968 258.931C183.176 259.001 183.384 259.082 183.592 259.163C183.905 259.278 184.217 259.394 184.53 259.521C184.749 259.614 184.958 259.706 185.178 259.799C185.467 259.926 185.768 260.042 186.057 260.181C186.278 260.285 186.497 260.389 186.716 260.493C186.995 260.621 187.273 260.759 187.55 260.898C187.769 261.014 187.99 261.13 188.209 261.245C188.475 261.384 188.741 261.523 189.008 261.674C189.228 261.789 189.436 261.916 189.656 262.044C189.91 262.194 190.176 262.345 190.431 262.507C190.64 262.634 190.859 262.773 191.067 262.9C191.31 263.062 191.565 263.224 191.808 263.386C192.016 263.525 192.225 263.664 192.433 263.814C192.676 263.988 192.919 264.161 193.15 264.335C193.347 264.485 193.556 264.636 193.752 264.786C193.983 264.971 194.215 265.145 194.447 265.33C194.643 265.48 194.84 265.642 195.025 265.804C195.257 266.001 195.476 266.186 195.708 266.383C195.893 266.545 196.078 266.707 196.263 266.869C196.483 267.066 196.703 267.274 196.922 267.482C197.096 267.656 197.282 267.818 197.454 267.991C197.675 268.211 197.883 268.42 198.092 268.639C198.253 268.813 198.426 268.987 198.589 269.16C198.798 269.392 199.005 269.623 199.213 269.854C199.364 270.028 199.526 270.202 199.676 270.375C199.885 270.618 200.093 270.873 200.289 271.116C200.429 271.289 200.579 271.463 200.718 271.636C200.938 271.914 201.146 272.192 201.354 272.469C201.47 272.62 201.586 272.77 201.701 272.932C208.586 282.455 201.678 295.774 189.957 295.89" fill="#3080C3"/>
<path d="M160.183 257.971C160.183 257.971 160.207 257.971 160.219 257.971C156.759 258.873 153.484 260.227 150.452 261.975C154.132 264.092 157.418 266.8 160.207 269.959C160.195 269.97 160.183 269.982 160.172 269.993C157.372 266.823 154.074 264.104 150.383 261.975C153.414 260.227 156.7 258.862 160.172 257.971H160.183Z" fill="#1D3666"/>
<mask id="mask8_2240_19" style="mask-type:luminance" maskUnits="userSpaceOnUse" x="150" y="257" width="11" height="13">
<g opacity="0.5">
<path d="M160.219 257.971H150.395V269.993H160.219V257.971Z" fill="white"/>
</g>
</mask>
<g mask="url(#mask8_2240_19)">
<path d="M160.184 257.971C160.184 257.971 160.208 257.971 160.219 257.971C156.759 258.873 153.484 260.227 150.453 261.975C154.132 264.092 157.418 266.8 160.208 269.959C160.195 269.97 160.184 269.982 160.172 269.993C157.373 266.823 154.075 264.104 150.383 261.975C153.415 260.227 156.701 258.862 160.172 257.971H160.184Z" fill="#3080C3"/>
</g>
<path d="M160.253 269.993C163.042 266.823 166.34 264.115 170.008 261.998C181.695 268.767 189.551 281.414 189.551 295.89H170.043C170.043 285.962 166.34 276.901 160.253 269.993C160.242 270.005 160.23 270.016 160.219 270.028C160.219 270.016 160.196 270.005 160.185 269.993C160.196 269.982 160.207 269.97 160.219 269.959C160.23 269.97 160.242 269.982 160.253 269.993Z" fill="#1D3666"/>
<path d="M160.253 269.993C163.042 266.823 166.34 264.115 170.008 261.998C181.695 268.767 189.551 281.414 189.551 295.89H170.043C170.043 285.962 166.34 276.901 160.253 269.993C160.242 270.005 160.23 270.016 160.219 270.028C160.219 270.016 160.196 270.005 160.185 269.993C160.196 269.982 160.207 269.97 160.219 269.959C160.23 269.97 160.242 269.982 160.253 269.993Z" fill="#065BAA"/>
<mask id="mask9_2240_19" style="mask-type:luminance" maskUnits="userSpaceOnUse" x="129" y="262" width="2" height="1">
<g opacity="0.5">
<path d="M130.087 262.403H129.451V262.808H130.087V262.403Z" fill="white"/>
</g>
</mask>
<g mask="url(#mask9_2240_19)">
<path d="M130.087 262.403C129.879 262.53 129.66 262.669 129.451 262.808C129.66 262.669 129.868 262.541 130.087 262.403Z" fill="#3080C3"/>
</g>
<mask id="mask10_2240_19" style="mask-type:luminance" maskUnits="userSpaceOnUse" x="135" y="259" width="1" height="1">
<g opacity="0.5">
<path d="M135.907 259.498H135.26V259.764H135.907V259.498Z" fill="white"/>
</g>
</mask>
<g mask="url(#mask10_2240_19)">
<path d="M135.907 259.498C135.688 259.591 135.479 259.683 135.26 259.764C135.468 259.672 135.688 259.579 135.907 259.498Z" fill="#3080C3"/>
</g>
<mask id="mask11_2240_19" style="mask-type:luminance" maskUnits="userSpaceOnUse" x="133" y="260" width="2" height="1">
<g opacity="0.5">
<path d="M134.392 260.135H133.743V260.447H134.392V260.135Z" fill="white"/>
</g>
</mask>
<g mask="url(#mask11_2240_19)">
<path d="M134.403 260.146C134.183 260.25 133.963 260.354 133.754 260.458C133.975 260.354 134.183 260.25 134.403 260.146Z" fill="#3080C3"/>
</g>
<mask id="mask12_2240_19" style="mask-type:luminance" maskUnits="userSpaceOnUse" x="132" y="260" width="1" height="2">
<g opacity="0.5">
<path d="M132.935 260.84H132.274V261.176H132.935V260.84Z" fill="white"/>
</g>
</mask>
<g mask="url(#mask12_2240_19)">
<path d="M132.933 260.84C132.714 260.956 132.494 261.072 132.286 261.176C132.506 261.06 132.714 260.945 132.933 260.84Z" fill="#3080C3"/>
</g>
<path d="M118.99 272.516C119.107 272.354 119.234 272.192 119.349 272.042C119.523 271.822 119.696 271.602 119.87 271.382C120.032 271.185 120.194 270.989 120.356 270.792C120.541 270.572 120.715 270.364 120.9 270.155C121.062 269.959 121.236 269.774 121.41 269.577C121.595 269.369 121.791 269.16 121.988 268.964C122.161 268.779 122.335 268.593 122.52 268.408C122.716 268.212 122.914 268.015 123.122 267.818C123.307 267.644 123.492 267.459 123.677 267.286C123.886 267.089 124.094 266.904 124.302 266.719C124.487 266.545 124.684 266.383 124.869 266.21C125.089 266.024 125.297 265.839 125.517 265.666C125.713 265.504 125.91 265.342 126.107 265.191C126.327 265.018 126.559 264.844 126.789 264.671C126.986 264.52 127.195 264.37 127.391 264.219C127.623 264.057 127.854 263.884 128.097 263.722C128.305 263.583 128.514 263.433 128.722 263.294C128.965 263.132 129.208 262.981 129.451 262.831C129.66 262.692 129.868 262.565 130.087 262.426C130.342 262.275 130.585 262.125 130.84 261.986C131.059 261.859 131.268 261.732 131.487 261.616C131.742 261.477 132.008 261.338 132.274 261.199C132.495 261.084 132.703 260.968 132.922 260.864C133.188 260.725 133.466 260.598 133.744 260.47C133.964 260.366 134.184 260.262 134.404 260.158C134.693 260.031 134.97 259.915 135.26 259.788C135.468 259.695 135.688 259.603 135.908 259.521C136.208 259.406 136.521 259.29 136.833 259.174C137.042 259.105 137.239 259.024 137.446 258.943C137.794 258.816 138.141 258.711 138.488 258.596C138.662 258.538 138.835 258.48 139.009 258.422C139.541 258.26 140.062 258.11 140.606 257.971H140.617C144.088 258.862 147.375 260.227 150.395 261.975C138.696 268.744 130.817 281.403 130.817 295.89C118.76 295.89 111.91 282.19 118.99 272.516Z" fill="#1D3666"/>
<path d="M118.99 272.516C119.107 272.354 119.234 272.192 119.349 272.042C119.523 271.822 119.696 271.602 119.87 271.382C120.032 271.185 120.194 270.989 120.356 270.792C120.541 270.572 120.715 270.364 120.9 270.155C121.062 269.959 121.236 269.774 121.41 269.577C121.595 269.369 121.791 269.16 121.988 268.964C122.161 268.779 122.335 268.593 122.52 268.408C122.716 268.212 122.914 268.015 123.122 267.818C123.307 267.644 123.492 267.459 123.677 267.286C123.886 267.089 124.094 266.904 124.302 266.719C124.487 266.545 124.684 266.383 124.869 266.21C125.089 266.024 125.297 265.839 125.517 265.666C125.713 265.504 125.91 265.342 126.107 265.191C126.327 265.018 126.559 264.844 126.789 264.671C126.986 264.52 127.195 264.37 127.391 264.219C127.623 264.057 127.854 263.884 128.097 263.722C128.305 263.583 128.514 263.433 128.722 263.294C128.965 263.132 129.208 262.981 129.451 262.831C129.66 262.692 129.868 262.565 130.087 262.426C130.342 262.275 130.585 262.125 130.84 261.986C131.059 261.859 131.268 261.732 131.487 261.616C131.742 261.477 132.008 261.338 132.274 261.199C132.495 261.084 132.703 260.968 132.922 260.864C133.188 260.725 133.466 260.598 133.744 260.47C133.964 260.366 134.184 260.262 134.404 260.158C134.693 260.031 134.97 259.915 135.26 259.788C135.468 259.695 135.688 259.603 135.908 259.521C136.208 259.406 136.521 259.29 136.833 259.174C137.042 259.105 137.239 259.024 137.446 258.943C137.794 258.816 138.141 258.711 138.488 258.596C138.662 258.538 138.835 258.48 139.009 258.422C139.541 258.26 140.062 258.11 140.606 257.971H140.617C144.088 258.862 147.375 260.227 150.395 261.975C138.696 268.744 130.817 281.403 130.817 295.89C118.76 295.89 111.91 282.19 118.99 272.516Z" fill="#3080C3"/>
<path d="M150.395 261.974C154.086 264.104 157.384 266.823 160.185 269.993C154.098 276.89 150.395 285.962 150.395 295.89H130.817C130.817 281.403 138.685 268.744 150.395 261.974Z" fill="#1D3666"/>
<path d="M150.395 261.974C154.086 264.104 157.384 266.823 160.185 269.993C154.098 276.89 150.395 285.962 150.395 295.89H130.817C130.817 281.403 138.685 268.744 150.395 261.974Z" fill="#065BAA"/>
<path d="M150.464 295.89H150.395C150.395 285.973 154.086 276.901 160.183 269.993C160.196 270.005 160.207 270.016 160.219 270.028C154.143 276.924 150.464 285.973 150.464 295.878" fill="#1D3666"/>
<path d="M150.464 295.89H150.395C150.395 285.973 154.086 276.901 160.183 269.993C160.196 270.005 160.207 270.016 160.219 270.028C154.143 276.924 150.464 285.973 150.464 295.878" fill="#1D3666"/>
<mask id="mask13_2240_19" style="mask-type:luminance" maskUnits="userSpaceOnUse" x="150" y="269" width="11" height="27">
<g opacity="0.5">
<path d="M160.207 269.993H150.395V295.89H160.207V269.993Z" fill="white"/>
</g>
</mask>
<g mask="url(#mask13_2240_19)">
<path d="M150.464 295.89H150.395C150.395 285.973 154.086 276.901 160.183 269.993C160.196 270.005 160.207 270.016 160.219 270.028C154.143 276.924 150.464 285.973 150.464 295.878" fill="#3080C3"/>
<path d="M150.464 295.89H150.395C150.395 285.973 154.086 276.901 160.183 269.993C160.196 270.005 160.207 270.016 160.219 270.028C154.143 276.924 150.464 285.973 150.464 295.878" fill="#3080C3"/>
</g>
<path d="M189.575 295.89V300.564C189.575 311.36 198.322 320.108 209.119 320.108H194.249C180.874 320.108 170.032 309.266 170.032 295.89H189.575Z" fill="#065BAA"/>
<path d="M130.817 300.576V295.901H150.36C150.36 309.278 139.518 320.12 126.141 320.12H111.272C122.068 320.12 130.817 311.372 130.817 300.576Z" fill="#065BAA"/>
<mask id="mask14_2240_19" style="mask-type:luminance" maskUnits="userSpaceOnUse" x="150" y="295" width="21" height="1">
<g opacity="0.5">
<path d="M150.464 295.901H170.031V295.89L150.464 295.901Z" fill="white"/>
</g>
</mask>
<g mask="url(#mask14_2240_19)">
<path d="M150.652 293.948L150.458 295.894L169.835 297.832L170.03 295.886L150.652 293.948Z" fill="url(#paint2_linear_2240_19)"/>
</g>
<mask id="mask15_2240_19" style="mask-type:luminance" maskUnits="userSpaceOnUse" x="150" y="295" width="21" height="26">
<g opacity="0.5">
<path d="M150.464 295.901C150.464 305.181 154.156 313.663 160.253 320.12C166.34 313.663 170.043 305.193 170.043 295.901H170.031H150.464Z" fill="white"/>
</g>
</mask>
<g mask="url(#mask15_2240_19)">
<path d="M150.459 295.609L150.087 320.114L170.022 320.416L170.395 295.911L150.459 295.609Z" fill="url(#paint3_linear_2240_19)"/>
</g>
<path d="M160.242 269.993C166.329 276.89 170.031 285.962 170.031 295.89H169.962C169.962 285.985 166.27 276.936 160.208 270.04C160.208 270.028 160.23 270.016 160.242 270.005" fill="#1D3666"/>
<path d="M160.242 269.993C166.329 276.89 170.031 285.962 170.031 295.89H169.962C169.962 285.985 166.27 276.936 160.208 270.04C160.208 270.028 160.23 270.016 160.242 270.005" fill="#1D3666"/>
<mask id="mask16_2240_19" style="mask-type:luminance" maskUnits="userSpaceOnUse" x="160" y="269" width="11" height="27">
<g opacity="0.5">
<path d="M170.043 269.993H160.219V295.89H170.043V269.993Z" fill="white"/>
</g>
</mask>
<g mask="url(#mask16_2240_19)">
<path d="M160.243 269.993C166.329 276.89 170.032 285.962 170.032 295.89H169.962C169.962 285.985 166.272 276.936 160.208 270.04C160.208 270.028 160.23 270.016 160.243 270.005" fill="#3080C3"/>
</g>
<mask id="mask17_2240_19" style="mask-type:luminance" maskUnits="userSpaceOnUse" x="160" y="269" width="11" height="27">
<g opacity="0.5">
<path d="M160.219 270.028C166.293 276.924 169.974 285.973 169.974 295.878H170.031C170.031 285.95 166.329 276.89 160.242 269.982C160.242 269.993 160.219 270.005 160.208 270.016" fill="white"/>
</g>
</mask>
<g mask="url(#mask17_2240_19)">
<path d="M166.56 265.298L147.834 279.15L163.688 300.584L182.414 286.732L166.56 265.298Z" fill="url(#paint4_linear_2240_19)"/>
</g>
<path d="M169.974 295.89H150.464C150.464 285.985 154.144 276.936 160.219 270.04C166.293 276.936 169.974 285.985 169.974 295.89Z" fill="#1D3666"/>
<path d="M169.974 295.89H150.464C150.464 285.985 154.144 276.936 160.219 270.04C166.293 276.936 169.974 285.985 169.974 295.89Z" fill="#1D3666"/>
<mask id="mask18_2240_19" style="mask-type:luminance" maskUnits="userSpaceOnUse" x="150" y="270" width="20" height="26">
<g opacity="0.5">
<path d="M169.974 270.028H150.464V295.878H169.974V270.028Z" fill="white"/>
</g>
</mask>
<g mask="url(#mask18_2240_19)">
<path d="M169.974 295.89H150.464C150.464 285.985 154.145 276.936 160.219 270.04C166.293 276.936 169.974 285.985 169.974 295.89Z" fill="#3080C3"/>
<path d="M169.974 295.89H150.464C150.464 285.985 154.145 276.936 160.219 270.04C166.293 276.936 169.974 285.985 169.974 295.89Z" fill="#3080C3"/>
</g>
<mask id="mask19_2240_19" style="mask-type:luminance" maskUnits="userSpaceOnUse" x="150" y="270" width="20" height="26">
<g opacity="0.5">
<path d="M150.464 295.89H169.974C169.974 285.985 166.282 276.936 160.219 270.04C154.144 276.936 150.464 285.985 150.464 295.89Z" fill="white"/>
</g>
</mask>
<g mask="url(#mask19_2240_19)">
<path d="M150.462 269.726L150.065 295.874L169.966 296.176L170.362 270.028L150.462 269.726Z" fill="url(#paint5_linear_2240_19)"/>
</g>
<mask id="mask20_2240_19" style="mask-type:luminance" maskUnits="userSpaceOnUse" x="160" y="257" width="11" height="5">
<g opacity="0.5">
<path d="M170.008 257.971H160.219V261.975H170.008V257.971Z" fill="white"/>
</g>
</mask>
<g mask="url(#mask20_2240_19)">
<path d="M160.219 257.971C160.219 257.971 160.242 257.971 160.253 257.971C163.713 258.862 166.988 260.216 170.008 261.963C170.008 261.963 169.985 261.975 169.973 261.986C166.953 260.239 163.679 258.885 160.219 257.982" fill="#3080C3"/>
</g>
<mask id="mask21_2240_19" style="mask-type:luminance" maskUnits="userSpaceOnUse" x="160" y="257" width="11" height="5">
<g opacity="0.5">
<path d="M160.253 257.971C160.253 257.971 160.23 257.971 160.219 257.971C163.679 258.873 166.953 260.227 169.973 261.974C169.985 261.974 169.996 261.963 170.008 261.951C166.988 260.204 163.713 258.862 160.253 257.959V257.971Z" fill="white"/>
</g>
</mask>
<g mask="url(#mask21_2240_19)">
<path d="M170.008 257.971H160.219V261.974H170.008V257.971Z" fill="url(#paint6_linear_2240_19)"/>
</g>
<path d="M170.007 261.951C170.007 261.951 170.03 261.963 170.042 261.974C170.03 261.974 170.019 261.986 170.007 261.997C169.996 261.997 169.985 261.986 169.973 261.974C169.985 261.974 169.996 261.963 170.007 261.951Z" fill="#1D3666"/>
<mask id="mask22_2240_19" style="mask-type:luminance" maskUnits="userSpaceOnUse" x="169" y="261" width="2" height="1">
<g opacity="0.5">
<path d="M170.042 261.951H169.973V261.986H170.042V261.951Z" fill="white"/>
</g>
</mask>
<g mask="url(#mask22_2240_19)">
<path d="M170.007 261.951C170.007 261.951 170.03 261.963 170.042 261.974C170.03 261.974 170.019 261.986 170.007 261.997C169.996 261.997 169.985 261.986 169.973 261.974C169.985 261.974 169.996 261.963 170.007 261.951Z" fill="#3080C3"/>
</g>
<mask id="mask23_2240_19" style="mask-type:luminance" maskUnits="userSpaceOnUse" x="169" y="261" width="2" height="1">
<g opacity="0.5">
<path d="M169.973 261.974C169.973 261.974 169.996 261.986 170.007 261.997C170.007 261.997 170.03 261.986 170.042 261.974C170.03 261.974 170.019 261.963 170.007 261.951C169.996 261.951 169.985 261.963 169.973 261.974Z" fill="white"/>
</g>
</mask>
<g mask="url(#mask23_2240_19)">
<path d="M170.042 261.951H169.973V261.986H170.042V261.951Z" fill="url(#paint7_linear_2240_19)"/>
</g>
<path d="M160.219 269.958C157.43 266.8 154.132 264.103 150.464 261.974C153.484 260.227 156.759 258.873 160.219 257.982C163.679 258.873 166.954 260.227 169.974 261.974C166.293 264.103 163.007 266.8 160.219 269.958Z" fill="#1D3666"/>
<mask id="mask24_2240_19" style="mask-type:luminance" maskUnits="userSpaceOnUse" x="150" y="257" width="20" height="13">
<g opacity="0.5">
<path d="M169.962 257.971H150.453V269.959H169.962V257.971Z" fill="white"/>
</g>
</mask>
<g mask="url(#mask24_2240_19)">
<path d="M160.218 269.959C157.429 266.8 154.132 264.104 150.464 261.974C153.484 260.227 156.759 258.873 160.218 257.982C163.678 258.873 166.953 260.227 169.973 261.974C166.293 264.104 163.007 266.8 160.218 269.959Z" fill="#3080C3"/>
</g>
<mask id="mask25_2240_19" style="mask-type:luminance" maskUnits="userSpaceOnUse" x="150" y="257" width="20" height="13">
<g opacity="0.5">
<path d="M150.453 261.975C154.132 264.092 157.418 266.8 160.207 269.959C162.996 266.8 166.293 264.104 169.962 261.975C166.942 260.227 163.667 258.873 160.207 257.971C156.748 258.873 153.473 260.227 150.441 261.975" fill="white"/>
</g>
</mask>
<g mask="url(#mask25_2240_19)">
<path d="M169.973 257.971H150.453V269.959H169.973V257.971Z" fill="url(#paint8_linear_2240_19)"/>
</g>
<path d="M160.253 269.993C160.253 269.993 160.23 269.97 160.219 269.959C163.007 266.8 166.306 264.104 169.973 261.974C169.985 261.974 169.996 261.986 170.008 261.998C166.329 264.127 163.042 266.834 160.253 269.993Z" fill="#1D3666"/>
<path d="M160.253 269.993C160.253 269.993 160.23 269.97 160.219 269.959C163.007 266.8 166.306 264.104 169.973 261.974C169.985 261.974 169.996 261.986 170.008 261.998C166.329 264.127 163.042 266.834 160.253 269.993Z" fill="#1D3666"/>
<mask id="mask26_2240_19" style="mask-type:luminance" maskUnits="userSpaceOnUse" x="160" y="261" width="11" height="9">
<g opacity="0.5">
<path d="M170.008 261.974H160.219V269.993H170.008V261.974Z" fill="white"/>
</g>
</mask>
<g mask="url(#mask26_2240_19)">
<path d="M160.253 269.993C160.253 269.993 160.23 269.97 160.219 269.959C163.007 266.8 166.306 264.104 169.973 261.974C169.985 261.974 169.996 261.986 170.008 261.998C166.329 264.127 163.042 266.834 160.253 269.993Z" fill="#3080C3"/>
</g>
<mask id="mask27_2240_19" style="mask-type:luminance" maskUnits="userSpaceOnUse" x="160" y="261" width="11" height="9">
<g opacity="0.5">
<path d="M160.219 269.959C160.219 269.959 160.242 269.982 160.253 269.993C163.042 266.823 166.34 264.127 170.008 261.998C169.996 261.998 169.985 261.986 169.973 261.974C166.293 264.092 163.007 266.8 160.219 269.959Z" fill="white"/>
</g>
</mask>
<g mask="url(#mask27_2240_19)">
<path d="M170.008 261.974H160.219V269.993H170.008V261.974Z" fill="url(#paint9_linear_2240_19)"/>
</g>
<path d="M130.817 295.89H111.272V320.108C122.068 320.108 130.817 311.36 130.817 300.564V295.89Z" fill="#3080C3"/>
<path d="M209.13 320.12V295.901H189.586V300.576C189.586 311.372 198.334 320.12 209.13 320.12Z" fill="#3080C3"/>
</g>
</g>
<g clip-path="url(#clip2_2240_19)">
<g opacity="0.5">
<path d="M1323.94 22.0795C1330.2 22.0795 1335.28 27.1815 1335.28 33.4743C1335.28 39.7672 1330.2 44.8692 1323.94 44.8692C1317.67 44.8692 1312.59 39.7672 1312.59 33.4743C1312.59 27.1815 1317.67 22.0795 1323.94 22.0795Z" fill="#065BAA"/>
<path d="M1226.34 21.9812C1232.61 21.9812 1237.69 27.0832 1237.69 33.3761C1237.69 39.6689 1232.61 44.7709 1226.34 44.7709C1220.08 44.7709 1215 39.6798 1215 33.3761C1215 27.0723 1220.08 21.9812 1226.34 21.9812Z" fill="#065BAA"/>
<path d="M1230.65 66.7629H1252.77C1252.77 66.7629 1252.62 64.2174 1253.65 60.612C1256.31 51.3258 1264.81 44.5305 1274.9 44.5086C1263.68 44.4976 1253.46 40.2915 1245.66 33.3868C1236.46 41.5479 1230.64 53.4671 1230.64 66.7738" fill="#3080C3"/>
<path d="M1275.86 22.2323C1275.56 22.2323 1275.25 22.2107 1274.95 22.2107V22.2539C1275.25 22.2539 1275.56 22.2539 1275.86 22.2323Z" fill="#1D3666"/>
<path d="M1304.26 33.3649C1296.66 40.1056 1286.74 44.2681 1275.86 44.4866C1285.61 44.8799 1293.73 51.5988 1296.28 60.6666C1297.28 64.2062 1297.19 66.719 1297.19 66.719H1319.26C1319.26 53.4342 1313.45 41.5149 1304.27 33.3649" fill="#3080C3"/>
<path d="M1253.65 6.15079C1252.62 2.54553 1252.77 0 1252.77 0H1230.65C1230.65 13.2958 1236.47 25.2259 1245.67 33.3869C1253.47 26.4823 1263.69 22.2761 1274.91 22.2653C1264.82 22.2434 1256.32 15.448 1253.67 6.16172" fill="#3080C3"/>
<mask id="mask28_2240_19" style="mask-type:luminance" maskUnits="userSpaceOnUse" x="1245" y="22" width="30" height="23">
<g opacity="0.5">
<path d="M1245.66 33.376C1253.46 40.2916 1263.68 44.4868 1274.9 44.4977H1274.95V22.2434C1274.95 22.2434 1274.92 22.2434 1274.9 22.2434C1263.68 22.2544 1253.46 26.4605 1245.66 33.365" fill="white"/>
</g>
</mask>
<g mask="url(#mask28_2240_19)">
<path d="M1271.35 12.5975L1238.39 24.9902L1249.26 54.1611L1282.22 41.7685L1271.35 12.5975Z" fill="url(#paint10_linear_2240_19)"/>
</g>
<path d="M1319.25 0H1297.55C1297.55 0 1297.26 2.50183 1296.27 6.05247C1293.72 15.1203 1285.6 21.8391 1275.85 22.2324C1286.74 22.4509 1296.65 26.6134 1304.25 33.3542C1313.45 25.2041 1319.25 13.2848 1319.25 0Z" fill="#3080C3"/>
<path d="M1274.95 44.508C1275.25 44.508 1275.56 44.4972 1275.86 44.4864C1275.56 44.4756 1275.25 44.4648 1274.95 44.4648V44.508Z" fill="#1D3666"/>
<path d="M1275.86 22.2325C1275.56 22.2435 1275.25 22.2544 1274.95 22.2544V44.465C1275.25 44.465 1275.56 44.465 1275.86 44.4869C1286.75 44.2684 1296.66 40.1059 1304.26 33.3651C1296.66 26.6245 1286.74 22.462 1275.86 22.2435" fill="#1D3766"/>
<path d="M1274.95 50.2333C1265.86 50.2333 1258.49 57.6295 1258.49 66.7629H1291.41C1291.41 57.6295 1284.04 50.2333 1274.95 50.2333Z" fill="#065BAA"/>
<path d="M1274.95 16.7043C1284.04 16.7043 1291.41 9.30814 1291.41 0.174805H1258.49C1258.49 9.30814 1265.86 16.7043 1274.95 16.7043Z" fill="#065BAA"/>
<path d="M1274.95 82.7136C1284.04 82.7136 1291.41 75.3174 1291.41 66.1841H1258.49C1258.49 75.3174 1265.86 82.7136 1274.95 82.7136Z" fill="#065BAA"/>
</g>
<mask id="mask29_2240_19" style="mask-type:luminance" maskUnits="userSpaceOnUse" x="1346" y="61" width="36" height="20">
<path d="M1346.37 61.0135C1347.2 71.9352 1356.35 80.5664 1367.51 80.5664C1372.96 80.5664 1377.93 78.5087 1381.69 75.1288C1379.31 72.4193 1377.53 69.1699 1376.57 65.5945C1374.59 68.4809 1371.26 70.371 1367.51 70.371C1361.99 70.371 1357.42 66.2928 1356.64 61.0135H1346.37Z" fill="white"/>
</mask>
<g mask="url(#mask29_2240_19)">
<path d="M1349.44 51.0768L1340.84 78.8691L1378.62 90.5085L1387.22 62.7161L1349.44 51.0768Z" fill="url(#paint11_linear_2240_19)"/>
</g>
<mask id="mask30_2240_19" style="mask-type:luminance" maskUnits="userSpaceOnUse" x="1346" y="3" width="75" height="78">
<path d="M1351.39 3.2395C1348.57 3.2395 1346.28 5.52067 1346.28 8.34186V40.5296H1356.63C1357.41 35.2503 1361.98 31.1907 1367.46 31.1815C1373.53 31.1628 1378.48 36.2931 1378.48 42.3452V59.0582C1378.48 70.762 1387.87 80.4918 1399.59 80.5384C1405.48 80.5663 1410.82 78.1921 1414.68 74.328C1418.52 70.5012 1420.9 65.2127 1420.9 59.3748V41.563C1420.9 40.455 1420.8 39.3564 1420.59 38.267V38.2484C1418.69 28.5 1410.09 21.1071 1399.76 21.1071C1394.31 21.1071 1389.33 23.1648 1385.57 26.5446C1387.95 29.2447 1389.74 32.4942 1390.7 36.079C1392.68 33.1926 1396 31.3025 1399.76 31.3025C1404.36 31.3025 1408.32 34.133 1409.98 38.1367C1410.46 39.3098 1410.68 40.5761 1410.68 41.8517V59.1885C1410.68 65.2499 1405.83 70.3151 1399.76 70.3523C1398.85 70.3523 1397.98 70.2592 1397.14 70.0543C1396.31 69.8588 1395.53 69.5702 1394.8 69.2071C1393.41 68.5181 1392.19 67.5497 1391.21 66.3672C1389.64 64.4678 1388.7 62.0377 1388.7 59.3934V42.1589C1388.7 38.4067 1387.72 34.8779 1385.99 31.8053C1385.97 31.768 1385.95 31.7215 1385.92 31.6842C1382.26 25.3063 1375.38 20.9954 1367.5 20.9954C1363.48 20.9954 1359.72 22.1219 1356.52 24.0586V13.4535H1380.86V3.25813H1351.4L1351.39 3.2395Z" fill="white"/>
</mask>
<g mask="url(#mask30_2240_19)">
<path d="M1352.78 -17.7393L1324.44 73.8402L1414.41 101.561L1442.75 9.98168L1352.78 -17.7393Z" fill="url(#paint12_linear_2240_19)"/>
</g>
<path d="M1399.76 62.857L1396.37 60.911V59.9893L1400.64 62.4473H1402.87V63.2667H1400.64L1396.37 65.7247V64.803L1399.76 62.857Z" fill="#CEBA8C"/>
<path d="M1396.37 54.3562H1397.17V58.183H1399.17V54.6542H1399.95V58.183H1402.08V54.3562H1402.87V59.0023H1396.37V54.3562Z" fill="#CEBA8C"/>
<path d="M1396.37 51.2927V50.3058L1402.87 47.8757V48.7602L1401.11 49.4027V52.1773L1402.87 52.8198V53.7043L1396.37 51.3021V51.2927ZM1400.33 49.682L1397.34 50.7806L1400.33 51.8887V49.6913V49.682Z" fill="#CEBA8C"/>
<path d="M1396.37 46.8515V44.1141C1396.37 43.36 1396.54 42.792 1396.87 42.4102C1397.21 42.0284 1397.68 41.8423 1398.27 41.8423C1398.64 41.8423 1398.97 41.954 1399.24 42.1868C1399.52 42.4102 1399.72 42.7362 1399.86 43.1458C1399.96 42.7641 1400.09 42.4754 1400.27 42.2985C1400.45 42.1216 1400.69 42.0284 1401 42.0284H1402.12C1402.52 42.0284 1402.77 42.0099 1402.88 41.9726V42.7827C1402.74 42.8292 1402.49 42.8479 1402.12 42.8479H1400.95C1400.7 42.8479 1400.5 42.9503 1400.37 43.1458C1400.24 43.3413 1400.18 43.6672 1400.18 44.1141V46.0322H1402.88V46.8515H1396.38H1396.37ZM1398.27 42.6895C1397.54 42.6895 1397.16 43.1644 1397.16 44.1141V46.0322H1399.38V44.1141C1399.38 43.1644 1399 42.6895 1398.27 42.6895H1398.27Z" fill="#CEBA8C"/>
<path d="M1399.9 36.3116C1400.21 35.9951 1400.6 35.8368 1401.06 35.8368C1401.66 35.8368 1402.14 36.0509 1402.46 36.4886C1402.8 36.9262 1402.97 37.55 1402.97 38.3694C1402.97 39.1887 1402.75 39.766 1402.33 40.2222C1401.91 40.6784 1401.33 40.9112 1400.59 40.9112V40.064C1401.08 40.064 1401.48 39.9056 1401.76 39.5984C1402.04 39.2912 1402.17 38.8629 1402.17 38.3135C1402.17 37.8014 1402.07 37.4104 1401.88 37.1217C1401.68 36.8331 1401.4 36.6934 1401.04 36.6934C1400.78 36.6934 1400.57 36.7958 1400.39 37.0007C1400.22 37.2055 1400.11 37.4942 1400.07 37.8666L1399.92 39.0119C1399.84 39.5705 1399.67 40.0081 1399.37 40.3246C1399.07 40.6412 1398.69 40.7902 1398.21 40.7902C1397.59 40.7902 1397.12 40.5853 1396.78 40.1849C1396.45 39.7846 1396.27 39.2166 1396.27 38.4904C1396.27 37.6897 1396.47 37.0565 1396.89 36.6003C1397.3 36.144 1397.88 35.9113 1398.62 35.9113V36.7586C1398.13 36.7586 1397.74 36.9075 1397.47 37.1962C1397.2 37.4848 1397.06 37.8758 1397.06 38.3787C1397.06 38.8814 1397.16 39.2725 1397.36 39.5425C1397.56 39.8218 1397.84 39.9615 1398.19 39.9615C1398.7 39.9615 1399.01 39.5984 1399.12 38.8629L1399.31 37.6338C1399.39 37.0751 1399.59 36.6469 1399.91 36.321L1399.9 36.3116Z" fill="#CEBA8C"/>
</g>
</g>
<defs>
<linearGradient id="paint0_linear_2240_19" x1="-20.1262" y1="175.787" x2="57.0361" y2="267.673" gradientUnits="userSpaceOnUse">
<stop stop-color="#79653F"/>
<stop offset="0.41" stop-color="#79653F"/>
<stop offset="0.51" stop-color="#87734C"/>
<stop offset="0.71" stop-color="#AD996E"/>
<stop offset="0.98" stop-color="#EAD5A6"/>
<stop offset="1" stop-color="#F0DBAB"/>
</linearGradient>
<linearGradient id="paint1_linear_2240_19" x1="-18.263" y1="174.184" x2="58.8993" y2="266.07" gradientUnits="userSpaceOnUse">
<stop stop-color="#79653F"/>
<stop offset="0.41" stop-color="#79653F"/>
<stop offset="0.51" stop-color="#87734C"/>
<stop offset="0.71" stop-color="#AD996E"/>
<stop offset="0.98" stop-color="#EAD5A6"/>
<stop offset="1" stop-color="#F0DBAB"/>
</linearGradient>
<linearGradient id="paint2_linear_2240_19" x1="166.516" y1="275.622" x2="162.722" y2="313.568" gradientUnits="userSpaceOnUse">
<stop stop-color="#7D6438"/>
<stop offset="0.21" stop-color="#7D6438"/>
<stop offset="0.35" stop-color="#8B7244"/>
<stop offset="0.6" stop-color="#B19766"/>
<stop offset="0.95" stop-color="#EED29D"/>
<stop offset="1" stop-color="#F7DBA5"/>
</linearGradient>
<linearGradient id="paint3_linear_2240_19" x1="161.362" y1="233.745" x2="160.013" y2="322.642" gradientUnits="userSpaceOnUse">
<stop stop-color="#7D6438"/>
<stop offset="0.21" stop-color="#7D6438"/>
<stop offset="0.35" stop-color="#8B7244"/>
<stop offset="0.6" stop-color="#B19766"/>
<stop offset="0.95" stop-color="#EED29D"/>
<stop offset="1" stop-color="#F7DBA5"/>
</linearGradient>
<linearGradient id="paint4_linear_2240_19" x1="168.8" y1="277.164" x2="147.38" y2="293.008" gradientUnits="userSpaceOnUse">
<stop stop-color="#7D6438"/>
<stop offset="0.21" stop-color="#7D6438"/>
<stop offset="0.35" stop-color="#8B7244"/>
<stop offset="0.6" stop-color="#B19766"/>
<stop offset="0.95" stop-color="#EED29D"/>
<stop offset="1" stop-color="#F7DBA5"/>
</linearGradient>
<linearGradient id="paint5_linear_2240_19" x1="160.535" y1="233.61" x2="159.185" y2="322.507" gradientUnits="userSpaceOnUse">
<stop stop-color="#7D6438"/>
<stop offset="0.21" stop-color="#7D6438"/>
<stop offset="0.35" stop-color="#8B7244"/>
<stop offset="0.6" stop-color="#B19766"/>
<stop offset="0.95" stop-color="#EED29D"/>
<stop offset="1" stop-color="#F7DBA5"/>
</linearGradient>
<linearGradient id="paint6_linear_2240_19" x1="165.291" y1="252.975" x2="165.291" y2="268.891" gradientUnits="userSpaceOnUse">
<stop stop-color="#7D6438"/>
<stop offset="0.24" stop-color="#7D6438"/>
<stop offset="0.34" stop-color="#8B7244"/>
<stop offset="0.55" stop-color="#B19766"/>
<stop offset="0.84" stop-color="#EED29D"/>
<stop offset="0.88" stop-color="#F7DBA5"/>
<stop offset="1" stop-color="#F7DBA5"/>
</linearGradient>
<linearGradient id="paint7_linear_2240_19" x1="170.144" y1="253.104" x2="170.144" y2="268.792" gradientUnits="userSpaceOnUse">
<stop stop-color="#7D6438"/>
<stop offset="0.24" stop-color="#7D6438"/>
<stop offset="0.34" stop-color="#8B7244"/>
<stop offset="0.55" stop-color="#B19766"/>
<stop offset="0.84" stop-color="#EED29D"/>
<stop offset="0.88" stop-color="#F7DBA5"/>
<stop offset="1" stop-color="#F7DBA5"/>
</linearGradient>
<linearGradient id="paint8_linear_2240_19" x1="160.435" y1="252.976" x2="160.435" y2="268.891" gradientUnits="userSpaceOnUse">
<stop stop-color="#7D6438"/>
<stop offset="0.24" stop-color="#7D6438"/>
<stop offset="0.34" stop-color="#8B7244"/>
<stop offset="0.55" stop-color="#B19766"/>
<stop offset="0.84" stop-color="#EED29D"/>
<stop offset="0.88" stop-color="#F7DBA5"/>
<stop offset="1" stop-color="#F7DBA5"/>
</linearGradient>
<linearGradient id="paint9_linear_2240_19" x1="165.291" y1="252.976" x2="165.291" y2="268.891" gradientUnits="userSpaceOnUse">
<stop stop-color="#7D6438"/>
<stop offset="0.24" stop-color="#7D6438"/>
<stop offset="0.34" stop-color="#8B7244"/>
<stop offset="0.55" stop-color="#B19766"/>
<stop offset="0.84" stop-color="#EED29D"/>
<stop offset="0.88" stop-color="#F7DBA5"/>
<stop offset="1" stop-color="#F7DBA5"/>
</linearGradient>
<linearGradient id="paint10_linear_2240_19" x1="1235.79" y1="44.7762" x2="1285.5" y2="26.2546" gradientUnits="userSpaceOnUse">
<stop stop-color="#79653F"/>
<stop offset="0.4" stop-color="#A69167"/>
<stop offset="1" stop-color="#F2DCAB"/>
</linearGradient>
<linearGradient id="paint11_linear_2240_19" x1="1261.93" y1="40.4809" x2="1392.69" y2="80.9461" gradientUnits="userSpaceOnUse">
<stop stop-color="#79653F"/>
<stop offset="0.21" stop-color="#79653F"/>
<stop offset="0.34" stop-color="#85714A"/>
<stop offset="0.58" stop-color="#A79268"/>
<stop offset="0.89" stop-color="#DEC899"/>
<stop offset="1" stop-color="#F2DCAB"/>
</linearGradient>
<linearGradient id="paint12_linear_2240_19" x1="1272.16" y1="7.40546" x2="1402.92" y2="47.8707" gradientUnits="userSpaceOnUse">
<stop stop-color="#79653F"/>
<stop offset="0.21" stop-color="#79653F"/>
<stop offset="0.34" stop-color="#85714A"/>
<stop offset="0.58" stop-color="#A79268"/>
<stop offset="0.89" stop-color="#DEC899"/>
<stop offset="1" stop-color="#F2DCAB"/>
</linearGradient>
<clipPath id="clip0_2240_19">
<rect width="1425" height="320.94" fill="white"/>
</clipPath>
<clipPath id="clip1_2240_19">
<rect width="210" height="106.04" fill="white" transform="translate(0 214.891)"/>
</clipPath>
<clipPath id="clip2_2240_19">
<rect width="210" height="82.82" fill="white" transform="translate(1215)"/>
</clipPath>
</defs>
</svg>
