<svg width="134" height="40" viewBox="0 0 134 40" fill="none" xmlns="http://www.w3.org/2000/svg">
<g clip-path="url(#clip0_727_1004)">
<path d="M129 0H5C2.23858 0 0 2.23858 0 5V35C0 37.7614 2.23858 40 5 40H129C131.761 40 134 37.7614 134 35V5C134 2.23858 131.761 0 129 0Z" fill="black"/>
<path d="M129.037 0.8C131.339 0.8 133.206 2.6804 133.206 5V35C133.206 37.3196 131.339 39.2 129.037 39.2H4.96296C2.66055 39.2 0.794074 37.3196 0.794074 35V5C0.794074 2.6804 2.66055 0.8 4.96296 0.8H129.037ZM129.037 0H4.96296C2.22199 0 0 2.23858 0 5V35C0 37.7614 2.22199 40 4.96296 40H129.037C131.778 40 134 37.7614 134 35V5C134 2.23858 131.778 0 129.037 0Z" fill="#A6A6A6"/>
<path d="M67.6354 21.7501C65.3082 21.7612 63.4294 23.6688 63.4367 26.0134C63.444 28.358 65.3346 30.2537 67.6618 30.2501C69.9891 30.2464 71.8737 28.3447 71.8738 26.0001C71.8901 24.8645 71.4482 23.7708 70.6492 22.9696C69.8501 22.1684 68.7625 21.7283 67.6354 21.7501ZM67.6354 28.5801C66.5864 28.654 65.5993 28.0745 65.146 27.1186C64.6927 26.1627 64.8655 25.0248 65.5817 24.2492C66.2979 23.4735 67.4119 23.2178 68.3909 23.6042C69.37 23.9907 70.015 24.9408 70.0176 26.0001C70.0499 26.6628 69.8151 27.3105 69.3666 27.7963C68.9181 28.2821 68.2938 28.5648 67.6354 28.5801ZM58.3943 21.7501C56.0658 21.7557 54.1821 23.6609 54.1858 26.0068C54.1894 28.3527 56.079 30.252 58.4076 30.2501C60.7361 30.2483 62.6228 28.346 62.6228 26.0001C62.6391 24.8645 62.1972 23.7708 61.3982 22.9696C60.5992 22.1684 59.5115 21.7283 58.3844 21.7501H58.3943ZM58.3943 28.5801C57.3449 28.6582 56.3548 28.0815 55.8983 27.1262C55.4419 26.171 55.6119 25.0316 56.3271 24.2538C57.0422 23.4761 58.1569 23.2182 59.1372 23.6038C60.1174 23.9894 60.7638 24.9399 60.7666 26.0001C60.7989 26.6628 60.5642 27.3105 60.1156 27.7963C59.6671 28.2821 59.0428 28.5648 58.3844 28.5801H58.3943ZM47.3865 23.0601V24.8601H51.6745C51.6073 25.7079 51.2575 26.5079 50.6819 27.1301C49.8144 28.0204 48.6139 28.4998 47.3766 28.4501C44.7452 28.4501 42.6121 26.3011 42.6121 23.6501C42.6121 20.9992 44.7452 18.8501 47.3766 18.8501C48.5853 18.8303 49.7526 19.2942 50.6223 20.1401L51.8829 18.8701C50.6967 17.66 49.0746 16.9854 47.3865 17.0001C44.9834 16.9059 42.7217 18.1438 41.4923 20.2262C40.263 22.3086 40.263 24.9017 41.4923 26.9841C42.7217 29.0665 44.9834 30.3044 47.3865 30.2101C49.1054 30.2884 50.774 29.6138 51.9623 28.3601C53.0023 27.2091 53.5575 25.6959 53.5108 24.1401C53.514 23.7611 53.4808 23.3827 53.4115 23.0101L47.3865 23.0601ZM92.3609 24.4601C91.8309 22.8893 90.3935 21.8112 88.7478 21.7501C87.6504 21.748 86.601 22.2035 85.8488 23.0087C85.0967 23.8138 84.7089 24.8967 84.7775 26.0001C84.7531 27.1294 85.1856 28.2202 85.9756 29.0217C86.7656 29.8233 87.8451 30.2667 88.9662 30.2501C90.3765 30.2578 91.6965 29.5516 92.48 28.3701L91.0407 27.3701C90.6037 28.1041 89.8157 28.5523 88.9662 28.5501C88.0864 28.5839 87.2755 28.0723 86.9215 27.2601L92.5693 24.9101L92.3609 24.4601ZM86.6038 25.8801C86.5632 25.2553 86.7739 24.6403 87.1884 24.1737C87.603 23.7072 88.1865 23.4284 88.8074 23.4001C89.4619 23.3567 90.079 23.7108 90.3757 24.3001L86.6038 25.8801ZM82.018 30.0001H83.8742V17.5001H82.018V30.0001ZM78.9807 22.7001H78.9112C78.3454 22.0628 77.5366 21.699 76.6878 21.7001C74.4348 21.8102 72.6642 23.6826 72.6642 25.9551C72.6642 28.2277 74.4348 30.1001 76.6878 30.2101C77.5393 30.2246 78.3534 29.8584 78.9112 29.2101H78.9708V29.8201C78.9708 31.4501 78.1072 32.3201 76.7176 32.3201C75.771 32.2978 74.9317 31.7012 74.5935 30.8101L72.9755 31.4901C73.5986 33.0169 75.0791 34.01 76.7176 34.0002C78.8914 34.0002 80.688 32.7101 80.688 29.5701V22.0001H78.9807V22.7001ZM76.8566 28.5801C75.5294 28.4623 74.5114 27.3424 74.5114 26.0001C74.5114 24.6578 75.5294 23.538 76.8566 23.4201C77.4979 23.4533 78.0988 23.7459 78.523 24.2316C78.9472 24.7174 79.1588 25.3551 79.1098 26.0001C79.1645 26.6482 78.9536 27.2906 78.5261 27.7779C78.0986 28.2653 77.4917 28.5552 76.8466 28.5801H76.8566ZM101.056 17.5001H96.6191V30.0001H98.4752V25.2601H101.066C102.508 25.3645 103.887 24.6486 104.639 23.4051C105.392 22.1616 105.392 20.5987 104.639 19.3552C103.887 18.1116 102.508 17.3958 101.066 17.5001H101.056ZM101.056 23.5001H98.4653V19.2401H101.096C102.272 19.2401 103.225 20.2005 103.225 21.3851C103.225 22.5698 102.272 23.5301 101.096 23.5301L101.056 23.5001ZM112.501 21.7001C111.12 21.617 109.821 22.3672 109.195 23.6101L110.843 24.3001C111.175 23.6838 111.837 23.323 112.53 23.3801C113.006 23.3241 113.485 23.4631 113.858 23.7658C114.231 24.0686 114.468 24.5097 114.516 24.9901V25.1201C113.919 24.8021 113.255 24.6373 112.58 24.6401C110.803 24.6401 109.007 25.6401 109.007 27.4501C109.042 28.2298 109.389 28.962 109.969 29.4799C110.548 29.9979 111.311 30.2577 112.084 30.2001C113.036 30.269 113.949 29.8089 114.466 29.0001H114.525V30.0001H116.312V25.1901C116.312 23.0001 114.664 21.7301 112.55 21.7301L112.501 21.7001ZM112.272 28.5501C111.667 28.5501 110.823 28.2401 110.823 27.4901C110.823 26.4901 111.875 26.1601 112.808 26.1601C113.398 26.1455 113.981 26.2905 114.496 26.5801C114.367 27.6996 113.44 28.5527 112.322 28.5801L112.272 28.5501ZM122.824 22.0001L120.699 27.4201H120.64L118.436 22.0001H116.451L119.756 29.5801L117.87 33.7901H119.806L124.888 22.0001H122.824ZM106.138 30.0001H107.994V17.5001H106.138V30.0001Z" fill="white"/>
<path d="M47.0685 10.24C47.1026 10.9812 46.8335 11.7041 46.3241 12.24C45.7548 12.8358 44.9607 13.1594 44.1404 13.13C42.8821 13.12 41.7523 12.3512 41.2735 11.1789C40.7946 10.0066 41.0599 8.65929 41.9467 7.75997C42.523 7.1673 43.3171 6.84149 44.1404 6.85997C44.56 6.85856 44.9755 6.94364 45.3613 7.10997C45.7204 7.25592 46.0402 7.48553 46.2943 7.77997L45.7682 8.30997C45.3666 7.82865 44.7636 7.56566 44.1404 7.59997C43.5139 7.59687 42.9132 7.85106 42.4768 8.30391C42.0404 8.75676 41.806 9.36919 41.8276 9.99997C41.8143 10.9532 42.3716 11.8208 43.24 12.1992C44.1085 12.5776 45.1177 12.3925 45.798 11.73C46.1034 11.3965 46.2796 10.9635 46.2943 10.51H44.1404V9.78997H47.0288C47.0553 9.93848 47.0686 10.0891 47.0685 10.24ZM51.6146 7.73997H48.9346V9.63997H51.3764V10.36H48.9346V12.26H51.6146V13H48.1405V6.99997H51.6146V7.73997ZM54.8703 13H54.106V7.73997H52.4384V6.99997H56.5776V7.73997H54.8703V13ZM59.4958 13V6.99997H60.2601V13H59.4958ZM63.6547 13H62.8904V7.73997H61.2229V6.99997H65.3124V7.73997H63.6547V13ZM73.0645 12.22C71.8565 13.4302 69.9051 13.4302 68.6971 12.22C67.5261 10.9712 67.5261 9.01874 68.6971 7.76997C69.2748 7.18372 70.0609 6.854 70.8808 6.854C71.7008 6.854 72.4868 7.18372 73.0645 7.76997C74.2405 9.01673 74.2405 10.9732 73.0645 12.22ZM69.2629 11.72C70.1575 12.6175 71.6041 12.6175 72.4987 11.72C73.3774 10.7441 73.3774 9.2558 72.4987 8.27997C71.6041 7.38241 70.1575 7.38241 69.2629 8.27997C68.3842 9.2558 68.3842 10.7441 69.2629 11.72ZM75.0199 13V6.99997H75.953L78.8513 11.67V6.99997H79.6156V13H78.8216L75.7941 8.10997V13H75.0199Z" fill="white" stroke="white" stroke-width="0.2"/>
<path d="M10.3625 7.54021C10.039 7.93132 9.87568 8.43201 9.9059 8.94021V31.0602C9.87568 31.5684 10.039 32.0691 10.3625 32.4602L10.432 32.5302L22.7302 20.1502V19.8602L10.432 7.47021L10.3625 7.54021Z" fill="url(#paint0_linear_727_1004)"/>
<path d="M26.7996 24.2802L22.73 20.1502V19.8602L26.7996 15.7202L26.8889 15.7702L31.7626 18.5602C33.1522 19.3502 33.1522 20.6502 31.7626 21.4502L26.9088 24.2302L26.7996 24.2802Z" fill="url(#paint1_linear_727_1004)"/>
<path d="M26.9188 24.22L22.73 20L10.3623 32.46C10.9467 32.9775 11.8139 33.0027 12.4269 32.52L26.9287 24.22" fill="url(#paint2_linear_727_1004)"/>
<path d="M26.9189 15.7801L12.4171 7.48005C11.8041 6.99732 10.9369 7.02253 10.3525 7.54005L22.7302 20.0001L26.9189 15.7801Z" fill="url(#paint3_linear_727_1004)"/>
<path opacity="0.2" d="M26.7996 24.1299L12.417 32.3799C11.8284 32.8232 11.0204 32.8232 10.4318 32.3799L10.3623 32.4499L10.4318 32.5199C11.0192 32.9666 11.8295 32.9666 12.417 32.5199L26.9188 24.2199L26.7996 24.1299Z" fill="black"/>
<path opacity="0.12" d="M10.3625 32.32C10.039 31.9289 9.87568 31.4282 9.9059 30.92V31.07C9.87568 31.5782 10.039 32.0789 10.3625 32.47L10.432 32.4L10.3625 32.32ZM31.7628 21.3L26.7998 24.13L26.8892 24.22L31.7628 21.44C32.3257 21.1736 32.7042 20.6244 32.7554 20C32.6423 20.5648 32.2757 21.045 31.7628 21.3Z" fill="black"/>
<path opacity="0.25" d="M12.4172 7.61994L31.7628 18.6999C32.2757 18.955 32.6423 19.4351 32.7554 19.9999C32.7043 19.3755 32.3257 18.8263 31.7628 18.5599L12.4172 7.47994C11.0276 6.68994 9.896 7.34994 9.896 8.94994V9.09994C9.92577 7.48994 11.0375 6.82994 12.4172 7.61994Z" fill="white"/>
</g>
<defs>
<linearGradient id="paint0_linear_727_1004" x1="790.748" y1="131.47" x2="-264.819" y2="1194.91" gradientUnits="userSpaceOnUse">
<stop stop-color="#00A0FF"/>
<stop offset="0.01" stop-color="#00A1FF"/>
<stop offset="0.26" stop-color="#00BEFF"/>
<stop offset="0.51" stop-color="#00D2FF"/>
<stop offset="0.76" stop-color="#00DFFF"/>
<stop offset="1" stop-color="#00E3FF"/>
</linearGradient>
<linearGradient id="paint1_linear_727_1004" x1="1107.63" y1="443.72" x2="-1293.45" y2="443.72" gradientUnits="userSpaceOnUse">
<stop stop-color="#FFE000"/>
<stop offset="0.41" stop-color="#FFBD00"/>
<stop offset="0.78" stop-color="#FFA500"/>
<stop offset="1" stop-color="#FF9C00"/>
</linearGradient>
<linearGradient id="paint2_linear_727_1004" x1="1438.7" y1="414.018" x2="-369.019" y2="2234.43" gradientUnits="userSpaceOnUse">
<stop stop-color="#FF3A44"/>
<stop offset="1" stop-color="#C31162"/>
</linearGradient>
<linearGradient id="paint3_linear_727_1004" x1="-300.329" y1="-157.005" x2="506.545" y2="655.89" gradientUnits="userSpaceOnUse">
<stop stop-color="#32A071"/>
<stop offset="0.07" stop-color="#2DA771"/>
<stop offset="0.48" stop-color="#15CF74"/>
<stop offset="0.8" stop-color="#06E775"/>
<stop offset="1" stop-color="#00F076"/>
</linearGradient>
<clipPath id="clip0_727_1004">
<rect width="134" height="40" fill="white"/>
</clipPath>
</defs>
</svg>
