<svg width="32" height="32" viewBox="0 0 32 32" fill="none" xmlns="http://www.w3.org/2000/svg">
<g clip-path="url(#clip0_727_964)">
<path d="M19.1414 16.0729C19.1414 17.7676 17.7676 19.1414 16.0729 19.1414C14.3782 19.1414 13.0044 17.7676 13.0044 16.0729C13.0044 14.3782 14.3782 13.0044 16.0729 13.0044C17.7676 13.0044 19.1414 14.3782 19.1414 16.0729Z" fill="white"/>
<path d="M23.1558 10.5867C23.0087 10.1881 22.7741 9.82736 22.4692 9.53125C22.1731 9.22635 21.8126 8.99171 21.4138 8.84463C21.0903 8.71901 20.6045 8.56949 19.7095 8.52876C18.7414 8.48461 18.4512 8.4751 16.0003 8.4751C13.5492 8.4751 13.259 8.48437 12.2911 8.52851C11.3962 8.56949 10.9101 8.71901 10.5869 8.84463C10.1881 8.99171 9.82736 9.22635 9.53149 9.53125C9.2266 9.82736 8.99195 10.1879 8.84463 10.5867C8.71901 10.9101 8.56949 11.3962 8.52876 12.2911C8.48461 13.259 8.4751 13.5492 8.4751 16.0003C8.4751 18.4512 8.48461 18.7414 8.52876 19.7095C8.56949 20.6045 8.71901 21.0903 8.84463 21.4138C8.99195 21.8126 9.22635 22.1731 9.53125 22.4692C9.82736 22.7741 10.1879 23.0087 10.5867 23.1558C10.9101 23.2817 11.3962 23.4312 12.2911 23.4719C13.259 23.5161 13.549 23.5253 16.0001 23.5253C18.4514 23.5253 18.7417 23.5161 19.7093 23.4719C20.6042 23.4312 21.0903 23.2817 21.4138 23.1558C22.2143 22.847 22.847 22.2143 23.1558 21.4138C23.2814 21.0903 23.4309 20.6045 23.4719 19.7095C23.5161 18.7414 23.5253 18.4512 23.5253 16.0003C23.5253 13.5492 23.5161 13.259 23.4719 12.2911C23.4312 11.3962 23.2817 10.9101 23.1558 10.5867ZM16.0003 20.7135C13.397 20.7135 11.2867 18.6034 11.2867 16.0001C11.2867 13.3968 13.397 11.2867 16.0003 11.2867C18.6034 11.2867 20.7137 13.3968 20.7137 16.0001C20.7137 18.6034 18.6034 20.7135 16.0003 20.7135ZM20.9001 12.2019C20.2918 12.2019 19.7986 11.7087 19.7986 11.1003C19.7986 10.492 20.2918 9.99883 20.9001 9.99883C21.5084 9.99883 22.0016 10.492 22.0016 11.1003C22.0014 11.7087 21.5084 12.2019 20.9001 12.2019Z" fill="white"/>
<path d="M16 0C7.16479 0 0 7.16479 0 16C0 24.8352 7.16479 32 16 32C24.8352 32 32 24.8352 32 16C32 7.16479 24.8352 0 16 0ZM25.1321 19.7878C25.0876 20.7659 24.9321 21.4336 24.7051 22.0181C24.2278 23.2522 23.2522 24.2278 22.0181 24.7051C21.4338 24.9321 20.7659 25.0874 19.7881 25.1321C18.8083 25.1768 18.4954 25.1875 16.0002 25.1875C13.5049 25.1875 13.1921 25.1768 12.2122 25.1321C11.2344 25.0874 10.5664 24.9321 9.98218 24.7051C9.3689 24.4744 8.81372 24.1128 8.35474 23.6453C7.88745 23.1865 7.52588 22.6311 7.29517 22.0181C7.06812 21.4338 6.9126 20.7659 6.86816 19.7881C6.823 18.8081 6.8125 18.4951 6.8125 16C6.8125 13.5049 6.823 13.1919 6.86792 12.2122C6.91235 11.2341 7.06763 10.5664 7.29468 9.98193C7.52539 9.3689 7.88721 8.81348 8.35474 8.35474C8.81348 7.88721 9.3689 7.52563 9.98193 7.29492C10.5664 7.06787 11.2341 6.9126 12.2122 6.86792C13.1919 6.82324 13.5049 6.8125 16 6.8125C18.4951 6.8125 18.8081 6.82324 19.7878 6.86816C20.7659 6.9126 21.4336 7.06787 22.0181 7.29468C22.6311 7.52539 23.1865 7.88721 23.6455 8.35474C24.1128 8.81372 24.4746 9.3689 24.7051 9.98193C24.9324 10.5664 25.0876 11.2341 25.1323 12.2122C25.177 13.1919 25.1875 13.5049 25.1875 16C25.1875 18.4951 25.177 18.8081 25.1321 19.7878Z" fill="white"/>
</g>
<defs>
<clipPath id="clip0_727_964">
<rect width="32" height="32" fill="white"/>
</clipPath>
</defs>
</svg>
