<svg width="32" height="32" viewBox="0 0 32 32" fill="none" xmlns="http://www.w3.org/2000/svg">
<g clip-path="url(#clip0_727_981)">
<path d="M16.2001 14.6001L11.6001 8.1001H9.1001L14.8001 16.1001L15.5001 17.1001L20.4001 23.9001H22.9001L16.9001 15.6001L16.2001 14.6001Z" fill="white"/>
<path d="M16.0002 0.200195C7.3002 0.200195 0.200195 7.3002 0.200195 16.0002C0.200195 24.7002 7.3002 31.8002 16.0002 31.8002C24.7002 31.8002 31.8002 24.7002 31.8002 16.0002C31.8002 7.3002 24.7002 0.200195 16.0002 0.200195ZM19.7002 25.0002L14.8002 18.0002L8.6002 25.0002H7.0002L14.1002 17.0002L7.0002 7.0002H12.4002L17.1002 13.6002L23.0002 7.0002H24.6002L17.9002 14.7002L25.2002 25.1002H19.7002V25.0002Z" fill="white"/>
</g>
<defs>
<clipPath id="clip0_727_981">
<rect width="32" height="32" fill="white"/>
</clipPath>
</defs>
</svg>
