<svg width="32" height="32" viewBox="0 0 32 32" fill="none" xmlns="http://www.w3.org/2000/svg">
<g clip-path="url(#clip0_727_984)">
<path d="M16.2999 7.8999C11.8999 7.8999 8.3999 11.4999 8.3999 15.7999C8.3999 17.2999 8.7999 18.7999 9.5999 19.9999L9.7999 20.2999L8.9999 23.1999L11.9999 22.3999L12.2999 22.5999C13.4999 23.2999 14.8999 23.6999 16.2999 23.6999C20.6999 23.6999 24.1999 20.0999 24.1999 15.7999C24.1999 13.6999 23.3999 11.6999 21.8999 10.1999C20.3999 8.6999 18.3999 7.8999 16.2999 7.8999ZM20.9999 19.1999C20.7999 19.7999 19.7999 20.2999 19.3999 20.2999H17.8999C17.5999 20.1999 17.0999 19.9999 16.4999 19.7999C14.0999 18.7999 12.5999 16.3999 12.3999 16.1999C12.2999 15.9999 11.3999 14.8999 11.3999 13.6999C11.3999 12.4999 11.9999 11.9999 12.1999 11.6999C12.3999 11.4999 12.6999 11.3999 12.7999 11.3999H13.2999C13.3999 11.3999 13.5999 11.3999 13.7999 11.7999C13.9999 12.2999 14.4999 13.3999 14.4999 13.5999V13.9999C14.4999 14.1999 14.3999 14.2999 14.2999 14.3999L13.8999 14.7999C13.7999 14.8999 13.6999 14.9999 13.7999 15.2999C13.8999 15.4999 14.3999 16.2999 15.0999 16.9999C15.9999 17.7999 16.7999 18.0999 16.9999 18.1999C17.1999 18.2999 17.3999 18.1999 17.4999 18.1999C17.5999 17.9999 18.0999 17.4999 18.2999 17.2999C18.4999 17.0999 18.5999 17.0999 18.7999 17.1999C18.9999 17.1999 20.1999 17.8999 20.3999 17.9999C20.5999 18.0999 20.7999 18.1999 20.8999 18.2999C20.8999 18.2999 20.8999 18.8999 20.7999 19.3999L20.9999 19.1999Z" fill="white"/>
<path d="M16 0.299805C7.2 0.299805 0 7.39981 0 16.1998C0 24.9998 7.1 32.0998 15.9 32.0998C24.7 32.0998 31.8 24.9998 31.8 16.1998C31.8 7.39981 24.7 0.299805 16 0.299805ZM16.3 25.3998C14.7 25.3998 13.1 24.9998 11.7 24.1998L6.6 25.4998L8 20.5998C7.2 19.1998 6.7 17.4998 6.7 15.7998C6.7 10.4998 11 6.2998 16.2 6.2998C18.7 6.2998 21.1 7.2998 22.9 9.0998C24.7 10.8998 25.7 13.2998 25.7 15.7998C25.7 21.0998 21.4 25.2998 16.2 25.2998L16.3 25.3998Z" fill="white"/>
</g>
<defs>
<clipPath id="clip0_727_984">
<rect width="32" height="32" fill="white"/>
</clipPath>
</defs>
</svg>
