<svg width="46" height="54" viewBox="0 0 46 54" fill="none" xmlns="http://www.w3.org/2000/svg">
<path d="M34.8407 35.5186C33.0518 33.7297 30.411 33.389 29.0481 34.8371L25.2999 39.0112C19.1666 36.1149 14.1407 31.1742 11.2444 24.9557L15.4185 21.2075C16.8666 19.9297 16.611 17.289 14.737 15.4149L9.54067 10.2186C7.58142 8.25936 4.59993 8.17417 3.57771 10.0482C1.61845 13.4557 0.851785 17.8001 1.53327 22.6557C3.32216 34.9223 14.4814 46.4223 26.8333 48.7223C32.0296 49.6594 36.7148 48.8927 40.3777 46.8482C42.337 45.7408 42.1666 42.7594 40.1222 40.8001L34.8407 35.5186Z" stroke="#0662AD" stroke-width="1.7037" stroke-miterlimit="10" stroke-linecap="round"/>
<path d="M25.9814 16.437C29.9851 16.437 33.137 19.674 33.137 23.5926" stroke="#0662AD" stroke-width="1.7037" stroke-miterlimit="10" stroke-linecap="round"/>
<path d="M25.9814 10.8149C33.0518 10.8149 38.8444 16.5223 38.8444 23.6779" stroke="#0662AD" stroke-width="1.7037" stroke-miterlimit="10" stroke-linecap="round"/>
<path d="M25.9814 4.85205C36.374 4.85205 44.7222 13.2854 44.7222 23.5928" stroke="#0662AD" stroke-width="1.7037" stroke-miterlimit="10" stroke-linecap="round"/>
</svg>
