<svg width="46" height="54" viewBox="0 0 46 54" fill="none" xmlns="http://www.w3.org/2000/svg">
<path d="M23 49.1483C35.232 49.1483 45.1481 39.2323 45.1481 27.0002C45.1481 14.7681 35.232 4.85205 23 4.85205C10.7679 4.85205 0.851807 14.7681 0.851807 27.0002C0.851807 39.2323 10.7679 49.1483 23 49.1483Z" stroke="#0662AD" stroke-width="1.7037" stroke-miterlimit="10" stroke-linecap="round"/>
<path d="M23 49.1483C28.6927 49.1483 33.3074 39.2323 33.3074 27.0002C33.3074 14.7681 28.6927 4.85205 23 4.85205C17.3074 4.85205 12.6926 14.7681 12.6926 27.0002C12.6926 39.2323 17.3074 49.1483 23 49.1483Z" stroke="#0662AD" stroke-width="1.7037" stroke-miterlimit="10" stroke-linecap="round"/>
<path d="M2.04443 19.7593H43.9555" stroke="#0662AD" stroke-width="1.7037" stroke-miterlimit="10" stroke-linecap="round"/>
<path d="M2.12964 34.4111H43.8704" stroke="#0662AD" stroke-width="1.7037" stroke-miterlimit="10" stroke-linecap="round"/>
</svg>
