<svg width="46" height="54" viewBox="0 0 46 54" fill="none" xmlns="http://www.w3.org/2000/svg">
<path d="M0.851807 45.4002V27.6816H45.1481V45.4002" stroke="#0662AD" stroke-width="1.7037" stroke-miterlimit="10" stroke-linecap="round"/>
<path d="M0.851807 34.8369H45.1481" stroke="#0662AD" stroke-width="1.7037" stroke-miterlimit="10" stroke-linecap="round"/>
<path d="M18.0592 22.9111H13.2888V27.6815H18.0592V22.9111Z" stroke="#0662AD" stroke-width="1.7037" stroke-miterlimit="10" stroke-linecap="round"/>
<path fill-rule="evenodd" clip-rule="evenodd" d="M23.8518 22.9112H7.58147C6.21851 22.9112 5.19629 21.8038 5.19629 20.526V10.9853C5.19629 9.62232 6.3037 8.6001 7.58147 8.6001H23.8518C25.2148 8.6001 26.237 9.7075 26.237 10.9853V20.4408C26.3222 21.8038 25.2148 22.9112 23.8518 22.9112Z" stroke="#0662AD" stroke-width="1.7037" stroke-miterlimit="10" stroke-linecap="round"/>
<path d="M28.3667 27.6815V23.8481C28.3667 22.1444 29.8148 20.6963 31.5186 20.6963H39.3556C41.0593 20.6963 42.5074 22.1444 42.5074 23.8481V27.6815" stroke="#0662AD" stroke-width="1.7037" stroke-miterlimit="10" stroke-linecap="round"/>
<path d="M35.4371 19.7595C38.1187 19.7595 40.2927 17.5855 40.2927 14.9039C40.2927 12.2222 38.1187 10.0483 35.4371 10.0483C32.7554 10.0483 30.5815 12.2222 30.5815 14.9039C30.5815 17.5855 32.7554 19.7595 35.4371 19.7595Z" stroke="#0662AD" stroke-width="1.7037" stroke-miterlimit="10" stroke-linecap="round"/>
<path d="M35.437 27.6814V23.5073" stroke="#0662AD" stroke-width="1.7037" stroke-miterlimit="10" stroke-linecap="round"/>
<path d="M38.3334 20.6963L35.4371 23.5074L32.626 20.6963" stroke="#0662AD" stroke-width="1.7037" stroke-miterlimit="10" stroke-linecap="round"/>
</svg>
