<svg width="54" height="54" viewBox="0 0 54 54" fill="none" xmlns="http://www.w3.org/2000/svg">
<path d="M27.0001 54.0001C12.1001 54.0001 0.100098 41.9001 0.100098 27.0001C0.100098 12.1001 12.1001 0.100098 27.0001 0.100098C41.9001 0.100098 54.0001 12.1001 54.0001 27.0001C54.0001 41.9001 41.9001 54.0001 27.0001 54.0001ZM27.0001 6.1001C15.5001 6.1001 6.1001 15.5001 6.1001 27.0001C6.1001 38.5001 15.5001 47.9001 27.0001 47.9001C38.5001 47.9001 47.9001 38.5001 47.9001 27.0001C47.9001 15.5001 38.5001 6.1001 27.0001 6.1001Z" fill="#EDF5FB"/>
<path d="M21.7002 39.0997C35.8002 39.0997 37.9002 32.5997 37.9002 26.1997H41.9002C42.2002 26.1997 42.4002 25.9997 42.4002 25.6997C42.4002 25.5997 42.3002 25.3997 42.2002 25.2997L35.2002 17.5997C35.0002 17.3997 34.7002 17.3997 34.5002 17.5997L27.5002 25.2997C27.3002 25.4997 27.3002 25.7997 27.5002 25.9997C27.6002 26.0997 27.7002 26.1997 27.9002 26.1997H31.9002C31.9002 32.1997 31.0002 36.9997 21.7002 39.0997Z" fill="#0061AE"/>
<path d="M32.3001 14.8999C18.2001 14.8999 16.1001 21.3999 16.1001 27.7999H12.1001C11.8001 27.7999 11.6001 27.9999 11.6001 28.2999C11.6001 28.3999 11.7001 28.5999 11.8001 28.6999L18.8001 36.3999C19.0001 36.5999 19.3001 36.5999 19.5001 36.3999L26.5001 28.6999C26.7001 28.4999 26.7001 28.1999 26.5001 27.9999C26.4001 27.8999 26.3001 27.7999 26.1001 27.7999H22.1001C22.1001 21.7999 23.0001 16.9999 32.3001 14.8999Z" fill="#0061AE"/>
</svg>
