<svg width="54" height="54" viewBox="0 0 54 54" fill="none" xmlns="http://www.w3.org/2000/svg">
<path d="M27.0001 54.0001C12.1001 54.0001 0.100098 41.9001 0.100098 27.0001C0.100098 12.1001 12.1001 0.100098 27.0001 0.100098C41.9001 0.100098 54.0001 12.1001 54.0001 27.0001C54.0001 41.9001 41.9001 54.0001 27.0001 54.0001ZM27.0001 6.1001C15.5001 6.1001 6.1001 15.5001 6.1001 27.0001C6.1001 38.5001 15.5001 47.9001 27.0001 47.9001C38.5001 47.9001 47.9001 38.5001 47.9001 27.0001C47.9001 15.5001 38.5001 6.1001 27.0001 6.1001Z" fill="#EDF5FB"/>
<path d="M32.4001 19.3999H21.6001V36.3999H32.4001V19.3999Z" fill="#0061AE"/>
<path d="M20.8002 22.8003H12.2002V36.4003H20.8002V22.8003Z" fill="#0061AE"/>
<path d="M41.8002 26.7002H33.2002V36.4002H41.8002V26.7002Z" fill="#0061AE"/>
<path d="M27.1001 9.6001L28.4001 12.2001L31.3001 12.6001L29.2001 14.7001L29.7001 17.6001L27.1001 16.2001L24.5001 17.6001L25.0001 14.7001L22.9001 12.6001L25.8001 12.2001L27.1001 9.6001Z" fill="#0061AE"/>
</svg>
