<svg width="54" height="54" viewBox="0 0 54 54" fill="none" xmlns="http://www.w3.org/2000/svg">
<path d="M27.0001 54.0001C12.1001 54.0001 0.100098 41.9001 0.100098 27.0001C0.100098 12.1001 12.1001 0.100098 27.0001 0.100098C41.9001 0.100098 54.0001 12.1001 54.0001 27.0001C54.0001 41.9001 41.9001 54.0001 27.0001 54.0001ZM27.0001 6.1001C15.5001 6.1001 6.1001 15.5001 6.1001 27.0001C6.1001 38.5001 15.5001 47.9001 27.0001 47.9001C38.5001 47.9001 47.9001 38.5001 47.9001 27.0001C47.9001 15.5001 38.5001 6.1001 27.0001 6.1001Z" fill="#EDF5FB"/>
<path d="M42.9999 22.0002L34.2999 13.3002C33.4999 12.5002 32.1999 12.5002 31.4999 13.3002L23.5999 21.2002L22.7999 20.4002C21.9999 19.6002 20.6999 19.6002 19.9999 20.4002L10.9999 29.2002C10.1999 30.0002 10.1999 31.3002 10.9999 32.0002L19.6999 40.7002C20.4999 41.5002 21.7999 41.5002 22.4999 40.7002L30.3999 32.8002L31.1999 33.6002C31.9999 34.4002 33.2999 34.4002 33.9999 33.6002L42.7999 24.8002C43.7999 24.0002 43.7999 22.7002 42.9999 22.0002ZM13.8999 31.9002C13.6999 32.1002 13.3999 32.1002 13.1999 31.9002L12.7999 31.5002C12.1999 30.9002 12.1999 30.0002 12.7999 29.4002L13.0999 29.1002C13.2999 28.9002 13.5999 28.9002 13.7999 29.1002C13.9999 29.3002 13.9999 29.6002 13.7999 29.8002L13.4999 30.1002C13.2999 30.3002 13.2999 30.7002 13.4999 30.9002L13.8999 31.3002C14.0999 31.4002 14.0999 31.7002 13.8999 31.9002ZM22.5999 38.5002L22.1999 38.9002C21.5999 39.5002 20.6999 39.5002 20.0999 38.9002L19.7999 38.6002C19.5999 38.4002 19.5999 38.1002 19.7999 37.9002C19.9999 37.7002 20.2999 37.7002 20.4999 37.9002L20.7999 38.2002C20.9999 38.4002 21.3999 38.4002 21.5999 38.2002L21.9999 37.8002C22.1999 37.6002 22.4999 37.6002 22.6999 37.8002C22.7999 38.0002 22.7999 38.3002 22.5999 38.5002ZM22.4999 28.7002C21.0999 27.3002 21.0999 25.0002 22.4999 23.6002L27.5999 28.7002C26.1999 30.1002 23.8999 30.1002 22.4999 28.7002ZM29.3999 25.4002C30.7999 26.8002 30.7999 29.1002 29.3999 30.5002L24.2999 25.4002C25.6999 24.0002 27.9999 24.0002 29.3999 25.4002ZM33.7999 16.2002C33.5999 16.4002 33.2999 16.4002 33.0999 16.2002L32.7999 15.9002C32.5999 15.7002 32.1999 15.7002 31.9999 15.9002L31.5999 16.3002C31.3999 16.5002 31.0999 16.5002 30.8999 16.3002C30.6999 16.1002 30.6999 15.8002 30.8999 15.6002L31.2999 15.2002C31.8999 14.6002 32.7999 14.6002 33.3999 15.2002L33.6999 15.5002C33.9999 15.8002 33.9999 16.0002 33.7999 16.2002ZM40.7999 24.6002L40.3999 25.0002C40.1999 25.2002 39.8999 25.2002 39.6999 25.0002C39.4999 24.8002 39.4999 24.5002 39.6999 24.3002L39.9999 24.0002C40.1999 23.8002 40.1999 23.4002 39.9999 23.2002L39.5999 22.8002C39.3999 22.6002 39.3999 22.3002 39.5999 22.1002C39.7999 21.9002 40.0999 21.9002 40.2999 22.1002L40.6999 22.5002C41.3999 23.1002 41.3999 24.1002 40.7999 24.6002Z" fill="#0061AE"/>
</svg>
